<svg width="1537" height="1401" viewBox="0 0 1537 1401" fill="none" xmlns="http://www.w3.org/2000/svg">
<rect x="0.536133" width="1535.53" height="1400.84" fill="#A28F7B"/>
<path d="M240.295 661.339V651.641H308.316V661.339H240.295ZM288.112 690.433C291.973 690.433 295.565 690.792 298.887 691.511C302.3 692.139 305.263 693.217 307.777 694.743C310.292 696.27 312.267 698.335 313.704 700.939C315.141 703.454 315.859 706.641 315.859 710.503V724.78C315.859 729.989 314.781 734.119 312.626 737.173C310.561 740.226 307.553 742.515 303.602 744.042C299.74 745.479 295.026 746.377 289.459 746.736C283.981 747.185 277.92 747.409 271.275 747.409C269.03 747.409 266.426 747.364 263.462 747.275C260.499 747.185 257.491 747.05 254.438 746.871C251.474 746.781 248.736 746.646 246.221 746.467C243.707 746.377 241.642 746.287 240.025 746.197C238.499 746.107 237.78 746.062 237.87 746.062V651.641H247.838V690.433H288.112ZM305.622 723.299V711.85C305.622 709.246 305.038 707.18 303.871 705.654C302.794 704.037 301.402 702.87 299.696 702.152C298.079 701.343 296.283 700.85 294.308 700.67C292.332 700.401 290.446 700.266 288.65 700.266H247.838V737.577C248.017 737.577 248.646 737.621 249.723 737.711C250.891 737.801 252.327 737.891 254.034 737.981C255.83 738.07 257.805 738.16 259.96 738.25C262.115 738.25 264.315 738.295 266.56 738.385C268.805 738.475 270.871 738.519 272.756 738.519C278.503 738.519 283.442 738.385 287.573 738.115C291.704 737.846 295.071 737.262 297.675 736.364C300.369 735.377 302.345 733.85 303.602 731.785C304.949 729.719 305.622 726.891 305.622 723.299ZM398.615 722.356C398.615 730.887 395.562 737.173 389.456 741.213C383.349 745.254 374.145 747.275 361.843 747.275C353.312 747.275 346.218 746.287 340.561 744.311C334.994 742.336 330.818 739.507 328.034 735.826C325.251 732.054 323.859 727.564 323.859 722.356V702.017C323.859 695.911 325.295 691.062 328.169 687.47C331.132 683.788 335.443 681.139 341.1 679.523C346.757 677.817 353.582 676.963 361.573 676.963C373.517 676.963 382.676 678.939 389.051 682.89C395.427 686.751 398.615 693.127 398.615 702.017V722.356ZM388.513 702.017C388.513 698.156 387.48 695.058 385.415 692.723C383.349 690.388 380.341 688.727 376.39 687.739C372.529 686.751 367.68 686.257 361.843 686.257C356.096 686.257 351.112 686.796 346.892 687.874C342.761 688.862 339.573 690.523 337.328 692.858C335.083 695.103 333.961 698.201 333.961 702.152V723.164C333.961 726.487 335.083 729.27 337.328 731.515C339.663 733.67 342.896 735.332 347.026 736.499C351.247 737.577 356.186 738.115 361.843 738.115C367.68 738.115 372.574 737.577 376.525 736.499C380.476 735.421 383.439 733.805 385.415 731.65C387.48 729.405 388.513 726.576 388.513 723.164V702.017ZM462.899 678.58H491.59V745.928H481.892V687.739H462.361C458.948 687.739 456.03 688.098 453.605 688.817C451.181 689.535 449.205 690.568 447.679 691.915C446.152 693.262 444.895 694.968 443.907 697.033L429.36 729.495C427.654 733.356 425.858 736.499 423.972 738.924C422.176 741.348 420.021 743.279 417.507 744.715C414.993 746.152 411.85 747.23 408.078 747.948L402.556 742.83C405.788 741.932 408.393 740.764 410.368 739.328C412.433 737.801 414.05 736.14 415.217 734.344C416.474 732.548 417.462 730.797 418.18 729.091L432.324 698.111C433.042 696.494 433.94 694.564 435.017 692.319C436.185 690.074 437.801 687.919 439.866 685.853C442.022 683.788 444.94 682.082 448.622 680.735C452.303 679.298 457.063 678.58 462.899 678.58ZM551.28 705.115C557.027 705.115 562.056 705.833 566.366 707.27C570.766 708.617 574.133 710.772 576.468 713.735C578.893 716.699 580.105 720.605 580.105 725.454C580.105 729.674 578.937 733.446 576.603 736.768C574.358 740.001 570.586 742.515 565.288 744.311C559.99 746.107 552.851 747.005 543.872 747.005C540.819 747.005 537.451 746.96 533.769 746.871C530.178 746.781 526.631 746.646 523.128 746.467C519.626 746.377 516.394 746.242 513.43 746.062C510.467 745.973 507.998 745.883 506.022 745.793C504.047 745.613 502.879 745.524 502.52 745.524V678.58H512.353V705.115H551.28ZM542.794 737.307C548.182 737.307 552.851 736.948 556.802 736.23C560.843 735.511 563.941 734.299 566.096 732.593C568.341 730.797 569.464 728.462 569.464 725.589C569.464 723.254 568.925 721.368 567.848 719.931C566.77 718.495 565.333 717.417 563.537 716.699C561.741 715.891 559.766 715.352 557.611 715.082C555.455 714.813 553.345 714.678 551.28 714.678H512.353V736.768C513.071 736.768 514.508 736.813 516.663 736.903C518.908 736.993 521.557 737.083 524.61 737.173C527.663 737.173 530.761 737.217 533.904 737.307C537.137 737.307 540.1 737.307 542.794 737.307ZM686.711 678.58H696.544V745.928H590.269V678.58H599.967V735.826H638.355V678.58H648.054V735.826H686.711V678.58ZM716.874 727.878C716.874 730.034 717.457 731.83 718.625 733.266C719.792 734.613 721.408 735.691 723.474 736.499C725.629 737.217 728.098 737.756 730.882 738.115C733.666 738.475 736.629 738.654 739.772 738.654C744.801 738.654 750.009 738.205 755.397 737.307C760.785 736.319 766.172 734.883 771.56 732.997L774.658 741.213C769.719 743.189 764.332 744.76 758.495 745.928C752.658 747.005 746.911 747.544 741.254 747.544C736.135 747.544 731.466 747.23 727.245 746.601C723.025 746.062 719.388 745.12 716.335 743.773C713.282 742.426 710.902 740.54 709.196 738.115C707.58 735.691 706.772 732.638 706.772 728.956V699.054C706.772 693.666 708.388 689.4 711.621 686.257C714.853 683.025 719.298 680.735 724.955 679.388C730.613 677.951 736.988 677.233 744.082 677.233C751.266 677.233 757.507 677.906 762.805 679.253C768.193 680.6 772.323 682.845 775.197 685.988C778.16 689.131 779.642 693.351 779.642 698.65V718.45L716.874 720.47V727.878ZM769.54 699.323C769.54 696.27 768.417 693.756 766.172 691.78C764.017 689.804 761.009 688.323 757.148 687.335C753.376 686.347 748.976 685.898 743.948 685.988C738.29 685.988 733.441 686.482 729.4 687.47C725.36 688.368 722.262 689.849 720.106 691.915C717.951 693.98 716.874 696.764 716.874 700.266V711.042L769.54 709.695V699.323ZM906.052 689.355C902.64 688.368 898.868 687.604 894.737 687.066C890.697 686.437 886.745 686.078 882.884 685.988C877.137 685.988 872.064 686.572 867.664 687.739C863.353 688.817 859.986 690.613 857.561 693.127C855.137 695.641 853.925 698.964 853.925 703.094V721.413C853.925 724.825 854.598 727.654 855.945 729.899C857.382 732.144 859.402 733.895 862.006 735.152C864.61 736.409 867.708 737.307 871.3 737.846C874.982 738.295 879.068 738.519 883.558 738.519C886.701 738.519 889.709 738.43 892.582 738.25C895.456 738.07 898.015 737.846 900.26 737.577C902.505 737.307 904.256 737.128 905.513 737.038C906.77 736.858 907.354 736.768 907.264 736.768L909.15 745.254C905.019 745.973 900.664 746.511 896.084 746.871C891.595 747.32 887.105 747.499 882.615 747.409C874.802 747.32 867.978 746.601 862.141 745.254C856.394 743.817 851.904 741.348 848.671 737.846C845.529 734.344 843.957 729.36 843.957 722.895V702.69C843.957 696.854 845.349 692.049 848.133 688.278C851.006 684.506 855.272 681.723 860.929 679.927C866.586 678.041 873.59 677.098 881.941 677.098C886.431 677.188 890.966 677.637 895.546 678.445C900.125 679.253 904.48 680.286 908.611 681.543L906.052 689.355ZM950.641 727.34C950.641 729.674 951.18 731.74 952.258 733.536C953.425 735.242 955.086 736.679 957.242 737.846C959.397 739.013 962.001 739.956 965.054 740.675L960.878 747.948C956.837 747.23 953.425 746.242 950.641 744.985C947.948 743.728 945.837 742.246 944.311 740.54C942.874 738.834 941.841 736.903 941.213 734.748C940.584 732.503 940.27 730.034 940.27 727.34V688.009H915.351V678.58H976.772V688.009H950.641V727.34ZM1060.27 680.331C1060.09 681.229 1059.82 682.8 1059.46 685.045C1059.1 687.29 1058.92 689.76 1058.92 692.453V745.389C1059.01 745.389 1058.16 745.434 1056.36 745.524C1054.57 745.524 1052.23 745.613 1049.36 745.793C1046.57 745.883 1043.48 745.973 1040.06 746.062C1036.74 746.152 1033.51 746.242 1030.37 746.332C1027.22 746.422 1024.57 746.467 1022.42 746.467C1016.94 746.556 1011.91 746.287 1007.33 745.658C1002.84 744.94 998.937 743.728 995.614 742.022C992.292 740.315 989.687 737.981 987.802 735.017C986.006 732.054 985.108 728.327 985.108 723.838V697.976C985.108 693.756 985.871 690.343 987.398 687.739C988.924 685.045 991.034 682.935 993.728 681.408C996.422 679.882 999.565 678.849 1003.16 678.31C1006.75 677.772 1010.57 677.502 1014.61 677.502C1018.56 677.502 1022.73 677.727 1027.13 678.176C1031.53 678.625 1035.75 679.208 1039.79 679.927C1043.92 680.645 1047.38 681.453 1050.17 682.351C1050.17 682.351 1050.39 681.768 1050.84 680.6C1051.29 679.433 1051.87 678.355 1052.59 677.368L1060.27 680.331ZM995.075 723.838C995.075 727.43 996.063 730.258 998.039 732.323C1000.1 734.299 1003.07 735.736 1006.93 736.634C1010.79 737.442 1015.46 737.846 1020.94 737.846C1023.72 737.846 1026.59 737.846 1029.56 737.846C1032.61 737.756 1035.53 737.666 1038.31 737.577C1041.1 737.487 1043.39 737.397 1045.18 737.307C1047.07 737.217 1048.24 737.173 1048.68 737.173V691.107C1046.17 690.388 1043.34 689.76 1040.2 689.221C1037.06 688.682 1033.91 688.233 1030.77 687.874C1027.63 687.515 1024.71 687.245 1022.01 687.066C1019.32 686.796 1017.12 686.662 1015.41 686.662C1013.71 686.662 1011.69 686.751 1009.35 686.931C1007.11 687.021 1004.86 687.425 1002.62 688.143C1000.46 688.772 998.667 689.939 997.23 691.645C995.794 693.262 995.075 695.641 995.075 698.784V723.838ZM1102.7 727.34C1102.7 729.674 1103.24 731.74 1104.32 733.536C1105.48 735.242 1107.15 736.679 1109.3 737.846C1111.46 739.013 1114.06 739.956 1117.11 740.675L1112.94 747.948C1108.9 747.23 1105.48 746.242 1102.7 744.985C1100.01 743.728 1097.9 742.246 1096.37 740.54C1094.93 738.834 1093.9 736.903 1093.27 734.748C1092.64 732.503 1092.33 730.034 1092.33 727.34V688.009H1067.41V678.58H1128.83V688.009H1102.7V727.34ZM1147.27 727.878C1147.27 730.034 1147.85 731.83 1149.02 733.266C1150.19 734.613 1151.8 735.691 1153.87 736.499C1156.02 737.217 1158.49 737.756 1161.28 738.115C1164.06 738.475 1167.02 738.654 1170.17 738.654C1175.2 738.654 1180.4 738.205 1185.79 737.307C1191.18 736.319 1196.57 734.883 1201.96 732.997L1205.05 741.213C1200.11 743.189 1194.73 744.76 1188.89 745.928C1183.05 747.005 1177.31 747.544 1171.65 747.544C1166.53 747.544 1161.86 747.23 1157.64 746.601C1153.42 746.062 1149.78 745.12 1146.73 743.773C1143.68 742.426 1141.3 740.54 1139.59 738.115C1137.97 735.691 1137.17 732.638 1137.17 728.956V699.054C1137.17 693.666 1138.78 689.4 1142.02 686.257C1145.25 683.025 1149.69 680.735 1155.35 679.388C1161.01 677.951 1167.38 677.233 1174.48 677.233C1181.66 677.233 1187.9 677.906 1193.2 679.253C1198.59 680.6 1202.72 682.845 1205.59 685.988C1208.56 689.131 1210.04 693.351 1210.04 698.65V718.45L1147.27 720.47V727.878ZM1199.93 699.323C1199.93 696.27 1198.81 693.756 1196.57 691.78C1194.41 689.804 1191.4 688.323 1187.54 687.335C1183.77 686.347 1179.37 685.898 1174.34 685.988C1168.69 685.988 1163.84 686.482 1159.8 687.47C1155.75 688.368 1152.66 689.849 1150.5 691.915C1148.35 693.98 1147.27 696.764 1147.27 700.266V711.042L1199.93 709.695V699.323ZM1271.67 655.951V656.894C1271.67 659.678 1271 662.237 1269.65 664.571C1268.3 666.816 1266.46 668.657 1264.13 670.094C1261.88 671.441 1259.37 672.114 1256.58 672.114C1253.8 672.114 1251.24 671.441 1248.91 670.094C1246.57 668.657 1244.68 666.816 1243.25 664.571C1241.9 662.237 1241.23 659.678 1241.23 656.894V655.951H1248.91V656.894C1248.91 658.959 1249.67 660.755 1251.2 662.282C1252.72 663.808 1254.52 664.571 1256.58 664.571C1258.74 664.571 1260.53 663.808 1261.97 662.282C1263.41 660.755 1264.13 658.959 1264.13 656.894V655.951H1271.67ZM1228.97 678.58V733.536L1283.12 678.58H1293.76V745.928H1283.93V691.107L1229.91 745.928H1219.14V678.58H1228.97Z" fill="white"/>
</svg>
