<svg width="15" height="15" viewBox="0 0 15 15" fill="none" xmlns="http://www.w3.org/2000/svg">
<path d="M4.6875 11.25C5.20527 11.25 5.625 11.6697 5.625 12.1875C5.625 12.7053 5.20527 13.125 4.6875 13.125C4.16973 13.125 3.75 12.7053 3.75 12.1875C3.75 11.6697 4.16973 11.25 4.6875 11.25Z" stroke="white"/>
<path d="M10.3125 11.25C10.8303 11.25 11.25 11.6697 11.25 12.1875C11.25 12.7053 10.8303 13.125 10.3125 13.125C9.79475 13.125 9.375 12.7053 9.375 12.1875C9.375 11.6697 9.79475 11.25 10.3125 11.25Z" stroke="white"/>
<path d="M1.4056 1.43267C1.16137 1.3468 0.893776 1.47518 0.807914 1.71941C0.722045 1.96364 0.850426 2.23123 1.09465 2.31709L1.4056 1.43267ZM12.9113 6.1766L13.3703 6.27126L13.3709 6.26838L12.9113 6.1766ZM3.56768 6.09988V4.39886H2.63018V6.09988H3.56768ZM1.56886 1.49006L1.4056 1.43267L1.09465 2.31709L1.25791 2.37449L1.56886 1.49006ZM6.83606 10.1561H10.1504V9.21863H6.83606V10.1561ZM3.56768 4.39886C3.56768 3.95688 3.56831 3.58807 3.53587 3.28836C3.50229 2.97813 3.42953 2.69518 3.25329 2.43728L2.47926 2.96621C2.53567 3.04877 2.57923 3.16216 2.60381 3.38925C2.62954 3.62688 2.63018 3.93639 2.63018 4.39886H3.56768ZM1.25791 2.37449C1.67516 2.52119 1.94938 2.61841 2.15116 2.71742C2.34068 2.81041 2.42422 2.88568 2.47926 2.96621L3.25329 2.43728C3.07568 2.17736 2.83953 2.0109 2.56413 1.87578C2.30099 1.74666 1.96509 1.62938 1.56886 1.49006L1.25791 2.37449ZM2.63018 6.09988C2.63018 7.00769 2.63869 7.66232 2.72435 8.16244C2.8158 8.69638 2.99839 9.07869 3.33978 9.43876L4.02011 8.79376C3.82001 8.58269 3.71208 8.37601 3.6484 8.00419C3.57892 7.59851 3.56768 7.03051 3.56768 6.09988H2.63018ZM6.83606 9.21863C5.95056 9.21863 5.33615 9.21751 4.87323 9.15188C4.42647 9.08851 4.19045 8.97338 4.02011 8.79376L3.33978 9.43876C3.71095 9.83026 4.18145 10.0007 4.7416 10.0801C5.28559 10.1573 5.97847 10.1561 6.83606 10.1561V9.21863ZM3.09893 4.29363H10.6806V3.35613H3.09893V4.29363ZM12.4521 6.08198L12.1398 7.59745L13.058 7.7867L13.3703 6.27126L12.4521 6.08198ZM10.6806 4.29363C11.2159 4.29363 11.6869 4.29426 12.0587 4.33581C12.2434 4.35646 12.3817 4.38515 12.4788 4.41929C12.5797 4.45473 12.5958 4.48193 12.5877 4.47138L13.3308 3.89974C13.1839 3.70886 12.9774 3.60079 12.7896 3.5348C12.5981 3.46749 12.3814 3.42855 12.1629 3.40412C11.728 3.35551 11.1985 3.35613 10.6806 3.35613V4.29363ZM13.3709 6.26838C13.4767 5.73843 13.5665 5.29378 13.5885 4.93762C13.6111 4.57124 13.5694 4.20999 13.3308 3.89974L12.5877 4.47138C12.6264 4.52181 12.6693 4.61261 12.6528 4.87986C12.6356 5.15733 12.5628 5.52787 12.4516 6.08485L13.3709 6.26838ZM10.1504 10.1561C10.6264 10.1561 11.0259 10.1569 11.348 10.1175C11.6828 10.0766 11.9882 9.98701 12.2548 9.76976L11.6625 9.04301C11.5843 9.10676 11.4733 9.15769 11.2341 9.18701C10.9821 9.21782 10.6499 9.21863 10.1504 9.21863V10.1561ZM12.1398 7.59745C12.0389 8.08669 11.9711 8.41194 11.89 8.65251C11.8131 8.88082 11.7408 8.97926 11.6625 9.04301L12.2548 9.76976C12.5213 9.55251 12.6707 9.27151 12.7784 8.95188C12.8821 8.64438 12.9619 8.25294 13.058 7.7867L12.1398 7.59745Z" fill="white"/>
</svg>
