<svg width="30" height="30" viewBox="0 0 30 30" fill="none" xmlns="http://www.w3.org/2000/svg">
<path fill-rule="evenodd" clip-rule="evenodd" d="M12.6389 2.5C11.7184 2.5 10.9722 3.24619 10.9722 4.16666C10.9722 4.6269 10.5991 5 10.1389 5H10H6.25C5.55965 5 5 5.55965 5 6.25C5 6.94035 5.55965 7.5 6.25 7.5H10H10.1389H19.8591H19.8611H20H23.75C24.4404 7.5 25 6.94035 25 6.25C25 5.55965 24.4404 5 23.75 5H19.8601C19.4004 4.99945 19.0278 4.62657 19.0278 4.16666C19.0278 3.24619 18.2816 2.5 17.3611 2.5H12.6389Z" fill="#D0BAA1"/>
<path fill-rule="evenodd" clip-rule="evenodd" d="M7.5 10C7.15044 10 6.81685 10.1464 6.58015 10.4036C6.34346 10.6609 6.22529 11.0054 6.25432 11.3538L7.21777 22.9153C7.43372 25.5068 9.60006 27.5 12.2005 27.5H17.7995C20.4 27.5 22.5662 25.5068 22.7822 22.9153L23.7456 11.3538C23.7747 11.0054 23.6565 10.6609 23.4199 10.4036C23.1831 10.1464 22.8496 10 22.5 10H7.5Z" fill="#D0BAA1"/>
</svg>
