<svg width="20" height="20" viewBox="0 0 20 20" fill="none" xmlns="http://www.w3.org/2000/svg">
<g clip-path="url(#clip0_395_2788)">
<path d="M9.99559 0.740723C8.16428 0.740723 6.3741 1.28377 4.85142 2.30119C3.32875 3.31861 2.14196 4.76471 1.44115 6.45662C0.74034 8.14853 0.556976 10.0103 0.914246 11.8064C1.27152 13.6025 2.15338 15.2523 3.44831 16.5473C4.74324 17.8422 6.39308 18.7241 8.1892 19.0813C9.98532 19.4386 11.847 19.2552 13.539 18.5544C15.2309 17.8536 16.677 16.6668 17.6944 15.1442C18.7118 13.6215 19.2549 11.8313 19.2549 9.99998C19.255 8.78401 19.0155 7.57993 18.5502 6.4565C18.085 5.33307 17.4029 4.31229 16.5431 3.45247C15.6833 2.59265 14.6625 1.91062 13.5391 1.44534C12.4156 0.980051 11.2116 0.740622 9.99559 0.740723ZM12.9396 14.7708C12.9049 14.8572 12.8522 14.9352 12.7849 14.9996C12.7177 15.064 12.6374 15.1132 12.5495 15.144C12.4617 15.1748 12.3682 15.1865 12.2755 15.1783C12.1828 15.17 12.0929 15.1421 12.0118 15.0963L9.49822 13.1431L7.88496 14.6315C7.84753 14.6591 7.80374 14.6769 7.75763 14.6832C7.71151 14.6895 7.66455 14.6841 7.62107 14.6675L7.93033 11.9004L7.94023 11.9083L7.94655 11.8536C7.94655 11.8536 12.4697 7.73558 12.654 7.56013C12.8405 7.38513 12.779 7.34717 12.779 7.34717C12.7896 7.13371 12.4442 7.34717 12.4442 7.34717L6.45115 11.2028L3.95532 10.3528C3.95532 10.3528 3.57199 10.2153 3.53588 9.91295C3.49792 9.61295 3.96781 9.44998 3.96781 9.44998L13.891 5.50784C13.891 5.50784 14.7067 5.1444 14.7067 5.74628L12.9396 14.7708Z" fill="#A28F7B"/>
</g>
<defs>
<clipPath id="clip0_395_2788">
<rect width="20" height="20" fill="white"/>
</clipPath>
</defs>
</svg>
