<svg width="157" height="39" viewBox="0 0 157 39" fill="none" xmlns="http://www.w3.org/2000/svg">
<g clip-path="url(#clip0_537_239)">
<path d="M96.7205 0.26001H78.8672V2.81667H86.2339V21.9267H89.3105V2.81667H96.7205V0.26001Z" fill="#454658"/>
<path d="M135.59 0.26001H117.736V2.81667H125.146V21.9267H128.223V2.81667H135.59V0.26001Z" fill="#454658"/>
<path d="M74.1001 0.26001H71.0234V21.9267H74.1001V0.26001Z" fill="#454658"/>
<path d="M114.313 13.52L114.096 12.9133C113.75 12.0467 114.356 11.0933 115.31 10.0967C115.31 10.0533 115.31 10.01 115.266 9.96667C115.18 9.96667 115.05 10.0533 114.92 10.0967L109.72 12.1333C109.72 12.1333 112.883 10.4 112.32 8.97001C112.32 8.97001 112.32 8.97001 112.32 8.92668C112.19 8.58001 112.016 8.23334 112.016 8.23334L108.593 0.26001H105.386L96.7197 21.9267H99.8831L106.99 3.38001L109.806 9.88C110.153 10.7467 108.896 12.48 104.476 14.3433C104.476 14.3867 104.476 14.43 104.52 14.4733C104.606 14.4733 104.736 14.3867 104.866 14.3433L114.096 10.66C114.096 10.66 110.716 12.48 111.28 13.91C111.453 14.3 111.583 14.69 111.583 14.69L111.93 15.5567L114.486 21.97H117.866L114.4 13.5633L114.313 13.52Z" fill="#454658"/>
<path d="M3.42345 8.66655L3.64012 9.27322C3.98679 10.1399 3.38012 11.0932 2.42678 12.0899C2.42678 12.1332 2.42678 12.1766 2.47012 12.2199C2.55678 12.2199 2.68679 12.1332 2.81679 12.0899L8.01679 10.0532C8.01679 10.0532 4.85345 11.7866 5.41679 13.2166C5.41679 13.2166 5.41679 13.2166 5.41679 13.2599C5.54679 13.6066 5.72012 13.9532 5.72012 13.9532L9.14345 21.9266H12.3501L21.0168 0.259889H17.8535L10.7468 18.7199L7.93012 12.3065C7.58345 11.4399 8.84012 9.70656 13.2601 7.84322C13.2601 7.79989 13.2601 7.75655 13.2168 7.71322C13.1301 7.71322 13.0001 7.79989 12.8701 7.84322L3.64012 11.5266C3.64012 11.5266 7.02012 9.70655 6.45679 8.27656C6.28345 7.88655 6.15345 7.49655 6.15345 7.49655L5.80679 6.62989L3.25012 0.216553H-0.129883L3.33678 8.62322L3.42345 8.66655Z" fill="#454658"/>
<path d="M61.75 21.9267H65.2166L60.4933 14.2133C63.2233 13.1733 65.1733 10.5733 65.1733 7.45334C65.1733 4.33334 61.9666 0.26001 57.98 0.26001H51.0466H48.0566V21.9267H51.0466V14.6467H57.2866L61.7066 21.9267H61.75ZM51.0466 2.86001H57.98C60.5366 2.86001 62.6166 4.89667 62.6166 7.45334C62.6166 10.01 60.5366 12.09 57.98 12.09H51.0466V2.86001Z" fill="#454658"/>
<path d="M42.1635 19.3699H28.8601V13.6066V11.2232H39.5635V11.0499H28.8601V8.88322C28.8601 7.84322 28.8601 2.85989 28.8601 2.85989H42.1635V0.303223H25.8701V8.53656V13.9099C25.8701 15.9899 25.8701 21.9699 25.8701 21.9699H42.1635V19.4132V19.3699Z" fill="#454658"/>
<path d="M156.607 19.3699H143.303V13.6066V11.2232H154.007V11.0499H143.303V8.88322C143.303 7.84322 143.303 2.85989 143.303 2.85989H156.607V0.303223H140.313V8.53656V13.9099C140.313 15.9899 140.313 21.9699 140.313 21.9699H156.607V19.4132V19.3699Z" fill="#454658"/>
<path d="M41.5137 35.9232C41.5137 34.1466 42.8137 32.9766 44.417 32.9766C46.0203 32.9766 46.1503 33.4532 46.627 34.1032L46.0203 34.4499C45.6737 33.9732 45.1103 33.6266 44.417 33.6266C43.2037 33.6266 42.2503 34.5799 42.2503 35.9666C42.2503 37.3532 43.2037 38.3066 44.417 38.3066C45.6303 38.3066 45.6737 37.9599 46.0203 37.4832L46.627 37.8299C46.1503 38.4799 45.457 38.9566 44.417 38.9566C42.8137 38.9566 41.5137 37.7432 41.5137 36.0099V35.9232Z" fill="#454658"/>
<path d="M53.6038 32.9766C55.2938 32.9766 56.4204 34.2332 56.4204 35.9232C56.4204 37.6132 55.2504 38.8699 53.6038 38.8699C51.9571 38.8699 50.7871 37.6132 50.7871 35.9232C50.7871 34.2332 51.9138 32.9766 53.6038 32.9766ZM53.6038 33.5832C52.3038 33.5832 51.5238 34.5799 51.5238 35.9232C51.5238 37.2666 52.3471 38.2632 53.6038 38.2632C54.8604 38.2632 55.6838 37.2666 55.6838 35.9232C55.6838 34.5799 54.8604 33.5832 53.6038 33.5832Z" fill="#454658"/>
<path d="M61.0574 37.4399C61.4474 37.8732 62.054 38.2632 62.8774 38.2632C63.7007 38.2632 64.2207 37.6999 64.2207 37.2666C64.2207 36.5732 63.5274 36.3999 62.7907 36.1832C61.8807 35.9232 60.8407 35.7066 60.8407 34.5799C60.8407 33.4532 61.664 32.9766 62.7907 32.9766C63.9174 32.9766 64.3507 33.2799 64.8274 33.7566L64.394 34.2766C63.9607 33.7999 63.354 33.5832 62.7474 33.5832C62.1407 33.5832 61.5774 33.9732 61.5774 34.4932C61.5774 35.0132 62.2274 35.2299 62.964 35.4466C63.9174 35.7066 64.9574 35.9666 64.9574 37.1799C64.9574 38.3932 64.394 38.8699 62.834 38.8699C61.274 38.8699 61.1007 38.4799 60.624 37.9599L61.0574 37.4399Z" fill="#454658"/>
<path d="M74.3166 34.0166L72.3666 38.7832H72.0632L70.1132 34.0166V38.7832H69.4199V33.0632H70.4599L72.2366 37.4399L74.0132 33.0632H75.0533V38.7832H74.3599V34.0166H74.3166Z" fill="#454658"/>
<path d="M79.7773 33.0632H83.504V33.7132H80.4707V35.5766H83.4607V36.2266H80.4707V38.2199H83.504V38.8699H79.7773V33.1499V33.0632Z" fill="#454658"/>
<path d="M89.527 33.6698H87.707V33.0198H92.0404V33.6698H90.2204V38.7398H89.527V33.6698Z" fill="#454658"/>
<path d="M96.417 33.0632H97.1103V38.7832H96.417V33.0632Z" fill="#454658"/>
<path d="M101.66 35.9232C101.66 34.1466 102.96 32.9766 104.563 32.9766C106.167 32.9766 106.297 33.4532 106.773 34.1032L106.167 34.4499C105.82 33.9732 105.257 33.6266 104.563 33.6266C103.35 33.6266 102.397 34.5799 102.397 35.9666C102.397 37.3532 103.35 38.3066 104.563 38.3066C105.777 38.3066 105.82 37.9599 106.167 37.4832L106.773 37.8299C106.297 38.4799 105.603 38.9566 104.563 38.9566C102.96 38.9566 101.66 37.7432 101.66 36.0099V35.9232Z" fill="#454658"/>
<path d="M111.194 37.4399C111.584 37.8732 112.191 38.2632 113.014 38.2632C113.837 38.2632 114.357 37.6999 114.357 37.2666C114.357 36.5732 113.664 36.3999 112.927 36.1832C112.017 35.9232 110.977 35.7066 110.977 34.5799C110.977 33.4532 111.801 32.9766 112.927 32.9766C114.054 32.9766 114.487 33.2799 114.964 33.7566L114.531 34.2766C114.097 33.7999 113.491 33.5832 112.884 33.5832C112.277 33.5832 111.714 33.9732 111.714 34.4932C111.714 35.0132 112.364 35.2299 113.101 35.4466C114.054 35.7066 115.094 35.9666 115.094 37.1799C115.094 38.3932 114.531 38.8699 112.971 38.8699C111.411 38.8699 111.237 38.4799 110.761 37.9599L111.194 37.4399Z" fill="#454658"/>
</g>
<defs>
<clipPath id="clip0_537_239">
<rect width="156.433" height="39" fill="white"/>
</clipPath>
</defs>
</svg>
