<svg width="474" height="359" viewBox="0 0 474 359" fill="none" xmlns="http://www.w3.org/2000/svg">
<g clip-path="url(#clip0_687_19215)">
<path d="M190.008 322.598H138.721V322.835H190.008V322.598Z" fill="#EBEBEB"/>
<path d="M362.316 95.0415H296.497C292.942 98.603 290.951 100.597 287.405 104.149V307.022C290.96 310.584 292.951 312.578 296.497 316.13H362.316C365.871 312.569 367.862 310.574 371.408 307.022V104.149C367.862 100.588 365.871 98.5935 362.316 95.0415Z" fill="#E0E0E0"/>
<path d="M287.405 307.022L296.497 316.13H316.907L307.816 307.022H287.405Z" fill="#EBEBEB"/>
<path d="M287.405 104.149L296.497 95.0415H316.907L307.816 104.149H287.405Z" fill="#EBEBEB"/>
<path d="M398.549 95.0415H316.907C313.352 98.603 311.361 100.597 307.816 104.149V307.022C311.371 310.584 313.361 312.578 316.907 316.13H398.549C402.104 312.569 404.095 310.574 407.64 307.022V104.149C404.085 100.588 402.094 98.5935 398.549 95.0415Z" fill="#EBEBEB"/>
<path d="M318.073 311.876L312.063 305.864V105.308L318.073 99.2963H397.392L403.393 105.308V305.864L397.392 311.876H318.073Z" fill="#F0E3D6"/>
<path d="M403.393 110.085H316.31V127.655H403.393V110.085Z" fill="#EBEBEB"/>
<path d="M398.473 288.123C398.473 288.541 398.814 288.882 399.231 288.882C399.648 288.882 399.99 288.541 399.99 288.123C399.99 287.705 399.648 287.363 399.231 287.363C398.814 287.363 398.473 287.705 398.473 288.123Z" fill="#F0E3D6"/>
<path d="M394.823 288.123C394.823 288.541 395.164 288.882 395.581 288.882C395.999 288.882 396.34 288.541 396.34 288.123C396.34 287.705 395.999 287.363 395.581 287.363C395.155 287.363 394.823 287.705 394.823 288.123Z" fill="white"/>
<path d="M391.164 288.123C391.164 288.541 391.505 288.882 391.922 288.882C392.339 288.882 392.681 288.541 392.681 288.123C392.681 287.705 392.339 287.363 391.922 287.363C391.505 287.363 391.164 287.705 391.164 288.123Z" fill="#F0E3D6"/>
<path d="M403.393 117.161H316.31V120.58H403.393V117.161Z" fill="#F0E3D6"/>
<path d="M312.064 127.66H316.312V110.09H312.064V127.66Z" fill="#E0E0E0"/>
<path d="M403.393 129.355H316.31V146.926H403.393V129.355Z" fill="#EBEBEB"/>
<path d="M398.473 268.853C398.473 269.27 398.814 269.612 399.231 269.612C399.648 269.612 399.99 269.27 399.99 268.853C399.99 268.435 399.648 268.093 399.231 268.093C398.814 268.093 398.473 268.435 398.473 268.853Z" fill="#F0E3D6"/>
<path d="M394.823 268.853C394.823 269.27 395.164 269.612 395.581 269.612C395.999 269.612 396.34 269.27 396.34 268.853C396.34 268.435 395.999 268.093 395.581 268.093C395.155 268.093 394.823 268.435 394.823 268.853Z" fill="white"/>
<path d="M391.164 268.853C391.164 269.27 391.505 269.612 391.922 269.612C392.339 269.612 392.681 269.27 392.681 268.853C392.681 268.435 392.339 268.093 391.922 268.093C391.505 268.093 391.164 268.435 391.164 268.853Z" fill="white"/>
<path d="M403.393 136.431H316.31V139.85H403.393V136.431Z" fill="#F0E3D6"/>
<path d="M312.064 146.929H316.312V129.358H312.064V146.929Z" fill="#E0E0E0"/>
<path d="M403.393 148.626H316.31V166.196H403.393V148.626Z" fill="#EBEBEB"/>
<path d="M398.473 249.592C398.473 250.01 398.814 250.352 399.231 250.352C399.648 250.352 399.99 250.01 399.99 249.592C399.99 249.174 399.648 248.832 399.231 248.832C398.814 248.823 398.473 249.165 398.473 249.592Z" fill="#F0E3D6"/>
<path d="M394.823 249.592C394.823 250.01 395.164 250.352 395.581 250.352C395.999 250.352 396.34 250.01 396.34 249.592C396.34 249.174 395.999 248.832 395.581 248.832C395.155 248.823 394.823 249.165 394.823 249.592Z" fill="#F0E3D6"/>
<path d="M391.164 249.592C391.164 250.01 391.505 250.352 391.922 250.352C392.339 250.352 392.681 250.01 392.681 249.592C392.681 249.174 392.339 248.832 391.922 248.832C391.505 248.823 391.164 249.165 391.164 249.592Z" fill="#F0E3D6"/>
<path d="M403.393 155.701H316.31V159.12H403.393V155.701Z" fill="#F0E3D6"/>
<path d="M312.064 166.197H316.312V148.627H312.064V166.197Z" fill="#E0E0E0"/>
<path d="M403.393 167.896H316.31V185.466H403.393V167.896Z" fill="#EBEBEB"/>
<path d="M398.473 230.322C398.473 230.74 398.814 231.082 399.231 231.082C399.648 231.082 399.99 230.74 399.99 230.322C399.99 229.904 399.648 229.562 399.231 229.562C398.814 229.553 398.473 229.894 398.473 230.322Z" fill="white"/>
<path d="M394.823 230.322C394.823 230.74 395.164 231.082 395.581 231.082C395.999 231.082 396.34 230.74 396.34 230.322C396.34 229.904 395.999 229.562 395.581 229.562C395.155 229.553 394.823 229.894 394.823 230.322Z" fill="white"/>
<path d="M391.164 230.322C391.164 230.74 391.505 231.082 391.922 231.082C392.339 231.082 392.681 230.74 392.681 230.322C392.681 229.904 392.339 229.562 391.922 229.562C391.505 229.553 391.164 229.894 391.164 230.322Z" fill="#F0E3D6"/>
<path d="M403.393 174.971H316.31V178.39H403.393V174.971Z" fill="#F0E3D6"/>
<path d="M312.064 185.466H316.312V167.896H312.064V185.466Z" fill="#E0E0E0"/>
<path d="M403.393 187.166H316.31V204.736H403.393V187.166Z" fill="#EBEBEB"/>
<path d="M398.473 211.052C398.473 211.47 398.814 211.812 399.231 211.812C399.648 211.812 399.99 211.47 399.99 211.052C399.99 210.634 399.648 210.292 399.231 210.292C398.814 210.282 398.473 210.624 398.473 211.052Z" fill="white"/>
<path d="M394.823 211.052C394.823 211.47 395.164 211.812 395.581 211.812C395.999 211.812 396.34 211.47 396.34 211.052C396.34 210.634 395.999 210.292 395.581 210.292C395.155 210.282 394.823 210.624 394.823 211.052Z" fill="white"/>
<path d="M391.164 211.052C391.164 211.47 391.505 211.812 391.922 211.812C392.339 211.812 392.681 211.47 392.681 211.052C392.681 210.634 392.339 210.292 391.922 210.292C391.505 210.282 391.164 210.624 391.164 211.052Z" fill="white"/>
<path d="M403.393 194.241H316.31V197.66H403.393V194.241Z" fill="#F0E3D6"/>
<path d="M312.064 204.734H316.312V187.164H312.064V204.734Z" fill="#E0E0E0"/>
<path d="M403.393 206.436H316.31V224.006H403.393V206.436Z" fill="#EBEBEB"/>
<path d="M398.473 191.782C398.473 192.199 398.814 192.541 399.231 192.541C399.648 192.541 399.99 192.199 399.99 191.782C399.99 191.364 399.648 191.022 399.231 191.022C398.814 191.022 398.473 191.354 398.473 191.782Z" fill="#F0E3D6"/>
<path d="M394.823 191.782C394.823 192.199 395.164 192.541 395.581 192.541C395.999 192.541 396.34 192.199 396.34 191.782C396.34 191.364 395.999 191.022 395.581 191.022C395.155 191.022 394.823 191.354 394.823 191.782Z" fill="white"/>
<path d="M391.164 191.782C391.164 192.199 391.505 192.541 391.922 192.541C392.339 192.541 392.681 192.199 392.681 191.782C392.681 191.364 392.339 191.022 391.922 191.022C391.505 191.022 391.164 191.354 391.164 191.782Z" fill="#F0E3D6"/>
<path d="M403.393 213.511H316.31V216.931H403.393V213.511Z" fill="#F0E3D6"/>
<path d="M312.064 224.003H316.312V206.433H312.064V224.003Z" fill="#E0E0E0"/>
<path d="M403.393 225.706H316.31V243.276H403.393V225.706Z" fill="#EBEBEB"/>
<path d="M398.473 172.511C398.473 172.929 398.814 173.271 399.231 173.271C399.648 173.271 399.99 172.929 399.99 172.511C399.99 172.094 399.648 171.752 399.231 171.752C398.814 171.752 398.473 172.094 398.473 172.511Z" fill="white"/>
<path d="M394.823 172.511C394.823 172.929 395.164 173.271 395.581 173.271C395.999 173.271 396.34 172.929 396.34 172.511C396.34 172.094 395.999 171.752 395.581 171.752C395.155 171.752 394.823 172.094 394.823 172.511Z" fill="white"/>
<path d="M391.164 172.511C391.164 172.929 391.505 173.271 391.922 173.271C392.339 173.271 392.681 172.929 392.681 172.511C392.681 172.094 392.339 171.752 391.922 171.752C391.505 171.752 391.164 172.094 391.164 172.511Z" fill="#F0E3D6"/>
<path d="M403.393 232.782H316.31V236.201H403.393V232.782Z" fill="#F0E3D6"/>
<path d="M312.064 243.272H316.312V225.702H312.064V243.272Z" fill="#E0E0E0"/>
<path d="M403.393 244.976H316.31V262.546H403.393V244.976Z" fill="#EBEBEB"/>
<path d="M398.473 153.241C398.473 153.659 398.814 154.001 399.231 154.001C399.648 154.001 399.99 153.659 399.99 153.241C399.99 152.823 399.648 152.482 399.231 152.482C398.814 152.482 398.473 152.823 398.473 153.241Z" fill="white"/>
<path d="M394.823 153.241C394.823 153.659 395.164 154.001 395.581 154.001C395.999 154.001 396.34 153.659 396.34 153.241C396.34 152.823 395.999 152.482 395.581 152.482C395.155 152.482 394.823 152.823 394.823 153.241Z" fill="#F0E3D6"/>
<path d="M391.164 153.241C391.164 153.659 391.505 154.001 391.922 154.001C392.339 154.001 392.681 153.659 392.681 153.241C392.681 152.823 392.339 152.482 391.922 152.482C391.505 152.482 391.164 152.823 391.164 153.241Z" fill="white"/>
<path d="M403.393 252.052H316.31V255.471H403.393V252.052Z" fill="#F0E3D6"/>
<path d="M312.064 262.541H316.312V244.97H312.064V262.541Z" fill="#E0E0E0"/>
<path d="M403.393 264.246H316.31V281.817H403.393V264.246Z" fill="#EBEBEB"/>
<path d="M398.473 133.971C398.473 134.389 398.814 134.731 399.231 134.731C399.648 134.731 399.99 134.389 399.99 133.971C399.99 133.553 399.648 133.211 399.231 133.211C398.814 133.211 398.473 133.553 398.473 133.971Z" fill="#F0E3D6"/>
<path d="M394.823 133.971C394.823 134.389 395.164 134.731 395.581 134.731C395.999 134.731 396.34 134.389 396.34 133.971C396.34 133.553 395.999 133.211 395.581 133.211C395.155 133.211 394.823 133.553 394.823 133.971Z" fill="white"/>
<path d="M391.164 133.971C391.164 134.389 391.505 134.731 391.922 134.731C392.339 134.731 392.681 134.389 392.681 133.971C392.681 133.553 392.339 133.211 391.922 133.211C391.505 133.211 391.164 133.553 391.164 133.971Z" fill="#F0E3D6"/>
<path d="M403.393 271.322H316.31V274.741H403.393V271.322Z" fill="#F0E3D6"/>
<path d="M312.064 281.809H316.312V264.239H312.064V281.809Z" fill="#E0E0E0"/>
<path d="M403.393 283.517H316.31V301.087H403.393V283.517Z" fill="#EBEBEB"/>
<path d="M398.473 114.701C398.473 115.119 398.814 115.461 399.231 115.461C399.648 115.461 399.99 115.119 399.99 114.701C399.99 114.283 399.648 113.941 399.231 113.941C398.814 113.941 398.473 114.283 398.473 114.701Z" fill="#F0E3D6"/>
<path d="M394.823 114.701C394.823 115.119 395.164 115.461 395.581 115.461C395.999 115.461 396.34 115.119 396.34 114.701C396.34 114.283 395.999 113.941 395.581 113.941C395.155 113.941 394.823 114.283 394.823 114.701Z" fill="#F0E3D6"/>
<path d="M391.164 114.701C391.164 115.119 391.505 115.461 391.922 115.461C392.339 115.461 392.681 115.119 392.681 114.701C392.681 114.283 392.339 113.941 391.922 113.941C391.505 113.941 391.164 114.283 391.164 114.701Z" fill="white"/>
<path d="M403.393 290.592H316.31V294.011H403.393V290.592Z" fill="#F0E3D6"/>
<path d="M312.064 301.078H316.312V283.508H312.064V301.078Z" fill="#E0E0E0"/>
<path d="M251.798 95.0415H185.979C182.424 98.603 180.433 100.597 176.887 104.149V307.022C180.442 310.584 182.433 312.578 185.979 316.13H251.798C255.353 312.569 257.344 310.574 260.89 307.022V104.149C257.335 100.588 255.344 98.5935 251.798 95.0415Z" fill="#E0E0E0"/>
<path d="M176.878 307.022L185.979 316.13H206.389L197.298 307.022H176.878Z" fill="#EBEBEB"/>
<path d="M176.878 104.149L185.979 95.0415H206.389L197.298 104.149H176.878Z" fill="#EBEBEB"/>
<path d="M288.021 95.0415H206.38C202.825 98.603 200.834 100.597 197.288 104.149V307.022C200.843 310.584 202.834 312.578 206.38 316.13H288.021C291.576 312.569 293.567 310.574 297.113 307.022V104.149C293.567 100.588 291.576 98.5935 288.021 95.0415Z" fill="#EBEBEB"/>
<path d="M207.546 311.876L201.545 305.864V105.308L207.546 99.2963H286.865L292.875 105.308V305.864L286.865 311.876H207.546Z" fill="#F0E3D6"/>
<path d="M292.875 110.085H205.792V127.655H292.875V110.085Z" fill="#EBEBEB"/>
<path d="M287.955 114.701C287.955 114.283 288.297 113.941 288.714 113.941C289.131 113.941 289.472 114.283 289.472 114.701C289.472 115.119 289.131 115.461 288.714 115.461C288.297 115.461 287.955 115.119 287.955 114.701Z" fill="#F0E3D6"/>
<path d="M284.296 114.701C284.296 114.283 284.637 113.941 285.054 113.941C285.471 113.941 285.813 114.283 285.813 114.701C285.813 115.119 285.471 115.461 285.054 115.461C284.637 115.461 284.296 115.119 284.296 114.701Z" fill="white"/>
<path d="M280.637 114.701C280.637 114.283 280.978 113.941 281.395 113.941C281.812 113.941 282.154 114.283 282.154 114.701C282.154 115.119 281.812 115.461 281.395 115.461C280.978 115.461 280.637 115.119 280.637 114.701Z" fill="#F0E3D6"/>
<path d="M292.875 117.161H205.792V120.58H292.875V117.161Z" fill="#F0E3D6"/>
<path d="M201.538 127.66H205.785V110.09H201.538V127.66Z" fill="#E0E0E0"/>
<path d="M292.875 129.355H205.792V146.926H292.875V129.355Z" fill="#EBEBEB"/>
<path d="M287.955 133.971C287.955 133.553 288.297 133.211 288.714 133.211C289.131 133.211 289.472 133.553 289.472 133.971C289.472 134.389 289.131 134.731 288.714 134.731C288.297 134.731 287.955 134.389 287.955 133.971Z" fill="#F0E3D6"/>
<path d="M284.296 133.971C284.296 133.553 284.637 133.211 285.054 133.211C285.471 133.211 285.813 133.553 285.813 133.971C285.813 134.389 285.471 134.731 285.054 134.731C284.637 134.731 284.296 134.389 284.296 133.971Z" fill="white"/>
<path d="M280.637 133.971C280.637 133.553 280.978 133.211 281.395 133.211C281.812 133.211 282.154 133.553 282.154 133.971C282.154 134.389 281.812 134.731 281.395 134.731C280.978 134.731 280.637 134.389 280.637 133.971Z" fill="white"/>
<path d="M292.875 136.431H205.792V139.85H292.875V136.431Z" fill="#F0E3D6"/>
<path d="M201.538 146.929H205.785V129.358H201.538V146.929Z" fill="#E0E0E0"/>
<path d="M292.875 148.626H205.792V166.196H292.875V148.626Z" fill="#EBEBEB"/>
<path d="M287.955 153.241C287.955 152.823 288.297 152.482 288.714 152.482C289.131 152.482 289.472 152.823 289.472 153.241C289.472 153.659 289.131 154.001 288.714 154.001C288.297 154.001 287.955 153.659 287.955 153.241Z" fill="#F0E3D6"/>
<path d="M284.296 153.241C284.296 152.823 284.637 152.482 285.054 152.482C285.471 152.482 285.813 152.823 285.813 153.241C285.813 153.659 285.471 154.001 285.054 154.001C284.637 154.001 284.296 153.659 284.296 153.241Z" fill="#F0E3D6"/>
<path d="M280.637 153.241C280.637 152.823 280.978 152.482 281.395 152.482C281.812 152.482 282.154 152.823 282.154 153.241C282.154 153.659 281.812 154.001 281.395 154.001C280.978 154.001 280.637 153.659 280.637 153.241Z" fill="#F0E3D6"/>
<path d="M292.875 155.701H205.792V159.12H292.875V155.701Z" fill="#F0E3D6"/>
<path d="M201.538 166.197H205.785V148.627H201.538V166.197Z" fill="#E0E0E0"/>
<path d="M292.875 167.896H205.792V185.466H292.875V167.896Z" fill="#EBEBEB"/>
<path d="M287.955 172.511C287.955 172.094 288.297 171.752 288.714 171.752C289.131 171.752 289.472 172.094 289.472 172.511C289.472 172.929 289.131 173.271 288.714 173.271C288.297 173.271 287.955 172.929 287.955 172.511Z" fill="white"/>
<path d="M284.296 172.511C284.296 172.094 284.637 171.752 285.054 171.752C285.471 171.752 285.813 172.094 285.813 172.511C285.813 172.929 285.471 173.271 285.054 173.271C284.637 173.271 284.296 172.929 284.296 172.511Z" fill="white"/>
<path d="M280.637 172.511C280.637 172.094 280.978 171.752 281.395 171.752C281.812 171.752 282.154 172.094 282.154 172.511C282.154 172.929 281.812 173.271 281.395 173.271C280.978 173.271 280.637 172.929 280.637 172.511Z" fill="#F0E3D6"/>
<path d="M292.875 174.971H205.792V178.39H292.875V174.971Z" fill="#F0E3D6"/>
<path d="M201.538 185.466H205.785V167.896H201.538V185.466Z" fill="#E0E0E0"/>
<path d="M292.875 187.166H205.792V204.736H292.875V187.166Z" fill="#EBEBEB"/>
<path d="M287.955 191.782C287.955 191.364 288.297 191.022 288.714 191.022C289.131 191.022 289.472 191.364 289.472 191.782C289.472 192.199 289.131 192.541 288.714 192.541C288.297 192.541 287.955 192.199 287.955 191.782Z" fill="white"/>
<path d="M284.296 191.782C284.296 191.364 284.637 191.022 285.054 191.022C285.471 191.022 285.813 191.364 285.813 191.782C285.813 192.199 285.471 192.541 285.054 192.541C284.637 192.541 284.296 192.199 284.296 191.782Z" fill="white"/>
<path d="M280.637 191.782C280.637 191.364 280.978 191.022 281.395 191.022C281.812 191.022 282.154 191.364 282.154 191.782C282.154 192.199 281.812 192.541 281.395 192.541C280.978 192.541 280.637 192.199 280.637 191.782Z" fill="white"/>
<path d="M292.875 194.241H205.792V197.66H292.875V194.241Z" fill="#F0E3D6"/>
<path d="M201.538 204.734H205.785V187.164H201.538V204.734Z" fill="#E0E0E0"/>
<path d="M292.875 206.436H205.792V224.006H292.875V206.436Z" fill="#EBEBEB"/>
<path d="M287.955 211.052C287.955 210.634 288.297 210.292 288.714 210.292C289.131 210.292 289.472 210.634 289.472 211.052C289.472 211.47 289.131 211.812 288.714 211.812C288.297 211.812 287.955 211.47 287.955 211.052Z" fill="#F0E3D6"/>
<path d="M284.296 211.052C284.296 210.634 284.637 210.292 285.054 210.292C285.471 210.292 285.813 210.634 285.813 211.052C285.813 211.47 285.471 211.812 285.054 211.812C284.637 211.812 284.296 211.47 284.296 211.052Z" fill="white"/>
<path d="M280.637 211.052C280.637 210.634 280.978 210.292 281.395 210.292C281.812 210.292 282.154 210.634 282.154 211.052C282.154 211.47 281.812 211.812 281.395 211.812C280.978 211.812 280.637 211.47 280.637 211.052Z" fill="#F0E3D6"/>
<path d="M292.875 213.512H205.792V216.931H292.875V213.512Z" fill="#F0E3D6"/>
<path d="M201.538 224.003H205.785V206.433H201.538V224.003Z" fill="#E0E0E0"/>
<path d="M292.875 225.706H205.792V243.276H292.875V225.706Z" fill="#EBEBEB"/>
<path d="M287.955 230.322C287.955 229.904 288.297 229.562 288.714 229.562C289.131 229.562 289.472 229.904 289.472 230.322C289.472 230.74 289.131 231.082 288.714 231.082C288.297 231.082 287.955 230.74 287.955 230.322Z" fill="white"/>
<path d="M284.296 230.322C284.296 229.904 284.637 229.562 285.054 229.562C285.471 229.562 285.813 229.904 285.813 230.322C285.813 230.74 285.471 231.082 285.054 231.082C284.637 231.082 284.296 230.74 284.296 230.322Z" fill="white"/>
<path d="M280.637 230.322C280.637 229.904 280.978 229.562 281.395 229.562C281.812 229.562 282.154 229.904 282.154 230.322C282.154 230.74 281.812 231.082 281.395 231.082C280.978 231.082 280.637 230.74 280.637 230.322Z" fill="#F0E3D6"/>
<path d="M292.875 232.782H205.792V236.201H292.875V232.782Z" fill="#F0E3D6"/>
<path d="M201.538 243.272H205.785V225.702H201.538V243.272Z" fill="#E0E0E0"/>
<path d="M292.875 244.976H205.792V262.546H292.875V244.976Z" fill="#EBEBEB"/>
<path d="M287.955 249.592C287.955 249.174 288.297 248.832 288.714 248.832C289.131 248.832 289.472 249.174 289.472 249.592C289.472 250.01 289.131 250.352 288.714 250.352C288.297 250.352 287.955 250.01 287.955 249.592Z" fill="white"/>
<path d="M284.296 249.592C284.296 249.174 284.637 248.832 285.054 248.832C285.471 248.832 285.813 249.174 285.813 249.592C285.813 250.01 285.471 250.352 285.054 250.352C284.637 250.352 284.296 250.01 284.296 249.592Z" fill="#F0E3D6"/>
<path d="M280.637 249.592C280.637 249.174 280.978 248.832 281.395 248.832C281.812 248.832 282.154 249.174 282.154 249.592C282.154 250.01 281.812 250.352 281.395 250.352C280.978 250.352 280.637 250.01 280.637 249.592Z" fill="white"/>
<path d="M292.875 252.052H205.792V255.471H292.875V252.052Z" fill="#F0E3D6"/>
<path d="M201.538 262.54H205.785V244.97H201.538V262.54Z" fill="#E0E0E0"/>
<path d="M292.875 264.246H205.792V281.817H292.875V264.246Z" fill="#EBEBEB"/>
<path d="M287.955 268.853C287.955 268.435 288.297 268.093 288.714 268.093C289.131 268.093 289.472 268.435 289.472 268.853C289.472 269.27 289.131 269.612 288.714 269.612C288.297 269.612 287.955 269.28 287.955 268.853Z" fill="#F0E3D6"/>
<path d="M284.296 268.853C284.296 268.435 284.637 268.093 285.054 268.093C285.471 268.093 285.813 268.435 285.813 268.853C285.813 269.27 285.471 269.612 285.054 269.612C284.637 269.622 284.296 269.28 284.296 268.853Z" fill="white"/>
<path d="M280.637 268.853C280.637 268.435 280.978 268.093 281.395 268.093C281.812 268.093 282.154 268.435 282.154 268.853C282.154 269.27 281.812 269.612 281.395 269.612C280.978 269.622 280.637 269.28 280.637 268.853Z" fill="#F0E3D6"/>
<path d="M292.875 271.322H205.792V274.741H292.875V271.322Z" fill="#F0E3D6"/>
<path d="M201.538 281.809H205.785V264.239H201.538V281.809Z" fill="#E0E0E0"/>
<path d="M292.875 283.517H205.792V301.087H292.875V283.517Z" fill="#EBEBEB"/>
<path d="M287.955 288.123C287.955 287.705 288.297 287.363 288.714 287.363C289.131 287.363 289.472 287.705 289.472 288.123C289.472 288.541 289.131 288.883 288.714 288.883C288.297 288.883 287.955 288.55 287.955 288.123Z" fill="#F0E3D6"/>
<path d="M284.296 288.123C284.296 287.705 284.637 287.363 285.054 287.363C285.471 287.363 285.813 287.705 285.813 288.123C285.813 288.541 285.471 288.883 285.054 288.883C284.637 288.892 284.296 288.55 284.296 288.123Z" fill="#F0E3D6"/>
<path d="M280.637 288.123C280.637 287.705 280.978 287.363 281.395 287.363C281.812 287.363 282.154 287.705 282.154 288.123C282.154 288.541 281.812 288.883 281.395 288.883C280.978 288.892 280.637 288.55 280.637 288.123Z" fill="white"/>
<path d="M292.875 290.592H205.792V294.011H292.875V290.592Z" fill="#F0E3D6"/>
<path d="M201.538 301.078H205.785V283.508H201.538V301.078Z" fill="#E0E0E0"/>
<path d="M141.271 95.0415H75.4514C71.8964 98.603 69.9056 100.597 66.3601 104.149V307.022C69.9151 310.584 71.9059 312.578 75.4514 316.13H141.271C144.826 312.569 146.817 310.574 150.362 307.022V104.149C146.817 100.588 144.826 98.5935 141.271 95.0415Z" fill="#F0E3D6"/>
<path d="M66.3601 307.022L75.4514 316.13H95.8619L86.7705 307.022H66.3601Z" fill="#F0E3D6"/>
<path d="M66.3601 104.149L75.4514 95.0415H95.8619L86.7705 104.149H66.3601Z" fill="#F0E3D6"/>
<path d="M177.504 95.0415H95.8713C92.3163 98.603 90.3255 100.597 86.78 104.149V307.022C90.335 310.584 92.3258 312.578 95.8713 316.13H177.504C181.059 312.569 183.049 310.574 186.595 307.022V104.149C183.049 100.588 181.059 98.5935 177.504 95.0415Z" fill="#F0E3D6"/>
<path d="M97.0279 311.876L91.0176 305.864V105.308L97.0279 99.2963H176.347L182.348 105.308V305.864L176.347 311.876H97.0279Z" fill="#F0E3D6"/>
<path d="M182.348 110.085H95.2646V127.655H182.348V110.085Z" fill="#EBEBEB"/>
<path d="M177.428 288.123C177.428 288.541 177.769 288.882 178.186 288.882C178.603 288.882 178.945 288.541 178.945 288.123C178.945 287.705 178.603 287.363 178.186 287.363C177.769 287.363 177.428 287.705 177.428 288.123Z" fill="#F0E3D6"/>
<path d="M173.778 288.123C173.778 288.541 174.119 288.882 174.536 288.882C174.953 288.882 175.295 288.541 175.295 288.123C175.295 287.705 174.953 287.363 174.536 287.363C174.11 287.363 173.778 287.705 173.778 288.123Z" fill="white"/>
<path d="M170.119 288.123C170.119 288.541 170.46 288.882 170.877 288.882C171.294 288.882 171.635 288.541 171.635 288.123C171.635 287.705 171.294 287.363 170.877 287.363C170.46 287.363 170.119 287.705 170.119 288.123Z" fill="#F0E3D6"/>
<path d="M182.348 117.161H95.2646V120.58H182.348V117.161Z" fill="#F0E3D6"/>
<path d="M91.0201 127.66H95.2671V110.09H91.0201V127.66Z" fill="#E0E0E0"/>
<path d="M182.348 129.355H95.2646V146.926H182.348V129.355Z" fill="#EBEBEB"/>
<path d="M177.428 268.853C177.428 269.27 177.769 269.612 178.186 269.612C178.603 269.612 178.945 269.27 178.945 268.853C178.945 268.435 178.603 268.093 178.186 268.093C177.769 268.093 177.428 268.435 177.428 268.853Z" fill="#F0E3D6"/>
<path d="M173.778 268.853C173.778 269.27 174.119 269.612 174.536 269.612C174.953 269.612 175.295 269.27 175.295 268.853C175.295 268.435 174.953 268.093 174.536 268.093C174.11 268.093 173.778 268.435 173.778 268.853Z" fill="white"/>
<path d="M170.119 268.853C170.119 269.27 170.46 269.612 170.877 269.612C171.294 269.612 171.635 269.27 171.635 268.853C171.635 268.435 171.294 268.093 170.877 268.093C170.46 268.093 170.119 268.435 170.119 268.853Z" fill="white"/>
<path d="M182.348 136.431H95.2646V139.85H182.348V136.431Z" fill="#F0E3D6"/>
<path d="M91.0201 146.929H95.2671V129.358H91.0201V146.929Z" fill="#E0E0E0"/>
<path d="M182.348 148.626H95.2646V166.196H182.348V148.626Z" fill="#EBEBEB"/>
<path d="M177.428 249.592C177.428 250.01 177.769 250.352 178.186 250.352C178.603 250.352 178.945 250.01 178.945 249.592C178.945 249.174 178.603 248.832 178.186 248.832C177.769 248.823 177.428 249.165 177.428 249.592Z" fill="#F0E3D6"/>
<path d="M173.778 249.592C173.778 250.01 174.119 250.352 174.536 250.352C174.953 250.352 175.295 250.01 175.295 249.592C175.295 249.174 174.953 248.832 174.536 248.832C174.11 248.823 173.778 249.165 173.778 249.592Z" fill="#F0E3D6"/>
<path d="M170.119 249.592C170.119 250.01 170.46 250.352 170.877 250.352C171.294 250.352 171.635 250.01 171.635 249.592C171.635 249.174 171.294 248.832 170.877 248.832C170.46 248.823 170.119 249.165 170.119 249.592Z" fill="#F0E3D6"/>
<path d="M182.348 155.701H95.2646V159.12H182.348V155.701Z" fill="#F0E3D6"/>
<path d="M91.0201 166.197H95.2671V148.627H91.0201V166.197Z" fill="#E0E0E0"/>
<path d="M182.348 167.896H95.2646V185.466H182.348V167.896Z" fill="#EBEBEB"/>
<path d="M177.428 230.322C177.428 230.74 177.769 231.082 178.186 231.082C178.603 231.082 178.945 230.74 178.945 230.322C178.945 229.904 178.603 229.562 178.186 229.562C177.769 229.553 177.428 229.894 177.428 230.322Z" fill="white"/>
<path d="M173.778 230.322C173.778 230.74 174.119 231.082 174.536 231.082C174.953 231.082 175.295 230.74 175.295 230.322C175.295 229.904 174.953 229.562 174.536 229.562C174.11 229.553 173.778 229.894 173.778 230.322Z" fill="white"/>
<path d="M170.119 230.322C170.119 230.74 170.46 231.082 170.877 231.082C171.294 231.082 171.635 230.74 171.635 230.322C171.635 229.904 171.294 229.562 170.877 229.562C170.46 229.553 170.119 229.894 170.119 230.322Z" fill="#F0E3D6"/>
<path d="M182.348 174.971H95.2646V178.39H182.348V174.971Z" fill="#F0E3D6"/>
<path d="M91.0201 185.466H95.2671V167.896H91.0201V185.466Z" fill="#E0E0E0"/>
<path d="M182.348 187.166H95.2646V204.736H182.348V187.166Z" fill="#EBEBEB"/>
<path d="M177.428 211.052C177.428 211.47 177.769 211.812 178.186 211.812C178.603 211.812 178.945 211.47 178.945 211.052C178.945 210.634 178.603 210.292 178.186 210.292C177.769 210.282 177.428 210.624 177.428 211.052Z" fill="white"/>
<path d="M173.778 211.052C173.778 211.47 174.119 211.812 174.536 211.812C174.953 211.812 175.295 211.47 175.295 211.052C175.295 210.634 174.953 210.292 174.536 210.292C174.11 210.282 173.778 210.624 173.778 211.052Z" fill="white"/>
<path d="M170.119 211.052C170.119 211.47 170.46 211.812 170.877 211.812C171.294 211.812 171.635 211.47 171.635 211.052C171.635 210.634 171.294 210.292 170.877 210.292C170.46 210.282 170.119 210.624 170.119 211.052Z" fill="white"/>
<path d="M182.348 194.241H95.2646V197.66H182.348V194.241Z" fill="#F0E3D6"/>
<path d="M91.0201 204.734H95.2671V187.164H91.0201V204.734Z" fill="#E0E0E0"/>
<path d="M182.348 206.436H95.2646V224.006H182.348V206.436Z" fill="#EBEBEB"/>
<path d="M177.428 191.782C177.428 192.199 177.769 192.541 178.186 192.541C178.603 192.541 178.945 192.199 178.945 191.782C178.945 191.364 178.603 191.022 178.186 191.022C177.769 191.022 177.428 191.354 177.428 191.782Z" fill="#F0E3D6"/>
<path d="M173.778 191.782C173.778 192.199 174.119 192.541 174.536 192.541C174.953 192.541 175.295 192.199 175.295 191.782C175.295 191.364 174.953 191.022 174.536 191.022C174.11 191.022 173.778 191.354 173.778 191.782Z" fill="white"/>
<path d="M170.119 191.782C170.119 192.199 170.46 192.541 170.877 192.541C171.294 192.541 171.635 192.199 171.635 191.782C171.635 191.364 171.294 191.022 170.877 191.022C170.46 191.022 170.119 191.354 170.119 191.782Z" fill="#F0E3D6"/>
<path d="M182.348 213.511H95.2646V216.931H182.348V213.511Z" fill="#F0E3D6"/>
<path d="M91.0201 224.003H95.2671V206.433H91.0201V224.003Z" fill="#E0E0E0"/>
<path d="M182.348 225.706H95.2646V243.276H182.348V225.706Z" fill="#EBEBEB"/>
<path d="M177.428 172.511C177.428 172.929 177.769 173.271 178.186 173.271C178.603 173.271 178.945 172.929 178.945 172.511C178.945 172.094 178.603 171.752 178.186 171.752C177.769 171.752 177.428 172.094 177.428 172.511Z" fill="white"/>
<path d="M173.778 172.511C173.778 172.929 174.119 173.271 174.536 173.271C174.953 173.271 175.295 172.929 175.295 172.511C175.295 172.094 174.953 171.752 174.536 171.752C174.11 171.752 173.778 172.094 173.778 172.511Z" fill="white"/>
<path d="M170.119 172.511C170.119 172.929 170.46 173.271 170.877 173.271C171.294 173.271 171.635 172.929 171.635 172.511C171.635 172.094 171.294 171.752 170.877 171.752C170.46 171.752 170.119 172.094 170.119 172.511Z" fill="#F0E3D6"/>
<path d="M182.348 232.782H95.2646V236.201H182.348V232.782Z" fill="#F0E3D6"/>
<path d="M91.0201 243.272H95.2671V225.702H91.0201V243.272Z" fill="#E0E0E0"/>
<path d="M182.348 244.976H95.2646V262.546H182.348V244.976Z" fill="#EBEBEB"/>
<path d="M177.428 153.241C177.428 153.659 177.769 154.001 178.186 154.001C178.603 154.001 178.945 153.659 178.945 153.241C178.945 152.823 178.603 152.482 178.186 152.482C177.769 152.482 177.428 152.823 177.428 153.241Z" fill="white"/>
<path d="M173.778 153.241C173.778 153.659 174.119 154.001 174.536 154.001C174.953 154.001 175.295 153.659 175.295 153.241C175.295 152.823 174.953 152.482 174.536 152.482C174.11 152.482 173.778 152.823 173.778 153.241Z" fill="#F0E3D6"/>
<path d="M170.119 153.241C170.119 153.659 170.46 154.001 170.877 154.001C171.294 154.001 171.635 153.659 171.635 153.241C171.635 152.823 171.294 152.482 170.877 152.482C170.46 152.482 170.119 152.823 170.119 153.241Z" fill="white"/>
<path d="M182.348 252.052H95.2646V255.471H182.348V252.052Z" fill="#F0E3D6"/>
<path d="M91.0201 262.541H95.2671V244.97H91.0201V262.541Z" fill="#E0E0E0"/>
<path d="M182.348 264.246H95.2646V281.817H182.348V264.246Z" fill="#EBEBEB"/>
<path d="M177.428 133.971C177.428 134.389 177.769 134.731 178.186 134.731C178.603 134.731 178.945 134.389 178.945 133.971C178.945 133.553 178.603 133.211 178.186 133.211C177.769 133.211 177.428 133.553 177.428 133.971Z" fill="#F0E3D6"/>
<path d="M173.778 133.971C173.778 134.389 174.119 134.731 174.536 134.731C174.953 134.731 175.295 134.389 175.295 133.971C175.295 133.553 174.953 133.211 174.536 133.211C174.11 133.211 173.778 133.553 173.778 133.971Z" fill="white"/>
<path d="M170.119 133.971C170.119 134.389 170.46 134.731 170.877 134.731C171.294 134.731 171.635 134.389 171.635 133.971C171.635 133.553 171.294 133.211 170.877 133.211C170.46 133.211 170.119 133.553 170.119 133.971Z" fill="#F0E3D6"/>
<path d="M182.348 271.322H95.2646V274.741H182.348V271.322Z" fill="#F0E3D6"/>
<path d="M91.0201 281.809H95.2671V264.239H91.0201V281.809Z" fill="#E0E0E0"/>
<path d="M182.348 283.517H95.2646V301.087H182.348V283.517Z" fill="#EBEBEB"/>
<path d="M177.428 114.701C177.428 115.119 177.769 115.461 178.186 115.461C178.603 115.461 178.945 115.119 178.945 114.701C178.945 114.283 178.603 113.941 178.186 113.941C177.769 113.941 177.428 114.283 177.428 114.701Z" fill="#F0E3D6"/>
<path d="M173.778 114.701C173.778 115.119 174.119 115.461 174.536 115.461C174.953 115.461 175.295 115.119 175.295 114.701C175.295 114.283 174.953 113.941 174.536 113.941C174.11 113.941 173.778 114.283 173.778 114.701Z" fill="#F0E3D6"/>
<path d="M170.119 114.701C170.119 115.119 170.46 115.461 170.877 115.461C171.294 115.461 171.635 115.119 171.635 114.701C171.635 114.283 171.294 113.941 170.877 113.941C170.46 113.941 170.119 114.283 170.119 114.701Z" fill="white"/>
<path d="M182.348 290.592H95.2646V294.011H182.348V290.592Z" fill="#F0E3D6"/>
<path d="M91.0201 301.078H95.2671V283.508H91.0201V301.078Z" fill="#E0E0E0"/>
<path d="M173.323 43.3473C173.266 35.6165 166.99 29.3672 159.255 29.3672C157.397 29.3672 155.614 29.7376 153.993 30.3929C151.235 24.7325 145.423 20.8291 138.712 20.8291C130.597 20.8291 123.809 26.537 122.122 34.1634C114.49 34.6572 108.442 41.011 108.442 48.7893C108.442 56.8811 114.993 63.4437 123.07 63.4437H169.626C175.352 63.4437 179.997 58.79 179.997 53.0536C179.997 48.6184 177.219 44.8384 173.323 43.3473Z" fill="#F0E3D6"/>
<path d="M400.312 29.4053C400.236 19.1766 391.932 10.9044 381.703 10.9044C379.238 10.9044 376.887 11.3888 374.735 12.2625C371.076 4.76912 363.397 -0.387939 354.514 -0.387939C343.773 -0.387939 334.796 7.16245 332.558 17.2486C322.453 17.904 314.461 26.3091 314.461 36.5948C314.461 47.3078 323.126 55.9884 333.819 55.9884H395.42C402.995 55.9884 409.147 49.8341 409.147 42.2362C409.147 36.3763 405.479 31.3807 400.312 29.4053Z" fill="#F0E3D6"/>
<path d="M237 359.02C338.514 359.02 420.808 354.207 420.808 348.269C420.808 342.332 338.514 337.518 237 337.518C135.486 337.518 53.1921 342.332 53.1921 348.269C53.1921 354.207 135.486 359.02 237 359.02Z" fill="#F0E3D6"/>
<path d="M82.021 334.242V332.798H73.5269C73.1287 332.798 72.8064 333.121 72.8064 333.52C72.8064 333.919 73.1287 334.242 73.5269 334.242H82.021Z" fill="#D0BAA1"/>
<path d="M82.021 340.415V338.972H73.5269C73.1287 338.972 72.8064 339.295 72.8064 339.693C72.8064 340.092 73.1287 340.415 73.5269 340.415H82.021Z" fill="#D0BAA1"/>
<path d="M78.9684 329.275C78.3048 329.275 77.7739 329.816 77.7739 330.471V343.027C77.7739 343.692 78.3143 344.224 78.9684 344.224C79.632 344.224 80.1629 343.682 80.1629 343.027V330.471C80.1629 329.816 79.632 329.275 78.9684 329.275Z" fill="#263238"/>
<path d="M82.3623 331.032H78.9685V342.476H82.3623C85.5192 342.476 88.0788 339.912 88.0788 336.749C88.0788 333.596 85.5192 331.032 82.3623 331.032Z" fill="#263238"/>
<path d="M109.134 344.584C106.641 344.584 104.29 344.3 101.815 344.005L97.6441 343.502C96.9805 343.53 96.3074 343.578 95.6343 343.644C94.6674 343.739 93.6909 343.901 92.7429 344.053C90.9512 344.338 89.1026 344.632 87.235 344.566C86.8843 344.556 86.4766 344.528 86.0974 344.338C85.6234 344.1 85.3201 343.654 85.3296 343.188C85.339 342.752 85.6234 342.334 86.0595 342.106C86.4008 341.925 86.78 341.878 87.1118 341.849C89.2353 341.669 91.3494 341.916 93.397 342.163L97.663 342.676C99.3884 342.6 101.057 342.638 102.678 342.676C104.745 342.723 106.887 342.771 109.124 342.59C111.02 342.438 112.376 341.792 112.442 341.517C112.035 341.023 110.982 340.871 108.83 340.596C107.238 340.396 105.209 340.339 103.057 340.282C101.36 340.235 99.6064 340.187 97.8147 340.073C94.2408 339.836 89.6335 339.266 85.7088 336.968C85.5097 336.854 85.4433 336.597 85.5571 336.398C85.6708 336.198 85.9268 336.132 86.1259 336.246C89.8894 338.459 94.383 339.01 97.8621 339.238C99.6349 339.351 101.379 339.399 103.067 339.446C105.238 339.503 107.285 339.56 108.925 339.769C110.186 339.931 111.077 340.045 111.722 340.225C111.684 340.178 111.646 340.13 111.608 340.083C111.295 339.684 110.982 339.266 110.698 338.829C110.347 338.278 109.949 337.632 109.788 336.892C109.598 336.046 109.778 335.201 110.262 334.641C110.859 333.938 111.836 333.767 112.509 333.691C114.509 333.482 116.5 333.777 118.424 334.061C118.652 334.099 118.803 334.308 118.775 334.536C118.737 334.764 118.538 334.926 118.301 334.888C116.424 334.612 114.49 334.327 112.594 334.527C112.063 334.584 111.305 334.717 110.888 335.192C110.575 335.553 110.471 336.132 110.594 336.73C110.726 337.338 111.077 337.908 111.39 338.392C111.656 338.801 111.968 339.209 112.262 339.589C112.452 339.836 112.651 340.092 112.831 340.349L112.926 340.482C113.352 341.061 113.931 341.849 113.807 342.695C113.542 344.518 110.973 344.566 109.731 344.594C109.56 344.584 109.342 344.584 109.134 344.584ZM105.266 343.559C106.745 343.701 108.205 343.777 109.703 343.749C110.764 343.73 112.859 343.692 113.021 342.562C113.04 342.438 113.021 342.315 112.992 342.182C112.281 342.922 110.423 343.331 109.2 343.426C107.854 343.53 106.546 343.559 105.266 343.559ZM88.6381 342.619C88.1546 342.619 87.6711 342.638 87.1876 342.676C86.9317 342.695 86.6568 342.733 86.4482 342.837C86.2776 342.922 86.1638 343.074 86.1638 343.207C86.1638 343.35 86.287 343.511 86.4672 343.597C86.6947 343.711 86.9886 343.73 87.2635 343.739C89.0457 343.806 90.8564 343.511 92.6102 343.236C93.0084 343.169 93.416 343.112 93.8142 343.046L93.3117 342.989C91.776 342.808 90.2023 342.619 88.6381 342.619Z" fill="#263238"/>
<path d="M208.664 115.366H123.543C119.837 119.079 117.77 121.15 114.063 124.863V336.388C117.77 340.102 119.837 342.172 123.543 345.886H208.664C212.371 342.172 214.437 340.102 218.144 336.388V124.863C214.447 121.159 212.371 119.079 208.664 115.366Z" fill="#454658"/>
<path d="M98.7437 133.781L96.8288 136.393L91.9561 129.432L95.6059 143.089L97.5303 140.477L102.394 147.448L98.7437 133.781Z" fill="#D0BAA1"/>
<path d="M171.645 88.004L168.763 89.4856L167.502 81.0804L164.696 94.9371L167.578 93.4555L168.839 101.87L171.645 88.004Z" fill="#D0BAA1"/>
<path d="M195.904 91.8029L191.525 90.7772L197.734 80.7385L182.329 92.8951L186.709 93.9114L180.499 103.95L195.904 91.8029Z" fill="#D0BAA1"/>
<path opacity="0.7" d="M114.063 336.398L123.543 345.895H161.321L151.841 336.398H114.063Z" fill="#263238"/>
<path opacity="0.7" d="M114.063 124.863L123.543 115.366H161.321L151.841 124.863H114.063Z" fill="#263238"/>
<path d="M246.442 115.366H161.321C157.614 119.079 155.548 121.15 151.841 124.863V336.388C155.548 340.102 157.614 342.172 161.321 345.886H246.442C250.149 342.172 252.215 340.102 255.922 336.388V124.863C252.215 121.159 250.139 119.079 246.442 115.366Z" fill="#263238"/>
<path opacity="0.6" d="M162.525 341.46L156.268 335.182V126.079L162.525 119.801H245.238L251.495 126.079V335.182L245.238 341.46H162.525Z" fill="#D0BAA1"/>
<path d="M251.495 131.056H160.696V149.376H251.495V131.056Z" fill="#263238"/>
<path d="M246.366 135.871C246.366 135.434 246.717 135.073 247.163 135.073C247.608 135.073 247.959 135.424 247.959 135.871C247.959 136.308 247.608 136.668 247.163 136.668C246.717 136.668 246.366 136.308 246.366 135.871Z" fill="#D0BAA1"/>
<path d="M242.555 135.871C242.555 135.434 242.906 135.073 243.352 135.073C243.797 135.073 244.148 135.424 244.148 135.871C244.148 136.308 243.797 136.668 243.352 136.668C242.906 136.668 242.555 136.308 242.555 135.871Z" fill="white"/>
<path d="M238.735 135.871C238.735 135.434 239.086 135.073 239.531 135.073C239.977 135.073 240.327 135.424 240.327 135.871C240.327 136.308 239.977 136.668 239.531 136.668C239.086 136.668 238.735 136.308 238.735 135.871Z" fill="#D0BAA1"/>
<path d="M251.495 138.435H160.696V141.996H251.495V138.435Z" fill="#D0BAA1"/>
<path d="M156.267 149.382H160.694V131.061H156.267V149.382Z" fill="black"/>
<path d="M251.495 151.152H160.696V169.472H251.495V151.152Z" fill="#263238"/>
<path d="M247.163 156.755C247.602 156.755 247.959 156.398 247.959 155.958C247.959 155.517 247.602 155.16 247.163 155.16C246.723 155.16 246.366 155.517 246.366 155.958C246.366 156.398 246.723 156.755 247.163 156.755Z" fill="#D0BAA1"/>
<path d="M243.342 156.755C243.782 156.755 244.139 156.398 244.139 155.958C244.139 155.517 243.782 155.16 243.342 155.16C242.902 155.16 242.546 155.517 242.546 155.958C242.546 156.398 242.902 156.755 243.342 156.755Z" fill="white"/>
<path d="M239.531 156.755C239.971 156.755 240.327 156.398 240.327 155.958C240.327 155.517 239.971 155.16 239.531 155.16C239.091 155.16 238.735 155.517 238.735 155.958C238.735 156.398 239.091 156.755 239.531 156.755Z" fill="white"/>
<path d="M251.495 158.531H160.696V162.093H251.495V158.531Z" fill="#D0BAA1"/>
<path d="M156.267 169.469H160.694V151.148H156.267V169.469Z" fill="black"/>
<path d="M251.495 171.239H160.696V189.559H251.495V171.239Z" fill="#263238"/>
<path d="M247.163 176.852C247.602 176.852 247.959 176.495 247.959 176.054C247.959 175.613 247.602 175.256 247.163 175.256C246.723 175.256 246.366 175.613 246.366 176.054C246.366 176.495 246.723 176.852 247.163 176.852Z" fill="#D0BAA1"/>
<path d="M243.342 176.852C243.782 176.852 244.139 176.495 244.139 176.054C244.139 175.613 243.782 175.256 243.342 175.256C242.902 175.256 242.546 175.613 242.546 176.054C242.546 176.495 242.902 176.852 243.342 176.852Z" fill="#D0BAA1"/>
<path d="M239.531 176.852C239.971 176.852 240.327 176.495 240.327 176.054C240.327 175.613 239.971 175.256 239.531 175.256C239.091 175.256 238.735 175.613 238.735 176.054C238.735 176.495 239.091 176.852 239.531 176.852Z" fill="#D0BAA1"/>
<path d="M251.495 178.618H160.696V182.18H251.495V178.618Z" fill="#D0BAA1"/>
<path d="M156.267 189.565H160.694V171.244H156.267V189.565Z" fill="black"/>
<path d="M251.495 191.335H160.696V209.656H251.495V191.335Z" fill="#263238"/>
<path d="M247.163 196.939C247.602 196.939 247.959 196.581 247.959 196.141C247.959 195.7 247.602 195.343 247.163 195.343C246.723 195.343 246.366 195.7 246.366 196.141C246.366 196.581 246.723 196.939 247.163 196.939Z" fill="white"/>
<path d="M243.342 196.939C243.782 196.939 244.139 196.581 244.139 196.141C244.139 195.7 243.782 195.343 243.342 195.343C242.902 195.343 242.546 195.7 242.546 196.141C242.546 196.581 242.902 196.939 243.342 196.939Z" fill="white"/>
<path d="M239.531 196.939C239.971 196.939 240.327 196.581 240.327 196.141C240.327 195.7 239.971 195.343 239.531 195.343C239.091 195.343 238.735 195.7 238.735 196.141C238.735 196.581 239.091 196.939 239.531 196.939Z" fill="#D0BAA1"/>
<path d="M251.495 198.715H160.696V202.276H251.495V198.715Z" fill="#D0BAA1"/>
<path d="M156.267 209.651H160.694V191.331H156.267V209.651Z" fill="black"/>
<path d="M251.495 211.422H160.696V229.743H251.495V211.422Z" fill="#263238"/>
<path d="M246.366 216.237C246.366 215.8 246.717 215.439 247.163 215.439C247.608 215.439 247.959 215.791 247.959 216.237C247.959 216.684 247.608 217.035 247.163 217.035C246.717 217.035 246.366 216.674 246.366 216.237Z" fill="white"/>
<path d="M242.555 216.237C242.555 215.8 242.906 215.439 243.352 215.439C243.797 215.439 244.148 215.791 244.148 216.237C244.148 216.684 243.797 217.035 243.352 217.035C242.906 217.035 242.555 216.674 242.555 216.237Z" fill="white"/>
<path d="M238.735 216.237C238.735 215.8 239.086 215.439 239.531 215.439C239.977 215.439 240.327 215.791 240.327 216.237C240.327 216.684 239.977 217.035 239.531 217.035C239.086 217.035 238.735 216.674 238.735 216.237Z" fill="white"/>
<path d="M251.495 218.802H160.696V222.363H251.495V218.802Z" fill="#D0BAA1"/>
<path d="M156.267 229.747H160.694V211.427H156.267V229.747Z" fill="black"/>
<path d="M251.495 231.519H160.696V249.839H251.495V231.519Z" fill="#263238"/>
<path d="M246.366 236.324C246.366 235.887 246.717 235.526 247.163 235.526C247.608 235.526 247.959 235.878 247.959 236.324C247.959 236.761 247.608 237.122 247.163 237.122C246.717 237.122 246.366 236.771 246.366 236.324Z" fill="#D0BAA1"/>
<path d="M242.555 236.324C242.555 235.887 242.906 235.526 243.352 235.526C243.797 235.526 244.148 235.878 244.148 236.324C244.148 236.761 243.797 237.122 243.352 237.122C242.906 237.122 242.555 236.771 242.555 236.324Z" fill="white"/>
<path d="M238.735 236.324C238.735 235.887 239.086 235.526 239.531 235.526C239.977 235.526 240.327 235.878 240.327 236.324C240.327 236.761 239.977 237.122 239.531 237.122C239.086 237.122 238.735 236.771 238.735 236.324Z" fill="#D0BAA1"/>
<path d="M251.495 238.898H160.696V242.46H251.495V238.898Z" fill="#D0BAA1"/>
<path d="M156.267 249.834H160.694V231.514H156.267V249.834Z" fill="black"/>
<path d="M251.495 251.605H160.696V269.926H251.495V251.605Z" fill="#263238"/>
<path d="M247.163 257.218C247.602 257.218 247.959 256.861 247.959 256.421C247.959 255.98 247.602 255.623 247.163 255.623C246.723 255.623 246.366 255.98 246.366 256.421C246.366 256.861 246.723 257.218 247.163 257.218Z" fill="white"/>
<path d="M243.342 257.218C243.782 257.218 244.139 256.861 244.139 256.421C244.139 255.98 243.782 255.623 243.342 255.623C242.902 255.623 242.546 255.98 242.546 256.421C242.546 256.861 242.902 257.218 243.342 257.218Z" fill="white"/>
<path d="M239.531 257.218C239.971 257.218 240.327 256.861 240.327 256.421C240.327 255.98 239.971 255.623 239.531 255.623C239.091 255.623 238.735 255.98 238.735 256.421C238.735 256.861 239.091 257.218 239.531 257.218Z" fill="#D0BAA1"/>
<path d="M251.495 258.985H160.696V262.546H251.495V258.985Z" fill="#D0BAA1"/>
<path d="M156.267 269.93H160.694V251.61H156.267V269.93Z" fill="black"/>
<path d="M251.495 271.702H160.696V290.022H251.495V271.702Z" fill="#263238"/>
<path d="M247.163 277.305C247.602 277.305 247.959 276.948 247.959 276.508C247.959 276.067 247.602 275.71 247.163 275.71C246.723 275.71 246.366 276.067 246.366 276.508C246.366 276.948 246.723 277.305 247.163 277.305Z" fill="white"/>
<path d="M243.342 277.305C243.782 277.305 244.139 276.948 244.139 276.508C244.139 276.067 243.782 275.71 243.342 275.71C242.902 275.71 242.546 276.067 242.546 276.508C242.546 276.948 242.902 277.305 243.342 277.305Z" fill="#D0BAA1"/>
<path d="M239.531 277.305C239.971 277.305 240.327 276.948 240.327 276.508C240.327 276.067 239.971 275.71 239.531 275.71C239.091 275.71 238.735 276.067 238.735 276.508C238.735 276.948 239.091 277.305 239.531 277.305Z" fill="white"/>
<path d="M251.495 279.081H160.696V282.643H251.495V279.081Z" fill="#D0BAA1"/>
<path d="M156.267 290.017H160.694V271.697H156.267V290.017Z" fill="black"/>
<path d="M251.495 291.789H160.696V310.109H251.495V291.789Z" fill="#263238"/>
<path d="M247.163 297.402C247.602 297.402 247.959 297.045 247.959 296.604C247.959 296.163 247.602 295.806 247.163 295.806C246.723 295.806 246.366 296.163 246.366 296.604C246.366 297.045 246.723 297.402 247.163 297.402Z" fill="#D0BAA1"/>
<path d="M243.342 297.402C243.782 297.402 244.139 297.045 244.139 296.604C244.139 296.163 243.782 295.806 243.342 295.806C242.902 295.806 242.546 296.163 242.546 296.604C242.546 297.045 242.902 297.402 243.342 297.402Z" fill="white"/>
<path d="M239.531 297.402C239.971 297.402 240.327 297.045 240.327 296.604C240.327 296.163 239.971 295.806 239.531 295.806C239.091 295.806 238.735 296.163 238.735 296.604C238.735 297.045 239.091 297.402 239.531 297.402Z" fill="#D0BAA1"/>
<path d="M251.495 299.168H160.696V302.73H251.495V299.168Z" fill="#D0BAA1"/>
<path d="M156.267 310.113H160.694V291.793H156.267V310.113Z" fill="black"/>
<path d="M251.495 311.885H160.696V330.206H251.495V311.885Z" fill="#263238"/>
<path d="M247.163 317.489C247.602 317.489 247.959 317.131 247.959 316.691C247.959 316.25 247.602 315.893 247.163 315.893C246.723 315.893 246.366 316.25 246.366 316.691C246.366 317.131 246.723 317.489 247.163 317.489Z" fill="#D0BAA1"/>
<path d="M243.342 317.489C243.782 317.489 244.139 317.131 244.139 316.691C244.139 316.25 243.782 315.893 243.342 315.893C242.902 315.893 242.546 316.25 242.546 316.691C242.546 317.131 242.902 317.489 243.342 317.489Z" fill="#D0BAA1"/>
<path d="M239.531 317.489C239.971 317.489 240.327 317.131 240.327 316.691C240.327 316.25 239.971 315.893 239.531 315.893C239.091 315.893 238.735 316.25 238.735 316.691C238.735 317.131 239.091 317.489 239.531 317.489Z" fill="white"/>
<path d="M251.495 319.265H160.696V322.826H251.495V319.265Z" fill="#D0BAA1"/>
<path d="M156.267 330.2H160.694V311.879H156.267V330.2Z" fill="black"/>
<path opacity="0.7" d="M162.525 341.46L156.268 335.182V126.079L162.525 119.801H211.518L217.775 126.079V335.182L211.518 341.46H162.525Z" fill="#D0BAA1"/>
<path d="M211.518 341.46L217.775 335.182V126.079L211.518 119.801H213.973L219.348 125.186V336.075L213.973 341.46H211.518Z" fill="#D0BAA1"/>
<path d="M339.555 123.629C341.621 127.674 343.451 131.692 345.129 135.89C345.973 137.979 346.759 140.116 347.48 142.3C348.219 144.485 348.873 146.726 349.366 149.252L349.461 149.727L349.509 149.984L349.556 150.335C349.584 150.573 349.622 150.819 349.632 151.038L349.66 151.665C349.679 152.491 349.632 153.194 349.556 153.887C349.395 155.245 349.148 156.461 348.864 157.639C348.314 159.994 347.556 162.169 346.778 164.315C345.176 168.598 343.318 172.635 341.147 176.624C340.465 177.887 338.882 178.352 337.621 177.668C336.568 177.089 336.066 175.892 336.331 174.781L336.35 174.724C337.346 170.526 338.351 166.272 339.194 162.131C339.63 160.06 339.981 157.99 340.228 156.033C340.341 155.055 340.417 154.096 340.417 153.27C340.408 152.861 340.398 152.472 340.36 152.206L340.332 152.007L340.294 151.893L340.237 151.693L340.142 151.361C339.63 149.623 338.91 147.685 338.123 145.757C337.327 143.829 336.493 141.892 335.62 139.945C333.876 136.07 332.037 132.129 330.236 128.301L330.207 128.244C328.984 125.632 330.103 122.517 332.71 121.292C335.241 120.076 338.275 121.14 339.555 123.629Z" fill="#FFB573"/>
<path d="M334.957 176.035L338.199 171.248L341.403 170.279C342.891 172.084 342.455 174.867 342.019 176.462L341.09 182.408C340.92 183.528 340.038 184.383 338.91 184.544L336.796 184.839C335.232 185.057 333.8 183.918 333.667 182.332L333.582 181.296C333.421 179.444 333.904 177.583 334.957 176.035Z" fill="#FFB573"/>
<path d="M329.676 188.866C330.473 187.926 330.833 186.767 330.795 185.627L346.74 178.21C346.778 178.248 346.816 178.286 346.864 178.314C348.883 180.014 351.898 179.758 353.604 177.735C353.964 177.308 354.239 176.823 354.429 176.329L350.959 176.795C350.04 176.918 349.205 176.253 349.12 175.323L349.016 174.126C348.94 173.205 349.651 172.397 350.57 172.359L354.069 172.236C353.803 171.771 353.452 171.353 353.016 170.992C350.997 169.292 347.982 169.548 346.276 171.571C345.48 172.511 345.119 173.67 345.157 174.81L329.212 182.227C329.174 182.189 329.136 182.151 329.089 182.123C327.069 180.423 324.055 180.679 322.348 182.702C321.988 183.129 321.713 183.614 321.524 184.108L324.993 183.642C325.913 183.519 326.747 184.193 326.832 185.114L326.937 186.311C327.013 187.232 326.302 188.04 325.382 188.078L321.884 188.201C322.149 188.666 322.5 189.084 322.936 189.445C324.965 191.145 327.98 190.889 329.676 188.866Z" fill="#263238"/>
<path opacity="0.1" d="M330.482 183.709C330.255 183.224 330.473 182.655 330.947 182.427L343.707 176.491C344.19 176.263 344.759 176.472 344.987 176.956C345.214 177.44 344.996 178.01 344.522 178.238L331.762 184.174C331.279 184.402 330.71 184.193 330.482 183.709Z" fill="white"/>
<path d="M328.321 113.723C334.037 114.986 336.824 117.911 342.342 127.114C339.213 131.758 331.563 135.776 331.563 135.776L328.254 131.958C324.102 124.236 328.321 113.723 328.321 113.723Z" fill="#263238"/>
<path opacity="0.2" d="M326.434 124.236C326.463 126.81 326.946 129.526 328.254 131.958L331.563 135.776C331.563 135.776 332.767 135.139 334.426 134.085C331.715 128.672 329.601 125.946 326.434 124.236Z" fill="black"/>
<path d="M301.985 122.555L301.881 123.154L301.786 123.609L301.587 124.455C301.436 125.006 301.265 125.528 301.085 126.05C300.715 127.085 300.279 128.083 299.786 129.061C298.781 130.998 297.501 132.822 295.966 134.417C294.439 136.022 292.657 137.4 290.752 138.482C288.846 139.565 286.808 140.334 284.77 140.847L284.438 140.933C281.983 141.55 279.489 140.059 278.864 137.59C278.807 137.371 278.769 137.124 278.75 136.896C278.551 134.807 278.741 132.917 279.091 131.169C279.442 129.422 279.926 127.788 280.485 126.231C281.613 123.125 283.054 120.295 284.59 117.588C286.154 114.891 287.841 112.317 289.633 109.838C291.463 107.369 293.302 104.995 295.387 102.677C296.345 101.614 297.985 101.528 299.047 102.487C299.976 103.323 300.156 104.681 299.549 105.716L299.511 105.783C298.08 108.243 296.62 110.807 295.312 113.381C293.975 115.945 292.705 118.528 291.595 121.131C290.458 123.723 289.5 126.345 288.808 128.899C288.135 131.416 287.784 134 288.107 135.757L282.087 131.815C283.367 131.321 284.523 130.694 285.585 129.982C286.628 129.241 287.557 128.396 288.363 127.446C289.159 126.487 289.87 125.423 290.448 124.274C290.742 123.704 291.008 123.106 291.216 122.508C291.33 122.213 291.415 121.909 291.51 121.625L291.633 121.207L291.681 121.026C291.69 120.998 291.709 120.874 291.7 120.988C292.136 118.139 294.8 116.183 297.644 116.619C300.478 117.037 302.431 119.706 301.985 122.555Z" fill="#FFB573"/>
<path d="M304.393 121.843C304.99 118.272 302.478 113.979 302.478 113.979C296.828 114.264 291.377 115.641 286.135 126.373C287.396 132.357 295.311 136.573 295.311 136.573L300.905 129.317C300.895 129.327 303.796 125.423 304.393 121.843Z" fill="#263238"/>
<path d="M296.942 100.047L298.516 98.337C299.198 97.5963 300.042 97.0359 300.99 96.7035L302.488 96.1717C304.175 95.5638 305.995 96.6085 306.327 98.375L306.697 100.341C306.981 101.813 306.09 103.266 304.649 103.684L302.346 104.358C302.346 104.358 299.596 108.965 294.25 106.875C294.25 104.368 295.207 101.918 296.942 100.047Z" fill="#FFB573"/>
<path d="M338.275 331.032H330.387C330.387 331.032 330.776 336.825 330.748 340.254L337.697 341.089C337.099 337.281 338.275 331.032 338.275 331.032Z" fill="#FFB573"/>
<path d="M303.521 168.475C303.521 168.475 317.675 228.565 322.093 252.982C326.728 278.635 329.885 330.072 329.876 331.953C332.416 331.459 336.55 331.336 338.55 331.953C338.55 331.953 348.295 271.464 339.469 249.003C336.123 206.417 340.455 182.322 331.923 168.475H303.521Z" fill="#D0BAA1"/>
<path opacity="0.2" d="M321.543 187.109C319.229 177.64 311.38 178.552 306.27 180.29C309.456 194.013 314.736 217.12 318.594 235.45C324.074 222.287 324.671 199.892 321.543 187.109Z" fill="black"/>
<path d="M288.04 330.034C287.329 339.218 279.887 349.096 279.887 349.096L291.368 346.151L296.203 338.952C296.392 336.122 296.402 333.805 297.274 330.832L288.04 330.034Z" fill="#FFB573"/>
<path d="M292.003 168.475C292.003 168.475 294.003 232.402 293.482 251.083C292.752 276.982 287.329 331.953 287.329 331.953C291.444 331.535 294.999 331.402 297.274 331.953C297.274 331.953 314.309 287.458 312.338 251.33C316.604 217.852 330.985 187.099 322.093 168.475H292.003Z" fill="#D0BAA1"/>
<path d="M322.386 96.3236C321.268 101.167 320.016 110.047 323.287 113.286C323.287 113.286 319.637 119.697 311.285 123.154C304.952 119.089 308.252 113.286 308.252 113.286C313.693 111.994 313.693 107.986 312.887 104.216L322.386 96.3236Z" fill="#FFB573"/>
<path d="M323.334 108.3C323.334 108.3 312.338 106.799 306.934 111.291C306.811 113.162 305.626 114.293 305.626 114.293C311.532 115.594 317.514 115.869 323.571 115.176C324.993 112.716 323.334 108.3 323.334 108.3Z" fill="#D0BAA1"/>
<path d="M293.141 124.664C293.728 139.869 290.382 162.957 292.003 168.475C308.271 170.127 320.983 169.843 331.923 168.475C333.838 162.463 329.297 144.608 334.492 123.362C335.649 118.642 332.483 114.122 327.714 113.628C326.311 113.485 324.813 113.362 323.277 113.286C317.713 113.02 313.153 112.839 308.242 113.286C306.327 113.457 304.336 113.713 302.469 113.989C297.189 114.758 292.941 119.345 293.141 124.664Z" fill="#263238"/>
<path d="M304.535 88.1748C304.469 88.8397 304.08 89.3525 303.654 89.324C303.227 89.2955 302.933 88.7447 302.99 88.0799C303.057 87.4151 303.445 86.9022 303.872 86.9307C304.298 86.9592 304.592 87.5195 304.535 88.1748Z" fill="#263238"/>
<path d="M304.061 86.9877L302.535 86.4368C302.535 86.4273 303.218 87.719 304.061 86.9877Z" fill="#263238"/>
<path d="M303.692 83.8441C303.597 83.8251 303.521 83.7681 303.464 83.6731C303.36 83.4927 303.417 83.2552 303.597 83.1318C305.427 81.9731 307.029 82.6854 307.095 82.7139C307.285 82.7994 307.361 83.0273 307.275 83.2267C307.18 83.4262 306.953 83.5117 306.763 83.4262C306.697 83.3977 305.446 82.8658 303.995 83.7871C303.891 83.8536 303.787 83.8631 303.692 83.8441Z" fill="#263238"/>
<path d="M304.403 89.9983C304.403 89.9983 303.028 92.7715 301.682 94.0726C302.469 94.9369 303.967 94.6615 303.967 94.6615L304.403 89.9983Z" fill="#ED893E"/>
<path d="M326.804 86.8167C325.553 94.899 325.192 98.337 320.756 102.25C314.082 108.138 304.573 105.156 303.417 96.9409C302.384 89.552 304.602 77.5853 312.745 74.8311C320.775 72.1338 328.055 78.7345 326.804 86.8167Z" fill="#FFB573"/>
<path d="M306.697 77.7278C305.076 80.9284 308.271 86.8642 310.423 89.2956C306.602 93.4079 302.791 100.502 307.835 104.748C312.432 108.623 337.147 108.585 332.34 100.246C336.578 95.0225 329.525 94.2817 332.89 84.1385C335.345 76.7591 330.719 74.7076 326.576 75.4199C321.855 69.4366 310.062 71.0701 306.697 77.7278Z" fill="#263238"/>
<path d="M308.508 81.0803C308.508 81.0803 316.139 87.3486 324.936 88.3743C329.648 88.9251 332.046 88.8586 332.264 88.1369C332.482 87.4151 332.89 84.9742 332.89 84.9742L308.508 81.0803Z" fill="#E0E0E0"/>
<path d="M302.023 79.4373C304.336 81.2702 321.817 86.2754 333.601 85.1737C333.715 84.4709 333.336 84.3854 333.336 84.3854C333.336 84.3854 336.047 75.2774 329.819 71.8584C326.88 67.0432 318.006 67.3376 314.082 68.6958L313.522 69.3986C313.522 69.3986 305.834 71.1936 305.72 77.5853C302.687 77.9272 299.473 77.4238 302.023 79.4373Z" fill="#D0BAA1"/>
<path opacity="0.2" d="M313.522 69.3985L314.082 68.6957C314.082 68.6957 320.244 67.9834 325.496 72.4567C322.51 70.7282 317.58 69.0566 313.522 69.3985Z" fill="black"/>
<path d="M309.256 86.7313C307.579 86.5033 305.986 88.9536 305.417 90.7011C304.782 92.6481 305.474 94.4621 307.209 93.8353C308.365 93.4174 309.645 92.3822 310.451 90.8531C311.371 89.0961 310.906 86.9497 309.256 86.7313Z" fill="#FFB573"/>
<path d="M333.137 334.935C337.971 334.08 337.886 336.578 338.199 339.275C338.379 340.823 338.227 342.561 337.403 344.024C335.696 347.025 337.156 351.47 331.724 351.47C326.292 351.47 325.799 350.207 327.269 347.519C328.738 344.831 329.477 341.992 330.132 338.886C330.463 337.338 330.985 335.315 333.137 334.935Z" fill="#263238"/>
<path d="M337.886 340.681C337.886 343.939 337.943 351.48 337.943 351.48L337.08 351.451C337.08 351.451 336.341 343.426 335.867 341.26L337.886 340.681Z" fill="#263238"/>
<path d="M296.819 336.008C297.198 336.863 297.312 337.803 297.255 338.743C297.056 342.191 296.316 351.318 296.316 351.318L295.529 351.327C295.529 351.327 295.757 345.183 295.454 342.913C295.15 340.652 294.032 344.651 292.467 346.921C290.894 349.191 287.898 351.252 282.779 351.413C276.788 351.603 274.37 351.346 276.171 349.846C277.973 348.345 281.983 347.358 281.983 347.358C281.983 347.358 286.561 345.658 289.519 340.567C291.434 337.262 294.25 335.761 295.785 334.983C296.269 335.059 296.591 335.486 296.819 336.008Z" fill="#263238"/>
<path d="M201.914 12.5464H222.735V19.553H208.635L207.881 24.2936C208.86 23.8276 209.822 23.4901 210.784 23.2652C211.747 23.0402 212.677 22.9277 213.624 22.9277C216.784 22.9277 219.35 23.8919 221.307 25.8042C223.28 27.7166 224.259 30.1271 224.259 33.0358C224.259 35.0767 223.745 37.0373 222.735 38.9335C221.724 40.8137 220.281 42.2601 218.436 43.2403C216.575 44.2367 214.201 44.7349 211.298 44.7349C209.212 44.7349 207.432 44.542 205.94 44.1403C204.448 43.7385 203.197 43.16 202.155 42.3725C201.112 41.5851 200.278 40.7013 199.62 39.7049C198.978 38.7086 198.433 37.4712 198 35.9927L206.871 35.0285C207.079 36.4587 207.592 37.5354 208.378 38.2747C209.164 39.0139 210.111 39.3835 211.202 39.3835C212.421 39.3835 213.431 38.9175 214.233 37.9854C215.035 37.0533 215.436 35.6713 215.436 33.8393C215.436 31.9591 215.035 30.5771 214.233 29.6932C213.431 28.8094 212.356 28.3755 211.025 28.3755C210.175 28.3755 209.357 28.5844 208.571 29.0022C207.977 29.3075 207.336 29.8539 206.63 30.6414L199.155 29.5646L201.914 12.5464Z" fill="#454658"/>
<path d="M227.772 28.2148C227.772 22.2045 228.846 17.9942 231.012 15.5997C233.177 13.2053 236.466 12 240.893 12C243.01 12 244.759 12.2571 246.122 12.7874C247.486 13.3177 248.593 13.9927 249.459 14.8444C250.325 15.6801 250.999 16.5639 251.496 17.496C251.993 18.428 252.394 19.5047 252.699 20.7421C253.293 23.1044 253.581 25.5632 253.581 28.1183C253.581 33.8554 252.619 38.0497 250.678 40.7173C248.737 43.3849 245.401 44.7027 240.669 44.7027C238.006 44.7027 235.872 44.2849 234.236 43.4332C232.6 42.5814 231.253 41.344 230.21 39.7049C229.456 38.5478 228.863 36.9408 228.429 34.9321C227.98 32.9072 227.772 30.6735 227.772 28.2148ZM236.466 28.2469C236.466 32.2805 236.819 35.0285 237.525 36.4909C238.23 37.9693 239.273 38.7085 240.62 38.7085C241.503 38.7085 242.289 38.4032 242.93 37.7765C243.588 37.1497 244.069 36.1695 244.374 34.8035C244.679 33.4536 244.839 31.3484 244.839 28.4879C244.839 24.2936 244.486 21.4653 243.78 20.019C243.075 18.5727 242 17.8495 240.588 17.8495C239.145 17.8495 238.086 18.5887 237.444 20.0672C236.787 21.5296 236.466 24.2615 236.466 28.2469Z" fill="#454658"/>
<path d="M258.087 44V37.8607L269.813 28.1606C270.591 27.5159 271.256 26.9122 271.809 26.3495C272.372 25.7765 272.801 25.1881 273.098 24.5844C273.405 23.9807 273.558 23.3105 273.558 22.5738C273.558 21.7654 273.384 21.0748 273.037 20.5018C272.699 19.9288 272.228 19.4888 271.625 19.1818C271.021 18.8646 270.325 18.706 269.537 18.706C268.749 18.706 268.054 18.8646 267.45 19.1818C266.856 19.499 266.396 19.9646 266.068 20.5785C265.741 21.1924 265.577 21.9394 265.577 22.8194H257.473C257.473 20.6092 257.97 18.706 258.962 17.1098C259.955 15.5136 261.357 14.2857 263.168 13.4262C264.979 12.5667 267.102 12.137 269.537 12.137C272.054 12.137 274.234 12.5411 276.076 13.3495C277.928 14.1476 279.355 15.2731 280.358 16.7261C281.371 18.1791 281.877 19.8827 281.877 21.8371C281.877 23.0445 281.627 24.2468 281.125 25.4439C280.624 26.6309 279.723 27.9457 278.424 29.3884C277.124 30.8312 275.277 32.5502 272.883 34.5455L269.936 37.0012V37.1854H282.215V44H258.087Z" fill="#454658"/>
<path d="M224.108 63.2272C223.057 63.2272 222.15 62.9952 221.388 62.5312C220.63 62.0625 220.045 61.409 219.634 60.571C219.226 59.7282 219.023 58.7481 219.023 57.6306C219.023 56.5132 219.226 55.5284 219.634 54.6761C220.045 53.8191 220.618 53.1515 221.352 52.6733C222.091 52.1903 222.953 51.9488 223.937 51.9488C224.506 51.9488 225.067 52.0435 225.621 52.2329C226.175 52.4223 226.679 52.7301 227.134 53.1562C227.588 53.5776 227.95 54.1363 228.22 54.8323C228.49 55.5284 228.625 56.3854 228.625 57.4034V58.1136H220.216V56.6647H226.92C226.92 56.0492 226.797 55.5 226.551 55.017C226.31 54.534 225.964 54.1529 225.514 53.8735C225.069 53.5942 224.544 53.4545 223.937 53.4545C223.27 53.4545 222.692 53.6202 222.205 53.9517C221.722 54.2784 221.35 54.7045 221.089 55.2301C220.829 55.7556 220.699 56.3191 220.699 56.9204V57.8863C220.699 58.7102 220.841 59.4086 221.125 59.9815C221.414 60.5497 221.814 60.9829 222.325 61.2812C222.837 61.5748 223.431 61.7215 224.108 61.7215C224.548 61.7215 224.946 61.66 225.301 61.5369C225.661 61.409 225.971 61.2197 226.232 60.9687C226.492 60.713 226.693 60.3958 226.835 60.017L228.455 60.4715C228.284 61.0208 227.998 61.5037 227.595 61.9204C227.193 62.3323 226.696 62.6543 226.104 62.8863C225.512 63.1136 224.847 63.2272 224.108 63.2272Z" fill="#D0BAA1"/>
<path d="M231.175 63V52.0909H232.794V53.7386H232.908C233.107 53.1988 233.466 52.7608 233.987 52.4247C234.508 52.0885 235.095 51.9204 235.749 51.9204C235.872 51.9204 236.026 51.9228 236.21 51.9275C236.395 51.9322 236.535 51.9394 236.629 51.9488V53.6534C236.572 53.6392 236.442 53.6179 236.239 53.5894C236.04 53.5563 235.829 53.5397 235.607 53.5397C235.076 53.5397 234.603 53.651 234.186 53.8735C233.774 54.0913 233.447 54.3944 233.206 54.7826C232.969 55.1661 232.851 55.6041 232.851 56.0965V63H231.175Z" fill="#D0BAA1"/>
<path d="M238.616 63V52.0909H240.235V53.7386H240.349C240.548 53.1988 240.908 52.7608 241.429 52.4247C241.949 52.0885 242.537 51.9204 243.19 51.9204C243.313 51.9204 243.467 51.9228 243.652 51.9275C243.836 51.9322 243.976 51.9394 244.071 51.9488V53.6534C244.014 53.6392 243.884 53.6179 243.68 53.5894C243.481 53.5563 243.27 53.5397 243.048 53.5397C242.518 53.5397 242.044 53.651 241.627 53.8735C241.216 54.0913 240.889 54.3944 240.647 54.7826C240.411 55.1661 240.292 55.6041 240.292 56.0965V63H238.616Z" fill="#D0BAA1"/>
<path d="M250.157 63.2272C249.172 63.2272 248.308 62.9929 247.565 62.5241C246.826 62.0554 246.249 61.3996 245.832 60.5568C245.42 59.714 245.214 58.7291 245.214 57.6022C245.214 56.4659 245.42 55.4739 245.832 54.6264C246.249 53.7788 246.826 53.1207 247.565 52.6519C248.308 52.1832 249.172 51.9488 250.157 51.9488C251.142 51.9488 252.004 52.1832 252.743 52.6519C253.486 53.1207 254.064 53.7788 254.475 54.6264C254.892 55.4739 255.1 56.4659 255.1 57.6022C255.1 58.7291 254.892 59.714 254.475 60.5568C254.064 61.3996 253.486 62.0554 252.743 62.5241C252.004 62.9929 251.142 63.2272 250.157 63.2272ZM250.157 61.7215C250.905 61.7215 251.521 61.5298 252.004 61.1463C252.487 60.7627 252.844 60.2585 253.076 59.6335C253.308 59.0085 253.424 58.3314 253.424 57.6022C253.424 56.8731 253.308 56.1936 253.076 55.5639C252.844 54.9341 252.487 54.4251 252.004 54.0369C251.521 53.6486 250.905 53.4545 250.157 53.4545C249.409 53.4545 248.794 53.6486 248.311 54.0369C247.828 54.4251 247.47 54.9341 247.238 55.5639C247.006 56.1936 246.89 56.8731 246.89 57.6022C246.89 58.3314 247.006 59.0085 247.238 59.6335C247.47 60.2585 247.828 60.7627 248.311 61.1463C248.794 61.5298 249.409 61.7215 250.157 61.7215Z" fill="#D0BAA1"/>
<path d="M257.659 63V52.0909H259.278V53.7386H259.392C259.591 53.1988 259.951 52.7608 260.472 52.4247C260.992 52.0885 261.58 51.9204 262.233 51.9204C262.356 51.9204 262.51 51.9228 262.695 51.9275C262.879 51.9322 263.019 51.9394 263.114 51.9488V53.6534C263.057 53.6392 262.927 53.6179 262.723 53.5894C262.524 53.5563 262.313 53.5397 262.091 53.5397C261.561 53.5397 261.087 53.651 260.67 53.8735C260.259 54.0913 259.932 54.3944 259.69 54.7826C259.454 55.1661 259.335 55.6041 259.335 56.0965V63H257.659Z" fill="#D0BAA1"/>
</g>
<defs>
<clipPath id="clip0_687_19215">
<rect width="474" height="359" fill="white"/>
</clipPath>
</defs>
</svg>
