<svg width="384" height="380" viewBox="0 0 384 380" fill="none" xmlns="http://www.w3.org/2000/svg">
<g clip-path="url(#clip0_686_17661)">
<path d="M311.971 182.95H311.541C279.772 180.345 257.877 153.076 256.994 151.976C256.181 150.862 255.83 149.475 256.014 148.107C256.199 146.739 256.906 145.495 257.985 144.637C259.065 143.78 260.434 143.374 261.806 143.506C263.177 143.638 264.445 144.296 265.342 145.344C265.592 145.667 284.303 168.777 310.206 172.076C318.613 163.711 325.709 141.628 324.922 134.936C324.922 134.936 324.922 134.816 324.922 134.757C324.755 132.606 324.349 125.197 326.46 120.835C326.711 120.128 327.108 119.482 327.624 118.939C328.141 118.395 328.766 117.967 329.459 117.683C330.152 117.398 330.897 117.262 331.646 117.285C332.395 117.308 333.13 117.489 333.804 117.816C334.478 118.143 335.076 118.608 335.559 119.182C336.042 119.756 336.398 120.425 336.605 121.146C336.813 121.868 336.866 122.625 336.762 123.368C336.657 124.111 336.398 124.824 336 125.46C335.476 126.559 335.225 130.526 335.476 133.825C336.668 144.818 327.128 172.565 315.202 181.838C314.276 182.553 313.14 182.944 311.971 182.95Z" fill="#263238"/>
<path d="M59.4125 153.996C48.439 153.86 37.6158 151.42 27.6412 146.834C17.6667 142.248 8.76223 135.618 1.5024 127.372C0.697708 126.461 0.228165 125.302 0.171762 124.087C0.11536 122.871 0.475489 121.674 1.19234 120.692C9.80253 109.089 25.0433 81.6881 27.4284 72.7497C26.2903 70.6049 24.5814 68.818 22.4912 67.5875C21.6533 67.1961 20.9319 66.5922 20.3985 65.8356C19.8651 65.0789 19.5382 64.1958 19.4502 63.2736L18.5916 54.5264C18.4937 53.8145 18.5401 53.0901 18.7282 52.3966C18.9163 51.703 19.2421 51.0547 19.6861 50.4903C20.1301 49.9259 20.6832 49.4571 21.3123 49.112C21.9414 48.7668 22.6335 48.5525 23.3473 48.4817C24.061 48.4109 24.7816 48.4851 25.466 48.7C26.1505 48.9148 26.7846 49.2659 27.3304 49.7321C27.8762 50.1983 28.3225 50.77 28.6426 51.4132C28.9628 52.0563 29.1501 52.7575 29.1933 53.4749L29.7896 59.5573C33.3108 62.2692 36.1019 65.8176 37.9108 69.8818C38.267 70.7343 38.3985 71.6643 38.2925 72.5824C37.1953 82.0705 21.8472 109.507 12.4023 123.381C34.4525 145.404 60.8078 143.396 61.9645 143.301C63.3704 143.171 64.7702 143.606 65.856 144.51C66.9418 145.414 67.6247 146.714 67.7543 148.122C67.884 149.531 67.4499 150.934 66.5475 152.022C65.6451 153.11 64.3483 153.794 62.9424 153.924C62.6323 153.888 61.404 153.996 59.4125 153.996Z" fill="#263238"/>
<path d="M231.199 365.828H216.888C216.067 365.828 215.257 365.638 214.521 365.273C213.785 364.908 213.143 364.377 212.646 363.722C212.148 363.067 211.808 362.306 211.653 361.498C211.497 360.69 211.53 359.857 211.748 359.064C215.481 345.633 217.318 334.699 218.689 317.587C213.633 293.747 208.874 271.927 208.827 271.7C208.581 270.338 208.873 268.934 209.64 267.783C210.407 266.633 211.589 265.825 212.939 265.531C214.288 265.236 215.699 265.478 216.874 266.206C218.049 266.933 218.896 268.089 219.238 269.429C219.238 269.645 224.151 291.967 229.267 316.129C229.376 316.631 229.408 317.147 229.362 317.658C228.17 333.026 226.608 343.649 223.793 355.157H231.163C232.532 355.221 233.823 355.812 234.769 356.805C235.714 357.799 236.242 359.119 236.242 360.492C236.242 361.865 235.714 363.185 234.769 364.179C233.823 365.172 232.532 365.763 231.163 365.828H231.199Z" fill="#263238"/>
<path d="M120.829 365.828H112.767C112.006 365.83 111.252 365.668 110.558 365.353C109.864 365.038 109.246 364.577 108.746 364.001C108.246 363.425 107.876 362.748 107.66 362.015C107.444 361.283 107.388 360.513 107.496 359.757C108.868 349.947 115.844 332.106 123.357 314.169C126.017 290.509 128.187 270.194 128.211 269.955C128.27 269.243 128.471 268.55 128.802 267.917C129.133 267.284 129.587 266.724 130.138 266.27C130.689 265.816 131.326 265.478 132.01 265.275C132.694 265.072 133.411 265.009 134.12 265.089C134.829 265.169 135.514 265.39 136.136 265.741C136.758 266.091 137.303 266.563 137.739 267.128C138.176 267.693 138.495 268.34 138.677 269.031C138.859 269.722 138.901 270.443 138.801 271.15C138.801 271.354 136.559 292.122 133.852 316.141C133.796 316.643 133.668 317.134 133.47 317.599C128.187 330.301 122.153 345.25 119.398 355.169H120.829C121.549 355.134 122.269 355.247 122.945 355.5C123.621 355.753 124.238 356.14 124.76 356.639C125.282 357.138 125.698 357.737 125.982 358.402C126.265 359.066 126.412 359.781 126.412 360.504C126.412 361.227 126.265 361.942 125.982 362.606C125.698 363.271 125.282 363.871 124.76 364.369C124.238 364.868 123.621 365.256 122.945 365.508C122.269 365.761 121.549 365.874 120.829 365.84V365.828Z" fill="#263238"/>
<path d="M125.468 1.19495L63.3837 63.405C60.2592 132.379 60.5097 204.806 63.3837 279.921H268.693C264.626 182.997 264.244 89.7063 268.693 1.19495H125.468Z" fill="white"/>
<path d="M268.693 281.021H63.3839C63.1073 281.021 62.8413 280.914 62.6413 280.723C62.4414 280.531 62.3229 280.27 62.3106 279.993C59.3411 202.009 59.3411 129.14 62.3106 63.3932C62.3367 63.1288 62.45 62.8807 62.6326 62.6881L124.717 0.478054C124.815 0.379346 124.932 0.301099 125.061 0.247789C125.19 0.194478 125.328 0.167148 125.468 0.16736H268.693C268.983 0.168995 269.262 0.28485 269.468 0.490002C269.655 0.709577 269.757 0.989761 269.754 1.27868C265.473 86.5397 265.473 177.68 269.754 279.909C269.759 280.054 269.736 280.199 269.684 280.334C269.633 280.469 269.556 280.593 269.456 280.698C269.357 280.8 269.238 280.882 269.107 280.937C268.976 280.993 268.835 281.021 268.693 281.021ZM64.3975 278.894H267.584C263.362 177.489 263.35 86.9818 267.584 2.2944H125.909L64.3975 63.907C61.4758 129.188 61.4758 201.508 64.3975 278.894Z" fill="#263238"/>
<path d="M123.846 212.047L126.088 211.856C126.195 212.653 126.485 213.414 126.935 214.079C127.426 214.706 128.077 215.19 128.819 215.477C129.699 215.844 130.645 216.027 131.598 216.015C132.411 216.026 133.219 215.888 133.983 215.608C134.58 215.397 135.1 215.01 135.474 214.497C135.787 214.042 135.943 213.496 135.915 212.943C135.895 212.401 135.698 211.881 135.354 211.462C134.898 210.97 134.323 210.604 133.685 210.398C132.615 210.051 131.529 209.76 130.429 209.526C129.216 209.257 128.037 208.857 126.911 208.331C126.11 207.956 125.42 207.38 124.908 206.658C124.455 205.994 124.198 205.215 124.168 204.411C124.112 203.479 124.357 202.552 124.865 201.769C125.374 200.986 126.121 200.388 126.995 200.062C128.029 199.632 129.142 199.42 130.262 199.44C131.485 199.418 132.701 199.637 133.84 200.086C134.8 200.477 135.628 201.137 136.225 201.986C136.818 202.823 137.173 203.806 137.25 204.83L134.973 204.997C134.866 203.991 134.375 203.066 133.601 202.416C132.673 201.773 131.555 201.465 130.429 201.543C129.332 201.447 128.235 201.725 127.316 202.332C127.023 202.556 126.788 202.848 126.633 203.184C126.477 203.519 126.405 203.887 126.422 204.256C126.429 204.561 126.502 204.861 126.636 205.136C126.77 205.41 126.961 205.652 127.197 205.845C128.318 206.511 129.557 206.949 130.846 207.136C132.224 207.424 133.576 207.823 134.889 208.331C135.828 208.73 136.649 209.363 137.274 210.171C137.812 210.922 138.115 211.816 138.145 212.74C138.19 213.693 137.949 214.638 137.453 215.453C136.911 216.329 136.117 217.02 135.175 217.437C134.096 217.921 132.923 218.161 131.741 218.142C130.331 218.181 128.929 217.937 127.615 217.425C126.533 216.98 125.599 216.239 124.919 215.286C124.279 214.322 123.908 213.204 123.846 212.047Z" fill="#263238"/>
<path d="M150.154 213.636L152.455 213.923C152.224 215.148 151.564 216.249 150.595 217.03C149.534 217.812 148.237 218.204 146.922 218.141C146.071 218.178 145.222 218.04 144.426 217.736C143.63 217.432 142.905 216.968 142.295 216.373C141.051 215.029 140.368 213.259 140.387 211.426C140.175 209.593 140.694 207.751 141.83 206.299C142.372 205.697 143.04 205.223 143.786 204.909C144.532 204.595 145.338 204.449 146.147 204.483C146.956 204.462 147.76 204.61 148.509 204.916C149.258 205.223 149.936 205.681 150.499 206.263C151.739 207.638 152.416 209.43 152.396 211.282C152.396 211.414 152.396 211.617 152.396 211.88H142.664C142.728 213.105 143.213 214.27 144.036 215.178C144.392 215.558 144.823 215.86 145.301 216.066C145.779 216.272 146.294 216.376 146.815 216.373C147.55 216.402 148.274 216.179 148.866 215.74C149.505 215.191 149.955 214.456 150.154 213.636ZM142.724 210.052H150.011C149.932 209.153 149.601 208.296 149.057 207.578C148.714 207.169 148.284 206.842 147.8 206.621C147.315 206.4 146.787 206.29 146.254 206.299C145.786 206.287 145.321 206.371 144.888 206.548C144.455 206.725 144.063 206.99 143.738 207.327C143.061 208.069 142.697 209.046 142.724 210.052Z" fill="#263238"/>
<path d="M155.389 217.843L154.769 204.782H156.748L156.844 206.754C157.143 206.053 157.596 205.428 158.167 204.925C158.575 204.635 159.063 204.48 159.563 204.483C160.381 204.504 161.178 204.752 161.864 205.2L161.208 207.255C160.712 206.95 160.145 206.781 159.563 206.765C159.099 206.761 158.649 206.918 158.287 207.208C157.901 207.505 157.631 207.927 157.523 208.403C157.302 209.244 157.218 210.115 157.273 210.984L157.595 217.819L155.389 217.843Z" fill="#263238"/>
<path d="M167.41 217.843L161.829 204.782H164.214L167.386 212.597C167.732 213.445 168.054 214.33 168.352 215.238C168.519 214.545 168.746 213.72 169.056 212.752L171.572 204.782H173.85L169.533 217.843H167.41Z" fill="#263238"/>
<path d="M175.639 202.356L175.507 199.811H177.69L177.809 202.356H175.639ZM176.378 217.891L175.746 204.83H177.964L178.584 217.891H176.378Z" fill="#263238"/>
<path d="M190.223 213.063L192.418 213.338C192.33 214.681 191.738 215.94 190.76 216.863C189.776 217.734 188.495 218.192 187.182 218.142C186.369 218.17 185.559 218.028 184.804 217.726C184.048 217.423 183.364 216.967 182.794 216.385C181.568 215.004 180.9 213.214 180.922 211.366C180.834 210.108 181.013 208.846 181.446 207.662C181.822 206.656 182.534 205.811 183.462 205.272C184.401 204.744 185.462 204.472 186.538 204.483C187.818 204.423 189.08 204.802 190.116 205.559C191.08 206.326 191.743 207.409 191.988 208.618L189.866 208.952C189.682 208.183 189.266 207.49 188.673 206.969C188.132 206.525 187.452 206.288 186.753 206.299C186.248 206.278 185.744 206.375 185.282 206.582C184.821 206.79 184.414 207.102 184.094 207.494C183.357 208.61 183.052 209.957 183.235 211.282C183.196 212.658 183.615 214.008 184.428 215.118C184.762 215.503 185.177 215.809 185.643 216.016C186.108 216.222 186.614 216.324 187.123 216.313C187.91 216.341 188.677 216.058 189.257 215.525C189.863 214.846 190.206 213.973 190.223 213.063Z" fill="#263238"/>
<path d="M203.246 213.637L205.547 213.923C205.316 215.148 204.657 216.25 203.687 217.03C202.626 217.812 201.329 218.205 200.014 218.142C199.163 218.178 198.314 218.04 197.518 217.736C196.723 217.432 195.997 216.968 195.387 216.373C194.148 215.026 193.466 213.258 193.479 211.426C193.373 210.517 193.447 209.597 193.697 208.717C193.947 207.838 194.367 207.016 194.934 206.299C195.473 205.697 196.138 205.221 196.883 204.907C197.627 204.593 198.432 204.448 199.239 204.483C200.048 204.462 200.852 204.61 201.601 204.916C202.351 205.223 203.028 205.681 203.592 206.264C204.832 207.638 205.509 209.43 205.488 211.282C205.488 211.414 205.488 211.617 205.488 211.88H195.757C195.821 213.105 196.305 214.27 197.128 215.178C197.486 215.558 197.919 215.861 198.399 216.066C198.879 216.272 199.397 216.376 199.919 216.373C200.651 216.402 201.371 216.179 201.958 215.74C202.597 215.191 203.047 214.456 203.246 213.637ZM195.816 210.052H203.103C203.032 209.152 202.7 208.292 202.149 207.578C201.806 207.169 201.377 206.842 200.892 206.621C200.407 206.4 199.879 206.29 199.346 206.299C198.88 206.286 198.417 206.371 197.986 206.548C197.554 206.725 197.165 206.99 196.842 207.327C196.156 208.065 195.788 209.044 195.816 210.052Z" fill="#263238"/>
<path d="M112.72 243.045L112.624 241.121C112.212 241.818 111.62 242.39 110.911 242.779C110.202 243.168 109.401 243.359 108.593 243.331C107.843 243.339 107.1 243.188 106.411 242.889C105.81 242.66 105.279 242.277 104.873 241.778C104.508 241.293 104.251 240.734 104.121 240.141C103.976 239.461 103.896 238.769 103.883 238.074L103.489 229.972H105.707L106.053 237.225C106.062 238.008 106.146 238.788 106.304 239.555C106.449 240.109 106.782 240.595 107.246 240.93C107.743 241.273 108.336 241.449 108.939 241.431C109.591 241.437 110.232 241.259 110.788 240.918C111.337 240.612 111.759 240.121 111.98 239.531C112.213 238.7 112.293 237.834 112.219 236.974L111.885 229.972H114.091L114.711 243.045H112.72Z" fill="#263238"/>
<path d="M118.157 243.045L117.525 229.972H119.517L119.612 231.836C120.026 231.142 120.622 230.575 121.335 230.196C122.047 229.817 122.85 229.64 123.655 229.685C124.403 229.673 125.146 229.816 125.837 230.103C126.438 230.332 126.969 230.716 127.376 231.214C127.738 231.703 127.998 232.26 128.139 232.852C128.278 233.56 128.353 234.28 128.366 235.003L128.747 243.045H126.541L126.159 235.098C126.159 234.405 126.038 233.718 125.802 233.067C125.605 232.616 125.265 232.242 124.836 232.003C124.367 231.724 123.83 231.584 123.285 231.597C122.405 231.578 121.551 231.899 120.9 232.493C120.523 232.969 120.251 233.52 120.1 234.109C119.95 234.698 119.926 235.312 120.03 235.911L120.376 243.081L118.157 243.045Z" fill="#263238"/>
<path d="M140.578 241.384C139.904 242.007 139.124 242.504 138.276 242.853C137.516 243.148 136.706 243.294 135.891 243.284C134.679 243.359 133.482 242.985 132.528 242.232C132.128 241.914 131.801 241.513 131.569 241.058C131.337 240.602 131.204 240.102 131.181 239.591C131.14 238.989 131.259 238.387 131.526 237.847C131.778 237.337 132.15 236.898 132.612 236.568C133.084 236.24 133.608 235.994 134.162 235.839C134.807 235.695 135.46 235.587 136.118 235.516C137.44 235.396 138.747 235.14 140.017 234.752C140.017 234.441 140.017 234.25 140.017 234.166C140.032 233.817 139.976 233.469 139.853 233.143C139.73 232.816 139.542 232.518 139.302 232.266C138.568 231.717 137.663 231.45 136.75 231.513C135.951 231.448 135.153 231.64 134.472 232.063C133.916 232.566 133.56 233.253 133.47 233.999L131.288 233.7C131.395 232.892 131.694 232.122 132.158 231.453C132.646 230.841 133.3 230.384 134.043 230.139C134.987 229.821 135.98 229.667 136.976 229.685C137.903 229.655 138.827 229.789 139.707 230.079C140.309 230.269 140.854 230.606 141.293 231.059C141.657 231.502 141.917 232.02 142.057 232.577C142.175 233.252 142.243 233.935 142.259 234.62L142.402 237.572C142.429 238.876 142.536 240.177 142.724 241.467C142.853 242.024 143.07 242.557 143.368 243.045H141.055C140.796 242.525 140.635 241.962 140.578 241.384ZM140.149 236.436C138.994 236.86 137.793 237.141 136.571 237.273C135.919 237.341 135.278 237.489 134.663 237.715C134.318 237.863 134.027 238.113 133.828 238.432C133.64 238.749 133.549 239.115 133.566 239.484C133.577 239.769 133.648 240.049 133.776 240.304C133.903 240.56 134.084 240.785 134.305 240.965C134.878 241.391 135.584 241.599 136.297 241.551C137.079 241.569 137.853 241.379 138.539 241.001C139.158 240.652 139.648 240.111 139.934 239.46C140.164 238.747 140.249 237.995 140.184 237.249L140.149 236.436Z" fill="#263238"/>
<path d="M149.749 243.045L144.167 229.972H146.553L149.665 237.799C150.011 238.647 150.333 239.519 150.631 240.428C150.798 239.747 151.025 238.922 151.335 237.954L153.851 229.972H156.117L151.812 243.045H149.749Z" fill="#263238"/>
<path d="M167.136 241.384C166.462 242.007 165.682 242.504 164.834 242.853C164.074 243.148 163.264 243.294 162.449 243.284C161.241 243.359 160.048 242.984 159.098 242.232C158.703 241.903 158.384 241.492 158.162 241.028C157.939 240.564 157.819 240.058 157.81 239.543C157.77 238.941 157.889 238.339 158.156 237.799C158.407 237.29 158.78 236.85 159.241 236.52C159.717 236.19 160.245 235.943 160.803 235.791C161.444 235.646 162.093 235.538 162.747 235.469C164.07 235.349 165.377 235.092 166.647 234.704C166.647 234.393 166.647 234.202 166.647 234.118C166.664 233.769 166.609 233.42 166.486 233.094C166.363 232.767 166.174 232.469 165.931 232.218C165.198 231.67 164.292 231.403 163.379 231.465C162.581 231.4 161.782 231.592 161.101 232.015C160.545 232.518 160.189 233.206 160.1 233.951L157.917 233.652C158.025 232.845 158.323 232.074 158.788 231.406C159.275 230.793 159.93 230.336 160.672 230.091C161.617 229.773 162.609 229.619 163.606 229.637C164.532 229.608 165.456 229.741 166.337 230.031C166.938 230.221 167.483 230.558 167.923 231.011C168.286 231.454 168.547 231.973 168.686 232.529C168.81 233.203 168.878 233.887 168.889 234.572L169.032 237.524C169.06 238.828 169.171 240.129 169.366 241.419C169.484 241.978 169.698 242.511 169.998 242.997H167.684C167.411 242.494 167.225 241.949 167.136 241.384ZM166.706 236.436C165.552 236.86 164.351 237.141 163.129 237.273C162.477 237.341 161.836 237.489 161.221 237.715C160.876 237.863 160.585 238.113 160.386 238.432C160.198 238.749 160.106 239.115 160.123 239.484C160.134 239.769 160.206 240.049 160.334 240.304C160.461 240.56 160.641 240.785 160.863 240.965C161.436 241.391 162.142 241.599 162.854 241.551C163.637 241.569 164.411 241.379 165.096 241.001C165.716 240.652 166.206 240.111 166.492 239.46C166.734 238.75 166.82 237.995 166.742 237.249L166.706 236.436Z" fill="#263238"/>
<path d="M171.953 227.558L171.834 225.001H174.04L174.171 227.558H171.953ZM172.693 243.092L172.072 230.019H174.279L174.911 243.092H172.693Z" fill="#263238"/>
<path d="M178.227 243.045L177.356 225.001H179.574L180.433 243.045H178.227Z" fill="#263238"/>
<path d="M192.287 241.384C191.617 242.006 190.841 242.504 189.997 242.853C189.236 243.147 188.427 243.293 187.612 243.284C186.404 243.358 185.211 242.983 184.261 242.232C183.868 241.902 183.551 241.491 183.331 241.027C183.111 240.563 182.993 240.057 182.985 239.543C182.944 238.941 183.064 238.34 183.331 237.799C183.578 237.287 183.952 236.847 184.416 236.52C184.887 236.19 185.411 235.943 185.966 235.791C186.612 235.647 187.264 235.54 187.922 235.469C189.244 235.347 190.551 235.091 191.822 234.704C191.822 234.393 191.822 234.202 191.822 234.118C191.836 233.77 191.78 233.422 191.657 233.095C191.534 232.769 191.347 232.47 191.106 232.218C190.372 231.672 189.467 231.405 188.554 231.465C187.755 231.398 186.957 231.591 186.276 232.015C185.72 232.519 185.36 233.206 185.263 233.951L183.092 233.652C183.202 232.847 183.495 232.078 183.951 231.406C184.445 230.796 185.103 230.34 185.847 230.091C186.792 229.773 187.784 229.619 188.781 229.637C189.707 229.609 190.631 229.742 191.511 230.031C192.113 230.221 192.658 230.558 193.098 231.011C193.461 231.454 193.722 231.973 193.861 232.529C193.979 233.204 194.047 233.887 194.064 234.572L194.207 237.524C194.233 238.828 194.34 240.129 194.529 241.42C194.653 241.976 194.866 242.509 195.161 242.997H192.859C192.577 242.496 192.384 241.95 192.287 241.384ZM191.869 236.436C190.715 236.859 189.513 237.139 188.292 237.273C187.64 237.341 186.999 237.489 186.383 237.715C186.037 237.86 185.744 238.111 185.549 238.432C185.361 238.749 185.269 239.115 185.286 239.484C185.295 239.77 185.366 240.05 185.493 240.306C185.621 240.562 185.803 240.787 186.026 240.965C186.599 241.391 187.305 241.599 188.017 241.551C188.8 241.569 189.573 241.38 190.259 241.001C190.878 240.655 191.365 240.113 191.643 239.46C191.885 238.75 191.971 237.995 191.893 237.249L191.869 236.436Z" fill="#263238"/>
<path d="M199.883 243.045H197.832L196.973 225.001H199.155L199.466 231.441C199.857 230.885 200.38 230.433 200.987 230.127C201.595 229.82 202.268 229.668 202.948 229.685C203.74 229.679 204.525 229.842 205.249 230.163C205.961 230.47 206.59 230.941 207.086 231.537C207.6 232.17 208.003 232.885 208.278 233.652C208.585 234.509 208.758 235.408 208.791 236.317C209.011 238.163 208.506 240.023 207.384 241.503C206.916 242.082 206.323 242.548 205.65 242.864C204.976 243.181 204.24 243.341 203.496 243.331C202.765 243.347 202.042 243.179 201.392 242.843C200.742 242.507 200.187 242.013 199.776 241.408L199.883 243.045ZM199.537 236.413C199.521 237.592 199.795 238.758 200.336 239.806C200.63 240.321 201.053 240.75 201.564 241.049C202.074 241.349 202.654 241.51 203.246 241.515C203.723 241.514 204.194 241.399 204.618 241.181C205.043 240.963 205.411 240.648 205.691 240.26C206.422 239.151 206.735 237.816 206.573 236.496C206.604 235.14 206.184 233.812 205.381 232.72C205.075 232.347 204.692 232.046 204.256 231.839C203.821 231.633 203.346 231.525 202.864 231.525C202.386 231.526 201.914 231.641 201.489 231.862C201.063 232.082 200.697 232.401 200.42 232.792C199.706 233.856 199.393 235.139 199.537 236.413Z" fill="#263238"/>
<path d="M211.785 243.045L210.914 225.001H213.132L213.991 243.045H211.785Z" fill="#263238"/>
<path d="M226.143 238.838L228.445 239.113C228.213 240.341 227.554 241.446 226.584 242.232C225.521 243.008 224.225 243.396 222.911 243.331C222.062 243.368 221.213 243.231 220.418 242.929C219.623 242.627 218.897 242.166 218.284 241.575C217.043 240.225 216.361 238.452 216.376 236.616C216.268 235.71 216.34 234.792 216.588 233.914C216.836 233.036 217.254 232.216 217.819 231.501C218.359 230.897 219.027 230.42 219.774 230.106C220.52 229.792 221.327 229.648 222.136 229.685C222.946 229.661 223.751 229.807 224.5 230.114C225.25 230.421 225.927 230.881 226.489 231.465C227.733 232.837 228.411 234.631 228.385 236.484C228.385 236.616 228.385 236.819 228.385 237.082H218.654C218.715 238.304 219.2 239.466 220.025 240.368C220.382 240.747 220.813 241.049 221.291 241.255C221.769 241.46 222.284 241.565 222.804 241.563C223.539 241.585 224.26 241.362 224.855 240.93C225.488 240.381 225.938 239.651 226.143 238.838ZM218.714 235.253H226C225.921 234.355 225.591 233.498 225.046 232.78C224.703 232.371 224.274 232.044 223.789 231.823C223.304 231.602 222.776 231.492 222.244 231.501C221.777 231.489 221.313 231.573 220.88 231.748C220.447 231.922 220.055 232.184 219.727 232.517C219.049 233.264 218.686 234.244 218.714 235.253Z" fill="#263238"/>
<path d="M231.879 250.358H209.483C209.378 250.358 209.274 250.337 209.177 250.297C209.08 250.257 208.992 250.198 208.918 250.123C208.844 250.049 208.785 249.961 208.745 249.864C208.705 249.767 208.684 249.662 208.684 249.557C208.684 249.452 208.705 249.348 208.745 249.251C208.785 249.154 208.844 249.065 208.918 248.991C208.992 248.917 209.08 248.858 209.177 248.818C209.274 248.777 209.378 248.757 209.483 248.757H231.879C232.091 248.757 232.294 248.841 232.444 248.991C232.594 249.141 232.678 249.345 232.678 249.557C232.678 249.77 232.594 249.973 232.444 250.123C232.294 250.274 232.091 250.358 231.879 250.358Z" fill="#A28F7B"/>
<path d="M200.205 250.358H100.174C100.069 250.358 99.9652 250.337 99.8682 250.297C99.7713 250.257 99.6832 250.198 99.609 250.123C99.5348 250.049 99.476 249.961 99.4358 249.864C99.3957 249.767 99.375 249.662 99.375 249.557C99.375 249.452 99.3957 249.348 99.4358 249.251C99.476 249.154 99.5348 249.065 99.609 248.991C99.6832 248.917 99.7713 248.858 99.8682 248.818C99.9652 248.777 100.069 248.757 100.174 248.757H200.181C200.393 248.757 200.596 248.841 200.746 248.991C200.896 249.141 200.98 249.345 200.98 249.557C200.98 249.77 200.896 249.973 200.746 250.123C200.596 250.274 200.393 250.358 200.181 250.358H200.205Z" fill="#A28F7B"/>
<path d="M137.477 130.526C137.239 125.328 134.293 121.206 130.882 121.337C127.472 121.468 124.92 125.77 125.134 130.969C125.349 136.167 128.318 140.289 131.729 140.17C135.14 140.05 137.716 135.736 137.477 130.526Z" fill="#A28F7B"/>
<path d="M209.471 128.901C209.233 123.703 206.287 119.581 202.876 119.712C199.466 119.843 196.914 124.145 197.128 129.344C197.343 134.542 200.324 138.664 203.723 138.545C207.122 138.425 209.71 134.111 209.471 128.901Z" fill="#A28F7B"/>
<path d="M155.449 151.857C174.327 145.093 188.912 153.052 189.592 153.41C189.767 153.507 189.922 153.638 190.046 153.796C190.171 153.953 190.263 154.134 190.318 154.327C190.372 154.521 190.387 154.723 190.363 154.923C190.339 155.122 190.275 155.315 190.176 155.489C189.974 155.841 189.641 156.099 189.25 156.206C188.859 156.313 188.442 156.262 188.089 156.063C187.91 155.967 170.916 146.79 150.631 157.258C150.269 157.441 149.851 157.476 149.463 157.356C149.076 157.235 148.751 156.969 148.556 156.613C148.463 156.434 148.406 156.238 148.389 156.038C148.372 155.837 148.394 155.634 148.455 155.442C148.516 155.25 148.614 155.072 148.744 154.918C148.874 154.764 149.033 154.637 149.212 154.545C151.23 153.512 153.313 152.614 155.449 151.857Z" fill="#A28F7B"/>
<path d="M127.174 81.7238C127.703 81.733 128.221 81.8814 128.676 82.154C129.372 82.5653 129.878 83.2356 130.084 84.0189C130.289 84.8022 130.178 85.6352 129.773 86.3364C127.395 90.5664 124.034 94.1596 119.976 96.8118C115.918 99.4639 111.281 101.097 106.459 101.572C105.648 101.605 104.856 101.316 104.256 100.768C103.655 100.22 103.294 99.4572 103.251 98.6446C103.232 98.2439 103.292 97.8435 103.428 97.4663C103.564 97.0892 103.774 96.7428 104.044 96.4472C104.315 96.1516 104.641 95.9127 105.005 95.7443C105.368 95.5759 105.761 95.4813 106.161 95.4659C106.626 95.4659 117.633 94.7729 124.478 83.1817C124.756 82.7189 125.153 82.3394 125.627 82.0829C126.101 81.8264 126.635 81.7024 127.174 81.7238Z" fill="#A28F7B"/>
<path d="M199.215 79.9673C199.712 79.8696 200.226 79.8959 200.71 80.0438C201.195 80.1918 201.636 80.4569 201.994 80.8158C211.534 90.3755 222.434 88.4636 222.887 88.368C223.676 88.2317 224.486 88.4036 225.152 88.8482C225.817 89.2928 226.287 89.9764 226.465 90.7579C226.545 91.1503 226.546 91.5547 226.47 91.9478C226.393 92.3408 226.239 92.7147 226.017 93.048C225.796 93.3812 225.51 93.6672 225.178 93.8894C224.845 94.1116 224.472 94.2657 224.08 94.3428C223.484 94.4504 209.602 97.1151 197.593 85.0938C197.201 84.7048 196.923 84.2159 196.788 83.6799C196.652 83.1438 196.666 82.581 196.827 82.0521C196.988 81.5232 197.289 81.0484 197.7 80.6789C198.11 80.3094 198.614 80.0592 199.156 79.9554L199.215 79.9673Z" fill="#A28F7B"/>
<path opacity="0.2" d="M265.604 113.414L256.886 114.227C255.378 114.368 253.87 113.953 252.645 113.06C251.42 112.167 250.562 110.857 250.232 109.375L238.152 55.1478C237.816 53.5787 238.096 51.9404 238.933 50.5723C239.77 49.2042 241.1 48.2111 242.647 47.7988L266.009 41.6566L265.604 113.414Z" fill="black"/>
<path opacity="0.2" d="M131.18 68.9975C125.11 52.3874 119.04 25.8233 125.444 1.23083L63.3599 63.4409C80.9261 69.3082 108.903 71.8893 131.18 68.9975Z" fill="black"/>
<path d="M125.468 63.4409C118.658 43.2937 121.437 15.905 125.468 1.23083L63.3838 63.4409C82.1783 66.9183 103.179 66.3327 125.468 63.4409Z" fill="white"/>
<path d="M91.8265 66.9182C82.2336 66.9896 72.6541 66.1897 63.2053 64.5283C63.0127 64.4955 62.8329 64.4101 62.6856 64.2815C62.5383 64.1529 62.4293 63.9861 62.3706 63.7993C62.3157 63.6119 62.3122 63.4131 62.3605 63.2239C62.4087 63.0346 62.507 62.8619 62.6449 62.7239L124.717 0.477959C124.882 0.311731 125.097 0.20485 125.329 0.173947C125.561 0.143045 125.797 0.189853 126 0.30709C126.202 0.424328 126.361 0.605417 126.45 0.822181C126.54 1.03894 126.555 1.27922 126.494 1.50563C122.749 15.1761 119.637 42.8635 126.494 63.1063C126.545 63.2556 126.562 63.4143 126.544 63.5711C126.526 63.7278 126.473 63.8785 126.39 64.0123C126.306 64.1462 126.194 64.2598 126.062 64.3449C125.929 64.43 125.779 64.4844 125.623 64.5044C114.421 66.0317 103.132 66.838 91.8265 66.9182ZM65.5904 62.7836C82.0953 65.5201 101.26 65.4603 124.025 62.5805C118.408 44.7396 119.684 21.1151 123.453 4.75594L65.5904 62.7836Z" fill="#263238"/>
<path d="M338.803 154.342C338.411 154.342 338.03 154.212 337.719 153.972C337.408 153.732 337.186 153.396 337.086 153.016L315.214 69.5114C315.094 69.0534 315.16 68.5664 315.399 68.1574C315.637 67.7484 316.027 67.451 316.484 67.3306C316.941 67.2101 317.427 67.2766 317.836 67.5152C318.244 67.7539 318.541 68.1453 318.661 68.6032L340.532 152.108C340.591 152.334 340.605 152.571 340.573 152.803C340.541 153.035 340.463 153.258 340.345 153.461C340.226 153.663 340.069 153.839 339.882 153.98C339.695 154.121 339.483 154.224 339.256 154.282C339.109 154.327 338.956 154.347 338.803 154.342Z" fill="#263238"/>
<path d="M379.793 34.2083L378.636 34.5071L380.279 40.8938L381.436 40.5951L379.793 34.2083Z" fill="#A28F7B"/>
<path d="M375.783 25.2617L371.192 7.71953C370.887 6.54211 370.353 5.43676 369.62 4.46711C368.887 3.49745 367.969 2.68264 366.921 2.06956C365.872 1.45649 364.713 1.05727 363.51 0.894872C362.307 0.732474 361.084 0.810107 359.911 1.1233L347.902 4.27803L347.604 3.08306L359.612 3.58406e-05C360.937 -0.35088 362.317 -0.436213 363.674 -0.251061C365.031 -0.0659101 366.339 0.386077 367.521 1.07894C368.703 1.77181 369.737 2.6919 370.564 3.78638C371.39 4.88086 371.993 6.12816 372.337 7.45664L376.94 24.9988L375.783 25.2617Z" fill="#A28F7B"/>
<path d="M360.685 4.04374L246.983 33.9334C243.645 34.8109 241.648 38.234 242.524 41.579L256.914 96.5399C257.789 99.8849 261.206 101.885 264.544 101.008L378.246 71.118C381.584 70.2404 383.58 66.8174 382.704 63.4724L368.315 8.51149C367.439 5.16648 364.023 3.16619 360.685 4.04374Z" fill="#A28F7B"/>
<path d="M355.01 68.0678L283.273 86.9258C279.935 87.8034 277.939 91.2264 278.815 94.5715L283.312 111.747C284.187 115.092 287.604 117.093 290.942 116.215L362.679 97.3571C366.017 96.4796 368.013 93.0565 367.137 89.7115L362.64 72.5355C361.765 69.1905 358.349 67.1902 355.01 68.0678Z" fill="#A28F7B"/>
<path d="M289.968 93.2075L299.782 90.6503L300.438 93.1836L294.297 94.7849L294.786 96.6729L300.486 95.1912L301.118 97.5811L295.418 99.0628L296.026 101.453L302.346 99.8037L303.038 102.492L293.056 105.097L289.968 93.2075Z" fill="white"/>
<path d="M305.066 101.931L301.977 90.0647L308.083 88.4754C308.948 88.2102 309.849 88.0812 310.754 88.093C311.392 88.1226 312.001 88.3668 312.483 88.7861C312.958 89.2387 313.306 89.8073 313.494 90.4359C313.683 91.0646 313.704 91.7315 313.557 92.371C313.399 92.9257 313.103 93.4313 312.698 93.8408C312.344 94.1673 311.942 94.4374 311.505 94.6415C311.87 94.654 312.232 94.7184 312.579 94.8327C312.843 94.958 313.091 95.1144 313.318 95.2987C313.576 95.4783 313.815 95.6824 314.034 95.9081L316.693 98.8836L312.555 99.9591L309.657 96.8522C309.41 96.5454 309.107 96.2897 308.763 96.0993C308.444 96.0037 308.104 96.0037 307.785 96.0993L307.463 96.183L308.715 100.963L305.066 101.931ZM306.902 93.9125L308.453 93.5182C308.772 93.4013 309.083 93.2616 309.383 93.1C309.605 92.9912 309.779 92.8039 309.872 92.5742C309.994 92.2969 310.007 91.9835 309.907 91.6973C309.807 91.4111 309.603 91.1735 309.335 91.0326C308.867 90.8777 308.361 90.8777 307.892 91.0326L306.282 91.4509L306.902 93.9125Z" fill="white"/>
<path d="M317.933 98.5849L314.833 86.7069L320.938 85.1176C321.803 84.8516 322.705 84.7226 323.61 84.7352C324.245 84.7699 324.85 85.0183 325.327 85.4402C325.86 85.904 326.228 86.5289 326.376 87.2207C326.543 87.8106 326.543 88.4353 326.376 89.0252C326.221 89.5782 325.93 90.0835 325.53 90.495C325.176 90.8227 324.774 91.0928 324.337 91.2956C324.698 91.308 325.056 91.3724 325.398 91.4868C325.668 91.6142 325.92 91.7747 326.15 91.9648C326.4 92.1442 326.636 92.344 326.853 92.5623L329.525 95.5377L325.387 96.6252L322.489 93.5063C322.245 93.1953 321.935 92.9422 321.582 92.7654C321.268 92.664 320.93 92.664 320.616 92.7654L320.294 92.849L321.547 97.6289L317.933 98.5849ZM319.782 90.5547L321.332 90.1604C321.649 90.0458 321.956 89.9059 322.25 89.7421C322.364 89.692 322.467 89.6197 322.553 89.5295C322.639 89.4392 322.706 89.3328 322.751 89.2164C322.841 88.9734 322.841 88.7065 322.751 88.4635C322.715 88.2981 322.644 88.1422 322.543 88.0062C322.443 87.8703 322.314 87.7573 322.167 87.6748C321.694 87.523 321.185 87.523 320.712 87.6748L319.114 88.0931L319.782 90.5547Z" fill="white"/>
<path d="M328.487 89.503C328.191 88.6983 328.077 87.8379 328.152 86.9836C328.227 86.1292 328.49 85.3022 328.922 84.5618C329.354 83.8215 329.945 83.1862 330.651 82.7017C331.357 82.2172 332.162 81.8955 333.007 81.7596C333.821 81.4891 334.68 81.3857 335.535 81.4555C336.389 81.5253 337.221 81.7669 337.98 82.1659C338.688 82.6173 339.297 83.2081 339.771 83.9023C340.244 84.5966 340.572 85.3799 340.735 86.2049C341.079 87.3682 341.144 88.5965 340.926 89.7898C340.698 90.784 340.179 91.6873 339.435 92.3829C338.56 93.1811 337.491 93.7334 336.334 93.9842C335.207 94.3291 334.015 94.4069 332.852 94.2112C331.836 94.0052 330.908 93.4922 330.193 92.7414C329.346 91.8336 328.757 90.7155 328.487 89.503ZM332.148 88.559C332.304 89.4866 332.776 90.3312 333.484 90.9489C333.776 91.1468 334.108 91.2773 334.457 91.331C334.805 91.3847 335.161 91.3603 335.499 91.2596C335.843 91.1926 336.167 91.0508 336.449 90.8443C336.731 90.6378 336.965 90.3716 337.133 90.0647C337.434 89.1078 337.408 88.078 337.062 87.137C336.913 86.2459 336.447 85.4391 335.75 84.8665C335.455 84.6689 335.121 84.5396 334.77 84.4879C334.419 84.4362 334.061 84.4635 333.723 84.5678C333.388 84.6375 333.073 84.7808 332.801 84.9875C332.529 85.1942 332.306 85.459 332.148 85.7628C331.825 86.6667 331.825 87.655 332.148 88.559Z" fill="white"/>
<path d="M344.325 91.702L341.236 79.8359L347.342 78.2466C348.208 77.9838 349.108 77.851 350.013 77.8523C350.65 77.8941 351.257 78.1414 351.742 78.5573C352.218 79.0083 352.567 79.5773 352.754 80.2068C352.94 80.8363 352.957 81.504 352.804 82.1422C352.645 82.6941 352.355 83.1988 351.957 83.6121C351.603 83.9386 351.2 84.2086 350.764 84.4127C351.129 84.4253 351.491 84.4896 351.838 84.6039C352.102 84.7292 352.35 84.8857 352.577 85.0699C352.834 85.2457 353.07 85.4501 353.281 85.6793L355.952 88.6548L351.814 89.7303L348.916 86.6114C348.669 86.3038 348.36 86.0515 348.009 85.8705C347.695 85.7691 347.358 85.7691 347.044 85.8705L346.722 85.9542L347.974 90.7341L344.325 91.702ZM346.161 83.6837L347.711 83.2775C348.034 83.172 348.345 83.0359 348.642 82.8712C348.867 82.7614 349.042 82.5689 349.13 82.3334C349.234 82.1004 349.255 81.8391 349.19 81.5926C349.153 81.4261 349.08 81.2695 348.977 81.1335C348.874 80.9974 348.744 80.885 348.594 80.8039C348.126 80.6427 347.618 80.6427 347.151 80.8039L345.541 81.2221L346.161 83.6837Z" fill="white"/>
<path d="M262.051 45.7433L286.737 39.2546L288.907 47.6194L272.211 52.0169L272.796 57.8723C273.759 57.06 274.802 56.3474 275.908 55.7452C276.933 55.184 278.022 54.7506 279.152 54.4546C280.803 53.9478 282.538 53.7755 284.255 53.9478C285.973 54.1202 287.64 54.6337 289.157 55.4584C290.593 56.2638 291.845 57.3596 292.834 58.6763C293.824 59.993 294.529 61.5016 294.905 63.1062C295.526 65.5529 295.526 68.1162 294.905 70.5628C294.327 73.0487 293.014 75.3019 291.137 77.0276C288.835 78.9927 286.088 80.363 283.135 81.0188C281.011 81.6175 278.818 81.9389 276.612 81.9748C274.888 82.0003 273.175 81.6919 271.567 81.0666C270.161 80.5013 268.865 79.6923 267.739 78.6766C266.53 77.5379 265.497 76.225 264.674 74.7811L274.895 70.8616C275.41 72.2764 276.395 73.4704 277.685 74.2433C278.808 74.869 280.131 75.0278 281.37 74.6855C282.058 74.5211 282.7 74.2023 283.248 73.7531C283.795 73.3039 284.234 72.7361 284.53 72.0924C285.204 70.4002 285.25 68.5223 284.661 66.7987C284.351 64.9987 283.381 63.3795 281.942 62.2578C281.322 61.8683 280.625 61.6167 279.898 61.5198C279.172 61.4229 278.434 61.483 277.733 61.6961C276.717 61.9668 275.783 62.4839 275.014 63.2018C274.269 63.9398 273.663 64.806 273.225 65.759L264.03 66.8106L262.051 45.7433Z" fill="white"/>
<path d="M297.576 56.2829C295.7 49.1131 295.672 43.7875 297.493 40.3062C299.313 36.8248 302.843 34.3752 308.083 32.9571C310.174 32.3384 312.36 32.1036 314.534 32.264C316.143 32.4062 317.706 32.878 319.126 33.6502C320.325 34.316 321.415 35.1623 322.357 36.1596C323.294 37.2149 324.095 38.383 324.743 39.637C326.197 42.3122 327.315 45.1581 328.07 48.1093C329.859 54.9206 330.018 60.2024 328.547 63.9546C327.076 67.7068 323.53 70.3238 317.909 71.8055C315.312 72.6134 312.56 72.7855 309.883 72.3074C307.648 71.8066 305.589 70.7129 303.921 69.1408C302.43 67.6658 301.218 65.9332 300.343 64.0263C299.162 61.5456 298.235 58.9512 297.576 56.2829ZM307.892 53.5942C309.144 58.3741 310.42 61.5169 311.72 63.0464C312.192 63.7329 312.861 64.2593 313.638 64.556C314.416 64.8526 315.265 64.9054 316.073 64.7074C316.572 64.5737 317.04 64.3423 317.449 64.0264C317.858 63.7106 318.201 63.3166 318.458 62.8672C319.099 61.6491 319.376 60.2718 319.257 58.8999C319.044 56.3129 318.568 53.7545 317.838 51.264C316.538 46.281 315.238 43.0546 313.95 41.5609C313.45 40.877 312.756 40.3605 311.958 40.079C311.159 39.7976 310.295 39.7643 309.478 39.9835C308.659 40.1846 307.925 40.6393 307.379 41.2829C306.833 41.9265 306.503 42.7263 306.437 43.5684C306.198 45.5401 306.652 48.8741 307.892 53.5942Z" fill="white"/>
<path d="M340.496 36.7095L330.205 37.534C330.107 34.4659 331.11 31.4643 333.031 29.0736C334.915 26.7952 337.984 25.0984 342.238 23.9831C347.127 22.6925 350.899 22.6925 353.555 23.9831C354.798 24.5267 355.9 25.3475 356.779 26.3829C357.657 27.4184 358.288 28.6411 358.623 29.9579C359.047 31.5327 358.985 33.1993 358.444 34.7378C357.782 36.4646 356.719 38.0088 355.344 39.2428C356.572 39.1856 357.803 39.3145 358.993 39.6252C360.399 40.0444 361.67 40.8275 362.678 41.8956C363.769 43.075 364.541 44.5149 364.92 46.078C365.49 48.2869 365.469 50.6073 364.86 52.8057C364.247 55.1266 362.951 57.2087 361.139 58.7805C358.797 60.6601 356.055 61.9765 353.126 62.6284C350.423 63.4452 347.592 63.7531 344.778 63.5365C342.697 63.2902 340.711 62.5216 339.006 61.3019C337.199 59.9337 335.686 58.2145 334.558 56.2472L344.587 52.1365C345.192 53.6994 346.251 55.0441 347.628 55.9963C348.73 56.5748 350.013 56.6991 351.206 56.3428C351.861 56.1931 352.476 55.9016 353.008 55.4888C353.539 55.076 353.974 54.5518 354.282 53.9529C354.961 52.5648 355.076 50.9672 354.604 49.4956C354.307 48.0057 353.454 46.6853 352.219 45.8032C351.621 45.4441 350.953 45.2168 350.26 45.1364C349.567 45.0561 348.865 45.1245 348.2 45.3372C347.068 45.6868 345.989 46.1893 344.992 46.8309L343.585 39.2428C344.051 39.2015 344.514 39.1256 344.968 39.0158C345.599 38.8707 346.195 38.6017 346.721 38.2242C347.247 37.8468 347.693 37.3685 348.033 36.817C348.366 36.3141 348.588 35.7461 348.684 35.1507C348.781 34.5553 348.75 33.9461 348.594 33.3636C348.486 32.8547 348.276 32.3732 347.976 31.948C347.677 31.5229 347.295 31.1629 346.853 30.89C346.386 30.6359 345.872 30.4805 345.343 30.4332C344.814 30.3859 344.28 30.4479 343.776 30.6151C342.676 30.8306 341.704 31.4699 341.069 32.3956C340.425 33.7359 340.224 35.2471 340.496 36.7095Z" fill="white"/>
</g>
<defs>
<clipPath id="clip0_686_17661">
<rect width="384" height="380" fill="white"/>
</clipPath>
</defs>
</svg>
