<svg width="443" height="342" viewBox="0 0 443 342" fill="none" xmlns="http://www.w3.org/2000/svg">
<g clip-path="url(#clip0_686_1215)">
<path d="M296.262 323.098H210.053L165.56 245.374V313.264C165.56 323.88 173.318 332.373 182.722 332.373H296.262C298.093 332.373 299.736 331.095 299.736 329.267V326.227C299.736 324.394 298.093 323.098 296.262 323.098Z" fill="#3E4245"/>
<path d="M178.203 269.793V308.288C178.189 310.132 178.542 311.959 179.241 313.665C179.94 315.372 180.971 316.922 182.275 318.228C183.579 319.534 185.13 320.568 186.837 321.271C188.544 321.974 190.374 322.332 192.221 322.325H266.451V269.793H178.203Z" fill="white"/>
<path d="M267.221 323.098H192.221C183.926 323.098 177.429 316.593 177.429 308.288V269.029H267.221V323.098ZM178.976 270.564V308.279C178.976 315.717 184.791 321.549 192.219 321.549H265.674V270.564H178.976Z" fill="#454658"/>
<path d="M411.78 273.343L49.8453 274.133C48.3147 274.13 46.8374 273.572 45.6894 272.561C44.5414 271.551 43.8013 270.158 43.6074 268.643L14.7763 43.7844C14.0764 38.3133 18.0702 33.1472 23.5873 33.1472L380.84 33.4708L411.78 273.343Z" fill="#3E4245"/>
<path d="M419.196 273.057H64.5C62.9677 273.054 61.4892 272.493 60.3414 271.48C59.1935 270.467 58.4551 269.071 58.2645 267.553L29.6059 44.718C29.4144 43.2634 29.5356 41.7848 29.9614 40.3806C30.3872 38.9764 31.108 37.6789 32.0756 36.5744C33.0432 35.4699 34.2356 34.5839 35.5731 33.9753C36.9107 33.3667 38.3629 33.0495 39.833 33.0448H389.964C391.496 33.0481 392.974 33.6086 394.122 34.6212C395.27 35.6338 396.008 37.0292 396.2 38.5461L425.434 265.935C425.551 266.823 425.477 267.725 425.218 268.581C424.958 269.438 424.519 270.23 423.928 270.903C423.338 271.577 422.611 272.118 421.795 272.489C420.979 272.861 420.093 273.054 419.196 273.057Z" fill="white"/>
<path d="M419.196 273.83H64.5C62.7817 273.821 61.125 273.19 59.8377 272.054C58.5505 270.918 57.7204 269.354 57.5016 267.654L28.8384 44.8157C28.636 43.2437 28.7713 41.6466 29.2355 40.1308C29.6997 38.615 30.482 37.2153 31.5305 36.0248C32.5679 34.8467 33.845 33.9026 35.2765 33.2555C36.7081 32.6084 38.2614 32.2731 39.833 32.2719H389.964C391.683 32.2805 393.34 32.9118 394.627 34.0484C395.914 35.1849 396.744 36.7493 396.962 38.4507L426.202 265.84C426.332 266.835 426.249 267.847 425.957 268.808C425.666 269.768 425.172 270.656 424.51 271.412C423.848 272.168 423.033 272.774 422.118 273.191C421.203 273.608 420.209 273.826 419.203 273.83H419.196ZM39.833 33.8177C38.4814 33.8186 37.1455 34.1068 35.9142 34.6632C34.6829 35.2196 33.5846 36.0314 32.6922 37.0445C31.7889 38.0705 31.1148 39.2768 30.715 40.583C30.3152 41.8893 30.1987 43.2655 30.3734 44.6202L59.0226 267.456C59.1915 268.788 59.8406 270.013 60.8486 270.902C61.8566 271.792 63.1546 272.285 64.5 272.289H419.196C419.978 272.288 420.75 272.122 421.462 271.801C422.174 271.48 422.809 271.011 423.325 270.426C423.848 269.833 424.237 269.135 424.469 268.38C424.7 267.624 424.767 266.828 424.667 266.045L395.432 38.6462C395.262 37.3167 394.613 36.0941 393.608 35.2059C392.602 34.3177 391.307 33.8244 389.964 33.8177H39.833Z" fill="#454658"/>
<path d="M57.5016 11.7239H368.15C375.006 11.7239 381.244 17.2881 382.084 24.156L408.29 238.599C409.137 245.539 404.236 251.17 397.34 251.17H84.9401C78.0443 251.17 71.811 245.543 71.0179 238.599L46.5024 24.156C45.7163 17.2881 50.6385 11.7239 57.5016 11.7239Z" fill="#D0BAA1"/>
<path d="M383.066 31.7503L382.48 24.0443C381.65 17.2392 375.193 11.8193 368.334 11.8193H57.6813C50.8251 11.8193 45.8306 17.2392 46.6074 24.0443L47.3353 33.5313L383.066 31.7503Z" fill="#3E4245"/>
<path d="M66.1633 24.3657C66.4176 26.5774 64.8266 28.37 62.6128 28.37C61.5115 28.3441 60.4557 27.9263 59.6357 27.1921C58.8158 26.4579 58.2856 25.4555 58.1408 24.3657C57.8888 22.154 59.4775 20.3613 61.6936 20.3613C62.7947 20.3874 63.8502 20.8052 64.6697 21.5394C65.4893 22.2737 66.019 23.276 66.1633 24.3657Z" fill="white"/>
<path d="M78.9634 24.0979C79.2177 26.3096 77.6291 28.1022 75.4129 28.1022C74.3116 28.0762 73.2558 27.6585 72.4359 26.9243C71.6159 26.1901 71.0857 25.1877 70.9409 24.0979C70.689 21.8862 72.2776 20.0935 74.4938 20.0935C75.5948 20.1196 76.6503 20.5374 77.4699 21.2716C78.2894 22.0059 78.8191 23.0082 78.9634 24.0979Z" fill="white"/>
<path d="M92.937 24.6334C93.1912 26.8451 91.6026 28.6377 89.3864 28.6377C88.2851 28.6118 87.2293 28.194 86.4094 27.4598C85.5894 26.7256 85.0593 25.7232 84.9144 24.6334C84.6578 22.4217 86.2488 20.629 88.4626 20.629C89.5642 20.6549 90.6203 21.0726 91.4406 21.8068C92.261 22.5409 92.7916 23.5433 92.937 24.6334Z" fill="white"/>
<path d="M166.038 151.865H180.128L181.91 167.07H167.813L170.766 192.358H151.833L148.892 167.07H99.9027L98.0365 155.529L138.021 78.9552H157.525L166.038 151.865ZM117.462 151.865H147.121L141.616 104.527L140.505 107.016L117.462 151.865Z" fill="white"/>
<path d="M265.665 144.538C267.61 160.858 266.026 173.168 260.911 181.467C255.796 189.766 247.003 193.917 234.534 193.92C222.274 193.92 212.565 189.873 205.406 181.779C198.248 173.685 193.658 161.716 191.638 145.872L189.335 126.244C187.423 109.947 189.033 97.7346 194.167 89.6064C199.3 81.4782 208.109 77.4125 220.593 77.4094C232.974 77.4094 242.679 81.3719 249.709 89.2968C256.738 97.2217 261.275 109.095 263.32 124.917L265.665 144.538ZM244.238 123.352C242.975 112.718 240.599 104.925 237.109 99.9735C233.619 95.0224 228.713 92.5507 222.391 92.5585C216.223 92.5585 211.965 94.9036 209.617 99.594C207.269 104.284 206.603 111.61 207.62 121.571L210.653 147.271C211.897 157.871 214.307 165.771 217.884 170.974C221.461 176.177 226.416 178.778 232.749 178.778C238.824 178.778 243.03 176.372 245.367 171.561C247.705 166.749 248.344 159.222 247.285 148.978L244.238 123.352Z" fill="white"/>
<path d="M347.264 151.865H361.354L363.2 167.07H349.102L352.163 192.358H333.239L330.19 167.07H281.201L279.277 155.529L318.935 78.9552H338.442L347.264 151.865ZM298.688 151.865H328.34L322.632 104.527L321.533 107.016L298.688 151.865Z" fill="white"/>
<path d="M174.399 188.914H155.463C155.273 188.914 155.09 188.845 154.949 188.718C154.807 188.592 154.717 188.418 154.696 188.23L151.833 163.626H103.544C103.36 163.627 103.182 163.561 103.042 163.442C102.902 163.323 102.808 163.158 102.779 162.977L100.913 151.436C100.885 151.272 100.912 151.102 100.99 150.954L140.974 74.3828C141.039 74.2574 141.138 74.1523 141.259 74.0788C141.38 74.0053 141.518 73.9663 141.66 73.9661H161.167C161.357 73.9665 161.54 74.0363 161.682 74.1625C161.824 74.2886 161.914 74.4622 161.937 74.6505L170.37 146.876H183.772C183.962 146.876 184.144 146.946 184.286 147.072C184.427 147.198 184.518 147.372 184.539 147.56L186.322 162.765C186.334 162.873 186.323 162.983 186.29 163.087C186.257 163.191 186.203 163.287 186.13 163.368C186.057 163.449 185.968 163.514 185.869 163.559C185.769 163.603 185.661 163.626 185.552 163.626H172.327L175.18 188.051C175.193 188.159 175.183 188.269 175.15 188.373C175.117 188.477 175.062 188.574 174.99 188.655C174.917 188.737 174.828 188.802 174.728 188.847C174.628 188.891 174.52 188.914 174.41 188.914H174.399ZM156.154 187.369H173.528L170.675 162.944C170.663 162.836 170.674 162.726 170.707 162.622C170.739 162.518 170.794 162.422 170.867 162.341C170.939 162.259 171.028 162.194 171.128 162.149C171.228 162.104 171.336 162.081 171.445 162.081H184.67L183.07 148.421H169.67C169.48 148.422 169.297 148.352 169.155 148.227C169.013 148.101 168.922 147.927 168.9 147.739L160.467 75.5119H142.12L102.462 151.443L104.188 162.081H152.522C152.712 162.081 152.895 162.151 153.037 162.277C153.178 162.403 153.269 162.577 153.291 162.765L156.154 187.369ZM150.753 148.433H121.094C120.961 148.434 120.83 148.401 120.713 148.337C120.596 148.273 120.498 148.18 120.428 148.067C120.357 147.954 120.317 147.825 120.312 147.692C120.306 147.559 120.334 147.427 120.394 147.309L143.438 102.46L144.539 100.008C144.608 99.8535 144.727 99.7258 144.877 99.6449C145.026 99.5641 145.198 99.5346 145.366 99.5611C145.534 99.5876 145.689 99.6685 145.806 99.7915C145.923 99.9144 145.997 100.072 146.015 100.241L151.514 147.56C151.526 147.668 151.515 147.778 151.482 147.882C151.449 147.986 151.395 148.081 151.322 148.163C151.252 148.245 151.165 148.312 151.067 148.359C150.969 148.405 150.862 148.431 150.753 148.433ZM122.354 146.876H149.881L144.8 103.193L122.354 146.876Z" fill="#454658"/>
<path d="M238.166 190.477C225.73 190.477 215.734 186.302 208.455 178.072C201.223 169.905 196.537 157.683 194.51 141.754L192.203 122.118C190.28 105.726 191.944 93.2312 197.15 84.978C202.409 76.6457 211.52 72.4202 224.23 72.4202C236.785 72.4202 246.776 76.506 253.926 84.5683C261.032 92.5793 265.674 104.704 267.725 120.605L270.058 140.238C272.015 156.661 270.377 169.251 265.194 177.663C259.959 186.163 250.863 190.477 238.166 190.477ZM224.23 73.9567C212.099 73.9567 203.416 77.9401 198.461 85.7952C193.446 93.741 191.86 105.898 193.742 121.93L196.047 141.558C198.032 157.175 202.6 169.121 209.617 177.05C216.587 184.933 226.194 188.924 238.166 188.924C250.296 188.924 258.928 184.856 263.883 176.838C268.88 168.732 270.443 156.474 268.527 140.408L266.194 120.782C264.184 105.2 259.663 93.3522 252.772 85.5787C245.922 77.8703 236.323 73.9567 224.23 73.9567ZM236.374 175.33C229.798 175.33 224.582 172.592 220.873 167.181C217.245 161.904 214.768 153.811 213.51 143.132L210.478 117.43C209.447 107.358 210.144 99.8221 212.549 95.0169C215.031 90.065 219.562 87.5669 226.017 87.5669C232.576 87.5669 237.741 90.1744 241.369 95.3195C244.917 100.353 247.362 108.338 248.633 119.052L251.666 144.678C252.737 155.024 252.067 162.76 249.676 167.68C247.224 172.755 242.743 175.33 236.374 175.33ZM226.021 89.1104C220.119 89.1104 216.167 91.2709 213.94 95.7176C211.667 100.255 211.021 107.507 212.02 117.271L215.052 142.96C216.282 153.39 218.671 161.247 222.153 166.318C225.606 171.342 230.258 173.784 236.384 173.784C242.19 173.784 246.09 171.565 248.307 167.002C250.569 162.346 251.19 154.896 250.149 144.845L247.117 119.236C245.876 108.781 243.522 101.033 240.118 96.2112C236.738 91.4315 232.131 89.1104 226.021 89.1104Z" fill="#454658"/>
<path d="M355.795 188.914H336.862C336.673 188.914 336.491 188.845 336.35 188.72C336.208 188.594 336.118 188.422 336.095 188.235L333.125 163.627H284.836C284.653 163.627 284.475 163.562 284.335 163.444C284.195 163.326 284.101 163.162 284.071 162.982L282.149 151.439C282.12 151.275 282.147 151.107 282.223 150.959L321.881 74.3852C321.947 74.2571 322.047 74.1499 322.171 74.0759C322.295 74.0018 322.437 73.9638 322.581 73.9662H342.085C342.275 73.9659 342.458 74.035 342.6 74.1602C342.741 74.2855 342.832 74.4583 342.855 74.646L345.249 94.4186C345.269 94.6197 345.209 94.8206 345.082 94.9782C344.956 95.1359 344.772 95.2378 344.571 95.2621C344.37 95.2865 344.168 95.2313 344.007 95.1085C343.846 94.9857 343.74 94.8049 343.711 94.6049L341.4 75.5144H323.052L283.726 151.441L285.501 162.083H333.827C334.017 162.083 334.199 162.153 334.341 162.279C334.482 162.404 334.573 162.577 334.595 162.765L337.562 187.371H354.934L352.49 167.165C352.475 167.063 352.481 166.96 352.507 166.86C352.533 166.76 352.579 166.667 352.641 166.585C352.704 166.504 352.783 166.435 352.872 166.384C352.962 166.333 353.061 166.3 353.163 166.288C353.265 166.275 353.369 166.284 353.468 166.312C353.568 166.34 353.66 166.388 353.741 166.452C353.821 166.516 353.888 166.596 353.937 166.687C353.986 166.777 354.017 166.877 354.027 166.979L356.577 188.051C356.59 188.159 356.58 188.27 356.547 188.374C356.515 188.479 356.46 188.575 356.387 188.657C356.315 188.739 356.225 188.804 356.125 188.849C356.025 188.894 355.917 188.917 355.807 188.917L355.795 188.914ZM331.98 148.433H302.32C302.187 148.435 302.056 148.402 301.939 148.338C301.823 148.274 301.724 148.182 301.654 148.069C301.584 147.956 301.544 147.827 301.538 147.694C301.532 147.562 301.56 147.43 301.621 147.311L324.482 102.462L325.562 100.011C325.631 99.8562 325.748 99.7284 325.897 99.6469C326.045 99.5654 326.216 99.5348 326.384 99.5596C326.551 99.5844 326.706 99.6634 326.825 99.7844C326.943 99.9054 327.018 100.062 327.039 100.23L330.585 129.636C330.609 129.839 330.552 130.044 330.426 130.205C330.299 130.366 330.114 130.47 329.91 130.495C329.707 130.52 329.502 130.463 329.34 130.337C329.179 130.21 329.074 130.025 329.05 129.822L325.84 103.205L303.582 146.887H331.11L330.48 141.682C330.455 141.478 330.513 141.274 330.64 141.112C330.767 140.951 330.952 140.847 331.156 140.823C331.257 140.809 331.36 140.816 331.458 140.843C331.556 140.87 331.648 140.916 331.728 140.978C331.808 141.041 331.875 141.119 331.925 141.208C331.974 141.297 332.006 141.394 332.017 141.495L332.75 147.57C332.762 147.678 332.752 147.788 332.719 147.892C332.687 147.996 332.632 148.092 332.56 148.173C332.487 148.255 332.398 148.32 332.299 148.365C332.199 148.41 332.091 148.433 331.982 148.433H331.98Z" fill="#454658"/>
<path d="M342.841 251.939H85.0544C77.7877 251.939 71.1975 245.993 70.3577 238.687L45.8376 24.2445C45.4294 20.6778 46.4465 17.3253 48.6976 14.8063C50.9488 12.2873 54.0841 10.9509 57.5996 10.9509H368.264C375.496 10.9509 382.084 16.8317 382.961 24.0629L391.483 93.7969C391.497 93.8988 391.491 94.0026 391.465 94.1022C391.439 94.2018 391.394 94.2952 391.331 94.3769C391.268 94.4586 391.19 94.527 391.1 94.5781C391.011 94.6292 390.912 94.6619 390.809 94.6743C390.707 94.6867 390.603 94.6785 390.504 94.6503C390.405 94.6221 390.312 94.5745 390.232 94.5101C390.151 94.4457 390.084 94.3659 390.035 94.2755C389.986 94.185 389.955 94.0856 389.945 93.9831L381.428 24.2514C380.637 17.77 374.731 12.4968 368.264 12.4968H57.6089C54.539 12.4968 51.7769 13.6818 49.864 15.8353C47.9511 17.9888 47.0273 20.9455 47.3842 24.0699L71.8997 238.51C72.6485 245.061 78.5505 250.384 85.0544 250.384H342.841C343.047 250.384 343.244 250.465 343.389 250.61C343.534 250.755 343.616 250.951 343.616 251.156C343.616 251.361 343.534 251.558 343.389 251.703C343.244 251.848 343.047 251.929 342.841 251.929V251.939Z" fill="#454658"/>
<path d="M295.723 332.883H186.718C186.613 332.888 186.508 332.873 186.409 332.837C186.31 332.8 186.22 332.744 186.143 332.672C186.067 332.6 186.006 332.513 185.964 332.416C185.923 332.32 185.901 332.216 185.901 332.111C185.901 332.006 185.923 331.902 185.964 331.805C186.006 331.709 186.067 331.622 186.143 331.55C186.22 331.477 186.31 331.421 186.409 331.385C186.508 331.349 186.613 331.333 186.718 331.339H295.723C296.054 331.335 296.382 331.266 296.685 331.134C296.989 331.003 297.264 330.813 297.494 330.574C297.723 330.336 297.903 330.054 298.022 329.746C298.142 329.438 298.198 329.109 298.189 328.778V325.738C298.189 324.287 297.083 323.107 295.723 323.107H264.128C263.922 323.107 263.725 323.025 263.58 322.881C263.435 322.736 263.353 322.539 263.353 322.334C263.353 322.129 263.435 321.932 263.58 321.787C263.725 321.642 263.922 321.561 264.128 321.561H295.723C297.937 321.561 299.736 323.435 299.736 325.738V328.778C299.747 329.853 299.331 330.888 298.579 331.658C297.827 332.427 296.8 332.867 295.723 332.883Z" fill="#454658"/>
<path d="M412.961 135.582C425.173 139.009 440.894 152.202 440.894 176.14C440.894 193.384 415.441 207.991 415.441 207.991L411.241 197.708C411.241 197.708 425.271 187.341 424.597 175.237C424.058 165.531 408.379 162.516 408.379 162.516L412.961 135.582Z" fill="#454658"/>
<path d="M407.81 322.015H399.032V332.298H407.81V322.015Z" fill="#454658"/>
<path d="M382.074 320.398L373.53 322.411L375.897 332.419L384.441 330.406L382.074 320.398Z" fill="#454658"/>
<path d="M415.06 194.425C415.06 194.425 417.68 215.106 415.669 223.135C413.658 231.165 408.953 305.367 408.953 325.442H397.123L391.779 230.616L375.272 265.025C374.074 267.814 373.77 270.904 374.399 273.872L384.148 325.442L373.079 326.203L354.578 269.579C353.751 266.774 353.69 263.801 354.4 260.965L369.398 201.049L415.06 194.425Z" fill="black"/>
<path d="M392.353 229.284C392.207 229.285 392.063 229.244 391.939 229.167C391.816 229.089 391.716 228.978 391.653 228.847C391.59 228.716 391.565 228.569 391.582 228.424C391.599 228.28 391.657 228.142 391.748 228.029L397.853 220.411C397.984 220.258 398.169 220.161 398.37 220.142C398.571 220.123 398.771 220.182 398.928 220.308C399.086 220.434 399.188 220.616 399.213 220.816C399.237 221.016 399.183 221.217 399.062 221.378L392.959 228.986C392.887 229.078 392.795 229.153 392.69 229.205C392.585 229.256 392.47 229.283 392.353 229.284Z" fill="white"/>
<path d="M408.381 330.012H398.077L396.549 337.774C396.255 339.271 397.338 340.677 398.789 340.677H407.67C409.119 340.677 410.203 339.28 409.909 337.774L408.381 330.012Z" fill="white"/>
<path d="M407.67 341.448H398.791C398.344 341.448 397.902 341.349 397.499 341.156C397.095 340.964 396.74 340.684 396.458 340.337C396.151 339.964 395.931 339.526 395.814 339.057C395.697 338.588 395.686 338.099 395.782 337.625L397.31 329.863C397.345 329.687 397.44 329.529 397.578 329.416C397.717 329.302 397.891 329.24 398.07 329.239H408.374C408.554 329.24 408.727 329.302 408.865 329.416C409.004 329.53 409.098 329.688 409.133 329.863L410.661 337.625C410.756 338.099 410.745 338.588 410.628 339.057C410.511 339.526 410.291 339.964 409.984 340.337C409.705 340.682 409.352 340.961 408.952 341.153C408.552 341.345 408.114 341.445 407.67 341.448ZM398.714 330.785L397.315 337.923C397.264 338.173 397.269 338.432 397.33 338.679C397.391 338.927 397.506 339.159 397.667 339.357C397.802 339.527 397.974 339.664 398.169 339.759C398.365 339.853 398.579 339.903 398.796 339.904H407.677C407.894 339.903 408.108 339.853 408.303 339.759C408.498 339.664 408.669 339.527 408.804 339.357C408.966 339.159 409.081 338.928 409.142 338.68C409.203 338.432 409.208 338.173 409.156 337.923L407.756 330.785H398.714Z" fill="#454658"/>
<path d="M408.381 338.973H397.695C397.489 338.973 397.292 338.892 397.147 338.747C397.002 338.602 396.92 338.405 396.92 338.2C396.92 337.995 397.002 337.798 397.147 337.654C397.292 337.509 397.489 337.427 397.695 337.427H408.381C408.587 337.427 408.784 337.509 408.929 337.654C409.074 337.798 409.156 337.995 409.156 338.2C409.156 338.405 409.074 338.602 408.929 338.747C408.784 338.892 408.587 338.973 408.381 338.973Z" fill="#454658"/>
<path d="M384.72 327.726L387.543 337.073C388.032 338.703 387.039 340.419 385.581 340.468L366.195 341.122C364.996 341.164 364.518 339.308 365.53 338.561C368.684 336.196 372.881 332.908 374.033 331.344C376.707 327.73 379.378 330.892 379.378 330.892C379.378 330.892 381.295 327.726 384.72 327.726Z" fill="white"/>
<path d="M366.158 341.9C365.75 341.891 365.356 341.755 365.03 341.51C364.705 341.265 364.465 340.924 364.345 340.535C364.172 340.082 364.148 339.586 364.278 339.118C364.408 338.651 364.684 338.237 365.066 337.937C369.598 334.536 372.563 332.031 373.41 330.885C374.385 329.567 375.496 328.881 376.714 328.841C377.794 328.79 378.682 329.307 379.263 329.742C380.122 328.704 381.974 326.948 384.72 326.948C384.886 326.948 385.048 327.002 385.182 327.101C385.315 327.2 385.413 327.339 385.462 327.498L388.282 336.843C388.447 337.376 388.487 337.939 388.401 338.489C388.314 339.04 388.103 339.564 387.783 340.021C387.537 340.376 387.214 340.67 386.836 340.88C386.459 341.091 386.038 341.212 385.606 341.234L366.223 341.888L366.158 341.9ZM376.819 330.385H376.756C376.037 330.413 375.332 330.89 374.656 331.802C373.695 333.102 370.781 335.581 365.997 339.171C365.881 339.275 365.8 339.413 365.766 339.565C365.731 339.718 365.745 339.877 365.805 340.021C365.843 340.123 365.948 340.356 366.16 340.356L385.546 339.699C385.74 339.685 385.928 339.626 386.096 339.527C386.265 339.429 386.408 339.293 386.516 339.131C386.696 338.866 386.814 338.564 386.862 338.248C386.909 337.931 386.885 337.608 386.791 337.301L384.146 328.538C381.549 328.855 380.045 331.267 380.028 331.293C379.964 331.396 379.877 331.483 379.773 331.546C379.668 331.609 379.551 331.647 379.429 331.656C379.307 331.665 379.184 331.645 379.071 331.598C378.958 331.551 378.858 331.479 378.778 331.386C378.778 331.386 377.906 330.38 376.819 330.38V330.385Z" fill="#454658"/>
<path d="M368.308 338.973C368.11 338.967 367.921 338.885 367.781 338.745C367.642 338.604 367.561 338.415 367.557 338.217C367.553 338.019 367.625 337.826 367.759 337.68C367.893 337.533 368.078 337.444 368.276 337.429L385.83 336.666C385.932 336.66 386.035 336.674 386.131 336.709C386.227 336.743 386.316 336.796 386.391 336.865C386.466 336.934 386.527 337.018 386.569 337.111C386.612 337.204 386.635 337.304 386.637 337.406C386.646 337.611 386.573 337.811 386.435 337.962C386.296 338.113 386.103 338.203 385.898 338.212L368.343 338.973H368.308Z" fill="#454658"/>
<path d="M395.024 130.251L404.565 136.725L378.293 135.47L385.865 130.63L386.885 125.946C385.541 125.746 383.691 125.613 383.103 124.882C382.065 123.59 382.534 119.12 382.534 119.12L381.396 118.228C381.336 118.198 381.283 118.155 381.241 118.104C381.198 118.052 381.167 117.992 381.148 117.928C381.131 117.863 381.127 117.795 381.137 117.729C381.146 117.663 381.169 117.599 381.204 117.541C382.172 116.005 383.084 115.509 383.511 113.942C383.938 112.375 383.745 112.631 385.413 109.302L395.406 109.288L395.462 116.761C395.462 116.761 396.995 115.774 397.965 117.111C398.665 118.081 397.109 121.327 395.84 121.327L395.024 130.251Z" fill="white"/>
<path d="M404.565 137.491H404.528L378.263 136.241C378.099 136.233 377.941 136.173 377.814 136.07C377.686 135.967 377.595 135.826 377.552 135.668C377.51 135.51 377.519 135.342 377.578 135.189C377.638 135.037 377.744 134.907 377.882 134.818L385.184 130.162L385.956 126.607C384.556 126.418 383.157 126.197 382.506 125.373C381.472 124.088 381.622 120.801 381.731 119.478L380.971 118.88C380.828 118.794 380.704 118.68 380.606 118.546C380.508 118.411 380.437 118.259 380.399 118.097C380.36 117.935 380.355 117.767 380.382 117.603C380.409 117.439 380.469 117.282 380.558 117.141C380.886 116.629 381.249 116.14 381.643 115.677C382.168 115.039 382.546 114.575 382.772 113.747C382.828 113.542 382.872 113.367 382.914 113.213C383.199 112.122 383.297 111.817 384.727 108.967C384.792 108.838 384.892 108.73 385.016 108.654C385.139 108.578 385.282 108.538 385.427 108.539H395.418C395.622 108.539 395.818 108.619 395.962 108.763C396.107 108.906 396.189 109.101 396.19 109.305L396.239 115.695C396.686 115.615 397.147 115.665 397.567 115.84C397.986 116.014 398.346 116.305 398.605 116.678C399.374 117.739 398.574 119.506 398.311 120.023C398.047 120.54 397.443 121.555 396.575 121.955L395.847 129.887L405.013 136.106C405.15 136.199 405.254 136.333 405.309 136.489C405.365 136.645 405.368 136.815 405.319 136.974C405.27 137.132 405.172 137.27 405.038 137.369C404.904 137.467 404.743 137.519 404.577 137.519L404.565 137.491ZM380.754 134.807L401.859 135.815L394.592 130.888C394.478 130.81 394.387 130.703 394.329 130.579C394.27 130.454 394.246 130.316 394.259 130.178L395.075 121.257C395.094 121.066 395.183 120.889 395.325 120.76C395.467 120.631 395.653 120.559 395.845 120.559C395.952 120.559 396.388 120.277 396.846 119.45C397.352 118.538 397.436 117.735 397.34 117.56C396.818 116.843 395.98 117.353 395.887 117.413C395.77 117.488 395.636 117.531 395.497 117.536C395.359 117.542 395.221 117.51 395.099 117.444C394.977 117.379 394.875 117.281 394.804 117.163C394.732 117.045 394.694 116.909 394.692 116.771L394.641 110.066H385.898C384.701 112.466 384.643 112.69 384.409 113.584C384.367 113.742 384.321 113.921 384.262 114.135C383.95 115.281 383.409 115.94 382.837 116.638C382.545 116.983 382.27 117.343 382.014 117.716L383.017 118.503C383.121 118.585 383.203 118.692 383.254 118.814C383.305 118.936 383.324 119.07 383.308 119.201C383.129 120.926 383.133 123.678 383.712 124.398C384.02 124.779 385.492 124.977 386.371 125.096L387.001 125.185C387.107 125.199 387.208 125.236 387.299 125.292C387.389 125.348 387.468 125.422 387.528 125.509C387.589 125.597 387.63 125.696 387.65 125.8C387.67 125.905 387.669 126.012 387.645 126.116L386.626 130.802C386.581 131.003 386.46 131.177 386.287 131.289L380.754 134.807Z" fill="#454658"/>
<path d="M396.33 124.67C394.317 125.338 392.332 123.767 391.972 123.485C390.573 122.377 389.432 120.403 389.994 119.527C390.302 119.062 390.853 119.311 391.578 118.738C392.642 117.893 392.945 116.068 392.369 115.576C391.902 115.174 391.161 115.944 390.391 115.576C389.458 115.125 389.924 113.684 389.201 112.415C388.011 110.338 385.235 111.591 383.105 109.388C381.706 107.945 381.109 105.542 381.904 104.185C382.168 103.75 382.547 103.395 382.998 103.158C386.353 101.314 386.854 103.838 390.123 103.857C396.843 103.915 400.14 105.254 401.357 108.047C402.181 109.933 401.173 112.936 400.685 114.394C400.36 115.298 400.095 116.223 399.892 117.162C399.58 118.654 399.675 119.024 399.498 119.928C399.372 120.552 398.703 123.881 396.33 124.67Z" fill="#454658"/>
<path d="M381.274 112.967C381.274 112.967 384.242 114.061 384.888 112.58C385.534 111.1 384.5 109.875 386.112 108.718C387.724 107.561 391.597 106.334 390.176 104.597C388.756 102.86 384.435 102.15 383.21 104.211C381.986 106.271 381.081 109.812 380.243 109.875C379.406 109.938 379.716 112.604 381.274 112.967Z" fill="white"/>
<path d="M383.318 114.128C382.545 114.107 381.779 113.965 381.05 113.707C379.532 113.321 378.951 111.584 379.023 110.517C379.091 109.626 379.571 109.221 380.042 109.121C380.32 108.823 380.815 107.624 381.146 106.818C381.542 105.784 382.01 104.779 382.546 103.81C383.105 102.879 384.179 102.292 385.578 102.18C387.559 102.031 389.754 102.839 390.78 104.094C390.97 104.305 391.109 104.557 391.187 104.829C391.264 105.102 391.279 105.389 391.228 105.668C390.995 106.89 389.481 107.698 388.03 108.478C387.526 108.733 387.038 109.018 386.567 109.33C385.905 109.807 385.907 110.187 385.91 110.944C385.948 111.602 385.843 112.261 385.599 112.874C385.175 113.856 384.237 114.128 383.318 114.128ZM381.543 112.24C382.476 112.583 383.952 112.79 384.179 112.271C384.332 111.853 384.394 111.408 384.361 110.964C384.361 110.103 384.361 109.032 385.662 108.089C386.186 107.736 386.731 107.416 387.295 107.13C388.158 106.664 389.605 105.889 389.707 105.379C389.707 105.324 389.695 105.269 389.672 105.218C389.65 105.167 389.617 105.122 389.577 105.084C388.877 104.234 387.144 103.631 385.69 103.736C385.184 103.773 384.274 103.936 383.875 104.604C383.381 105.505 382.948 106.439 382.578 107.398C381.843 109.181 381.372 110.324 380.57 110.583C380.547 110.92 380.616 111.258 380.768 111.56C380.829 111.709 380.922 111.844 381.039 111.954C381.157 112.064 381.297 112.149 381.449 112.201C381.482 112.219 381.512 112.231 381.543 112.24Z" fill="#454658"/>
<path d="M368.311 134.059C368.311 134.059 391.207 127.585 412.961 135.582C414.633 145.206 415.783 153.508 416.586 160.099C417.986 171.689 417.118 167.987 418.877 184.903C419.968 195.417 420.258 196.381 419.257 198.234C414.211 207.574 393.871 207.067 386.056 205.09C385.501 204.948 383.206 204.345 379.45 203.4C375.153 202.317 371.621 201.463 369.265 200.9C367.989 200.322 366.267 199.302 365.066 197.473C362.376 193.373 364.175 188.067 365.066 184.524C367.357 175.421 364.347 175.225 365.066 158.623C365.437 150.357 366.523 142.139 368.311 134.059Z" fill="#454658"/>
<path d="M410.194 205.356C410 205.353 409.814 205.278 409.672 205.145C409.531 205.012 409.445 204.831 409.431 204.638C409.418 204.444 409.477 204.253 409.598 204.101C409.719 203.95 409.893 203.849 410.084 203.819C410.497 203.758 420.23 202.215 418.949 193.01C418.93 192.907 418.932 192.802 418.955 192.7C418.978 192.598 419.022 192.502 419.083 192.418C419.144 192.333 419.222 192.262 419.311 192.208C419.401 192.154 419.5 192.119 419.603 192.105C419.707 192.09 419.812 192.097 419.913 192.124C420.014 192.151 420.108 192.199 420.19 192.263C420.272 192.328 420.34 192.408 420.39 192.5C420.441 192.591 420.472 192.692 420.482 192.795C421.984 203.53 410.432 205.332 410.313 205.349L410.194 205.356Z" fill="white"/>
<path d="M383.675 196.469C383.471 196.47 383.276 196.39 383.131 196.248C374.005 187.268 372.123 173.681 372.046 173.106C372.027 172.907 372.086 172.708 372.211 172.551C372.336 172.395 372.517 172.293 372.716 172.267C372.915 172.241 373.117 172.293 373.278 172.412C373.439 172.531 373.548 172.709 373.581 172.906C373.599 173.041 375.477 186.549 384.218 195.147C384.327 195.254 384.402 195.392 384.432 195.542C384.463 195.692 384.448 195.848 384.39 195.989C384.332 196.131 384.233 196.252 384.105 196.338C383.978 196.423 383.828 196.469 383.675 196.469Z" fill="white"/>
<path d="M360.183 121.802C360.189 121.605 360.262 121.417 360.389 121.267C360.516 121.117 360.69 121.014 360.883 120.975L383.511 113.942L381.549 109.286C381.549 109.286 350.92 99.5799 336.55 111.961C322.179 124.342 351.067 154.931 367.375 162.015L382.305 132.099L360.827 122.673C360.638 122.62 360.471 122.506 360.354 122.348C360.237 122.19 360.177 121.998 360.183 121.802Z" fill="#454658"/>
<path d="M421.056 67.7231C433.22 55.5836 433.22 35.9017 421.056 23.7623C408.892 11.6228 389.171 11.6228 377.007 23.7623C364.843 35.9017 364.843 55.5836 377.007 67.7231C389.171 79.8625 408.892 79.8625 421.056 67.7231Z" fill="white"/>
<path d="M399.025 77.6002C381.423 77.6002 367.102 63.3079 367.102 45.7423C367.102 28.1767 381.43 13.8844 399.025 13.8844C416.619 13.8844 430.944 28.1767 430.944 45.7423C430.944 63.3079 416.633 77.6002 399.025 77.6002ZM399.025 15.4396C390.969 15.4396 383.244 18.6332 377.547 24.3178C371.851 30.0024 368.651 37.7124 368.651 45.7516C368.651 53.7909 371.851 61.5009 377.547 67.1855C383.244 72.8701 390.969 76.0637 399.025 76.0637C415.772 76.0637 429.398 62.4652 429.398 45.7516C429.398 29.0381 415.779 15.4303 399.025 15.4303V15.4396Z" fill="#454658"/>
<path d="M412.908 59.5907C420.571 51.9427 420.571 39.5427 412.908 31.8946C405.244 24.2466 392.819 24.2466 385.156 31.8946C377.492 39.5427 377.492 51.9427 385.156 59.5907C392.819 67.2388 405.244 67.2388 412.908 59.5907Z" fill="#D0BAA1"/>
<path d="M390.591 54.6101C390.472 54.61 390.355 54.5824 390.248 54.5296C390.141 54.4768 390.048 54.4002 389.975 54.3056C389.903 54.2111 389.853 54.1012 389.83 53.9844C389.807 53.8676 389.811 53.7472 389.843 53.6323C390.392 51.6376 391.567 49.8709 393.195 48.5912C394.824 47.3115 396.82 46.5861 398.892 46.5212C400.964 46.4564 403.002 47.0556 404.707 48.231C406.413 49.4064 407.697 51.0962 408.37 53.0526C408.437 53.2465 408.423 53.4589 408.333 53.6432C408.243 53.8274 408.083 53.9684 407.889 54.0351C407.695 54.1018 407.482 54.0887 407.297 53.9987C407.113 53.9088 406.972 53.7493 406.905 53.5555C406.339 51.9112 405.261 50.491 403.827 49.503C402.394 48.5151 400.681 48.0114 398.94 48.0658C397.199 48.1202 395.521 48.7299 394.153 49.8054C392.784 50.8809 391.797 52.3657 391.336 54.0421C391.291 54.2049 391.194 54.3485 391.059 54.4511C390.925 54.5537 390.761 54.6095 390.591 54.6101Z" fill="white"/>
<path d="M392.605 42.4295C392.398 42.4272 392.201 42.3435 392.056 42.1967L387.647 37.7965C387.502 37.6514 387.42 37.4546 387.42 37.2494C387.42 37.0442 387.502 36.8474 387.647 36.7023C387.793 36.5572 387.99 36.4757 388.196 36.4757C388.401 36.4757 388.598 36.5572 388.744 36.7023L393.153 41.1025C393.261 41.2106 393.335 41.3484 393.365 41.4985C393.395 41.6485 393.38 41.8041 393.321 41.9455C393.263 42.0869 393.163 42.2077 393.036 42.2926C392.908 42.3775 392.758 42.4227 392.605 42.4225V42.4295Z" fill="white"/>
<path d="M392.605 42.4295C392.398 42.4272 392.201 42.3435 392.056 42.1967L387.647 37.7965C387.502 37.6514 387.42 37.4546 387.42 37.2494C387.42 37.0442 387.502 36.8474 387.647 36.7023C387.793 36.5572 387.99 36.4757 388.196 36.4757C388.401 36.4757 388.598 36.5572 388.744 36.7023L393.153 41.1025C393.261 41.2106 393.335 41.3484 393.365 41.4985C393.395 41.6485 393.38 41.8041 393.321 41.9455C393.263 42.0869 393.163 42.2077 393.036 42.2926C392.908 42.3775 392.758 42.4227 392.605 42.4225V42.4295Z" fill="white"/>
<path d="M388.196 42.4295C388.042 42.4297 387.892 42.3845 387.765 42.2996C387.637 42.2146 387.538 42.0938 387.479 41.9525C387.42 41.8111 387.405 41.6555 387.435 41.5054C387.465 41.3554 387.539 41.2175 387.647 41.1094L392.056 36.7093C392.202 36.5642 392.399 36.4827 392.605 36.4827C392.81 36.4827 393.007 36.5642 393.153 36.7093C393.298 36.8544 393.38 37.0512 393.38 37.2564C393.38 37.4616 393.298 37.6584 393.153 37.8035L388.744 42.2036C388.598 42.3479 388.401 42.429 388.196 42.4295Z" fill="white"/>
<path d="M410.15 42.4295C409.944 42.4268 409.748 42.3431 409.604 42.1966L405.195 37.7965C405.052 37.6513 404.972 37.4554 404.972 37.2516C404.973 37.0478 405.054 36.8526 405.198 36.7083C405.343 36.564 405.538 36.4825 405.742 36.4813C405.947 36.4802 406.143 36.5596 406.289 36.7023L410.689 41.1071C410.797 41.2152 410.871 41.353 410.901 41.5031C410.931 41.6532 410.916 41.8088 410.857 41.9501C410.798 42.0915 410.699 42.2123 410.571 42.2972C410.444 42.3821 410.294 42.4273 410.14 42.4271L410.15 42.4295Z" fill="white"/>
<path d="M405.743 42.4294C405.59 42.4296 405.44 42.3844 405.312 42.2995C405.185 42.2146 405.085 42.0938 405.026 41.9524C404.968 41.8111 404.952 41.6555 404.982 41.5054C405.012 41.3553 405.086 41.2175 405.195 41.1094L409.604 36.7092C409.75 36.5666 409.946 36.4872 410.15 36.4883C410.354 36.4894 410.55 36.571 410.694 36.7153C410.838 36.8595 410.92 37.0548 410.92 37.2586C410.921 37.4624 410.841 37.6582 410.698 37.8035L406.289 42.2036C406.144 42.3475 405.948 42.4286 405.743 42.4294Z" fill="white"/>
</g>
<defs>
<clipPath id="clip0_686_1215">
<rect width="443" height="342" fill="white"/>
</clipPath>
</defs>
</svg>
