<svg width="500" height="382" viewBox="0 0 500 382" fill="none" xmlns="http://www.w3.org/2000/svg">
<path d="M500 336.81H0V337.06H500V336.81Z" fill="#EBEBEB"/>
<path d="M237 292.21H43.91C42.399 292.207 40.9508 291.606 39.8824 290.538C38.814 289.469 38.2126 288.021 38.21 286.51V15.07C38.2126 13.5591 38.814 12.1108 39.8824 11.0424C40.9508 9.97402 42.399 9.37264 43.91 9.37H237C238.513 9.36999 239.963 9.97021 241.034 11.0389C242.105 12.1075 242.707 13.5573 242.71 15.07V286.51C242.707 288.023 242.105 289.472 241.034 290.541C239.963 291.61 238.513 292.21 237 292.21ZM43.91 9.62C42.4653 9.62264 41.0807 10.1977 40.0592 11.2192C39.0376 12.2407 38.4626 13.6254 38.46 15.07V286.51C38.456 287.229 38.594 287.941 38.866 288.606C39.138 289.272 39.5386 289.877 40.045 290.387C40.5513 290.897 41.1534 291.302 41.8166 291.579C42.4799 291.855 43.1913 291.999 43.91 292H237C238.446 292 239.834 291.426 240.857 290.404C241.881 289.383 242.457 287.996 242.46 286.55V15.07C242.457 13.6236 241.881 12.2374 240.857 11.2157C239.834 10.1939 238.446 9.61999 237 9.62H43.91Z" fill="#EBEBEB"/>
<path d="M453.31 292.21H260.21C258.698 292.207 257.249 291.606 256.179 290.538C255.109 289.47 254.505 288.022 254.5 286.51V15.07C254.505 13.5582 255.109 12.1099 256.179 11.0418C257.249 9.97369 258.698 9.37263 260.21 9.37H453.31C454.823 9.36999 456.274 9.97021 457.344 11.0389C458.415 12.1075 459.017 13.5573 459.02 15.07V286.51C459.017 288.023 458.415 289.472 457.344 290.541C456.274 291.61 454.823 292.21 453.31 292.21ZM260.21 9.62C258.764 9.61999 257.376 10.1939 256.353 11.2157C255.329 12.2374 254.753 13.6236 254.75 15.07V286.51C254.753 287.956 255.329 289.343 256.353 290.364C257.376 291.386 258.764 291.96 260.21 291.96H453.31C454.756 291.96 456.144 291.386 457.167 290.364C458.191 289.343 458.767 287.956 458.77 286.51V15.07C458.767 13.6236 458.191 12.2374 457.167 11.2157C456.144 10.1939 454.756 9.61999 453.31 9.62H260.21Z" fill="#EBEBEB"/>
<path d="M244.14 349.52H169.67V349.77H244.14V349.52Z" fill="#EBEBEB"/>
<path d="M182.31 107.36H80.6001V336.81H182.31V107.36Z" fill="#F5F5F5"/>
<path d="M172.75 115.42H90.1401V328.76H172.75V115.42Z" fill="#E6E6E6"/>
<path d="M167.08 125.42H95.8301V130.3H167.08V125.42Z" fill="#FAFAFA"/>
<path d="M167.08 136.5H95.8301V141.38H167.08V136.5Z" fill="#FAFAFA"/>
<path d="M167.08 147.59H95.8301V152.47H167.08V147.59Z" fill="#FAFAFA"/>
<path d="M167.08 158.67H95.8301V163.55H167.08V158.67Z" fill="#FAFAFA"/>
<path d="M167.08 169.76H95.8301V174.64H167.08V169.76Z" fill="#FAFAFA"/>
<path d="M167.08 180.85H95.8301V185.73H167.08V180.85Z" fill="#FAFAFA"/>
<path d="M167.08 191.93H95.8301V196.81H167.08V191.93Z" fill="#FAFAFA"/>
<path d="M167.08 203.02H95.8301V207.9H167.08V203.02Z" fill="#FAFAFA"/>
<path d="M167.08 214.1H95.8301V218.98H167.08V214.1Z" fill="#FAFAFA"/>
<path d="M167.08 225.19H95.8301V230.07H167.08V225.19Z" fill="#FAFAFA"/>
<path d="M167.08 236.28H95.8301V241.16H167.08V236.28Z" fill="#FAFAFA"/>
<path d="M167.08 247.36H95.8301V252.24H167.08V247.36Z" fill="#FAFAFA"/>
<path d="M167.08 258.45H95.8301V263.33H167.08V258.45Z" fill="#FAFAFA"/>
<path d="M167.08 269.53H95.8301V274.41H167.08V269.53Z" fill="#FAFAFA"/>
<path d="M167.08 280.62H95.8301V285.5H167.08V280.62Z" fill="#FAFAFA"/>
<path d="M167.08 291.71H95.8301V296.59H167.08V291.71Z" fill="#FAFAFA"/>
<path d="M167.08 302.79H95.8301V307.67H167.08V302.79Z" fill="#FAFAFA"/>
<path d="M167.08 313.88H95.8301V318.76H167.08V313.88Z" fill="#FAFAFA"/>
<path d="M52.4601 336.81H80.6001L80.6001 107.36H52.4601L52.4601 336.81Z" fill="#E6E6E6"/>
<path d="M168.33 103.41H88.5098V107.36H168.33V103.41Z" fill="#F0F0F0"/>
<path d="M66.4298 107.36H88.5098V103.41H66.4298V107.36Z" fill="#E0E0E0"/>
<path d="M75.55 124.24C77.2345 124.24 78.6 120.909 78.6 116.8C78.6 112.691 77.2345 109.36 75.55 109.36C73.8655 109.36 72.5 112.691 72.5 116.8C72.5 120.909 73.8655 124.24 75.55 124.24Z" fill="#F5F5F5"/>
<path d="M53.46 116.8C53.46 120.91 54.38 124.25 55.52 124.25C56.66 124.25 57.58 120.91 57.58 116.8C57.58 112.69 56.66 109.36 55.52 109.36C54.38 109.36 53.46 112.69 53.46 116.8Z" fill="#F5F5F5"/>
<path d="M75.55 334.81C77.2345 334.81 78.6 331.479 78.6 327.37C78.6 323.261 77.2345 319.93 75.55 319.93C73.8655 319.93 72.5 323.261 72.5 327.37C72.5 331.479 73.8655 334.81 75.55 334.81Z" fill="#F5F5F5"/>
<path d="M53.46 327.37C53.46 331.48 54.38 334.81 55.52 334.81C56.66 334.81 57.58 331.48 57.58 327.37C57.58 323.26 56.66 319.92 55.52 319.92C54.38 319.92 53.46 323.26 53.46 327.37Z" fill="#F5F5F5"/>
<path d="M371.66 158.54H292.64V336.81H371.66V158.54Z" fill="#F5F5F5"/>
<path d="M364.24 164.8H300.05V330.56H364.24V164.8Z" fill="#E6E6E6"/>
<path d="M359.83 172.57H304.47V176.36H359.83V172.57Z" fill="#FAFAFA"/>
<path d="M359.83 181.18H304.47V184.97H359.83V181.18Z" fill="#FAFAFA"/>
<path d="M359.83 189.79H304.47V193.58H359.83V189.79Z" fill="#FAFAFA"/>
<path d="M359.83 198.41H304.47V202.2H359.83V198.41Z" fill="#FAFAFA"/>
<path d="M359.83 207.02H304.47V210.81H359.83V207.02Z" fill="#FAFAFA"/>
<path d="M359.83 215.63H304.47V219.42H359.83V215.63Z" fill="#FAFAFA"/>
<path d="M359.83 224.25H304.47V228.04H359.83V224.25Z" fill="#FAFAFA"/>
<path d="M359.83 232.86H304.47V236.65H359.83V232.86Z" fill="#FAFAFA"/>
<path d="M359.83 241.47H304.47V245.26H359.83V241.47Z" fill="#FAFAFA"/>
<path d="M359.83 250.09H304.47V253.88H359.83V250.09Z" fill="#FAFAFA"/>
<path d="M359.83 258.7H304.47V262.49H359.83V258.7Z" fill="#FAFAFA"/>
<path d="M359.83 267.31H304.47V271.1H359.83V267.31Z" fill="#FAFAFA"/>
<path d="M359.83 275.93H304.47V279.72H359.83V275.93Z" fill="#FAFAFA"/>
<path d="M359.83 284.54H304.47V288.33H359.83V284.54Z" fill="#FAFAFA"/>
<path d="M359.83 293.15H304.47V296.94H359.83V293.15Z" fill="#FAFAFA"/>
<path d="M359.83 301.77H304.47V305.56H359.83V301.77Z" fill="#FAFAFA"/>
<path d="M359.83 310.38H304.47V314.17H359.83V310.38Z" fill="#FAFAFA"/>
<path d="M359.83 318.99H304.47V322.78H359.83V318.99Z" fill="#FAFAFA"/>
<path d="M270.78 336.81H292.64V158.54H270.78V336.81Z" fill="#E6E6E6"/>
<path d="M360.81 155.47H298.79V158.54H360.81V155.47Z" fill="#F0F0F0"/>
<path d="M281.62 158.54H298.78V155.47H281.62V158.54Z" fill="#E0E0E0"/>
<path d="M286.35 165.88C286.35 169.07 287.41 171.66 288.71 171.66C290.01 171.66 291.08 169.07 291.08 165.88C291.08 162.69 290.02 160.09 288.71 160.09C287.4 160.09 286.35 162.68 286.35 165.88Z" fill="#F5F5F5"/>
<path d="M271.55 165.88C271.55 169.07 272.27 171.66 273.15 171.66C274.03 171.66 274.76 169.07 274.76 165.88C274.76 162.69 274.04 160.09 273.15 160.09C272.26 160.09 271.55 162.68 271.55 165.88Z" fill="#F5F5F5"/>
<path d="M286.35 329.47C286.35 332.67 287.41 335.26 288.71 335.26C290.01 335.26 291.08 332.67 291.08 329.47C291.08 326.27 290.02 323.69 288.71 323.69C287.4 323.69 286.35 326.28 286.35 329.47Z" fill="#F5F5F5"/>
<path d="M271.55 329.47C271.55 332.67 272.27 335.26 273.15 335.26C274.03 335.26 274.76 332.67 274.76 329.47C274.76 326.27 274.04 323.69 273.15 323.69C272.26 323.69 271.55 326.28 271.55 329.47Z" fill="#F5F5F5"/>
<path d="M288.71 166.38H242.09C238.998 166.377 236.034 165.148 233.848 162.962C231.662 160.776 230.432 157.812 230.43 154.72V139C230.427 136.176 229.304 133.469 227.308 131.472C225.311 129.476 222.604 128.353 219.78 128.35H182.3V127.35H219.78C222.869 127.353 225.83 128.581 228.015 130.765C230.199 132.949 231.427 135.911 231.43 139V154.71C231.432 157.536 232.556 160.246 234.555 162.245C236.554 164.243 239.263 165.367 242.09 165.37H288.71V166.38Z" fill="#E0E0E0"/>
<path d="M273.15 330H259C255.91 329.995 252.948 328.764 250.764 326.578C248.58 324.393 247.352 321.43 247.35 318.34V226.79C247.347 223.964 246.223 221.254 244.225 219.255C242.226 217.257 239.516 216.133 236.69 216.13H182.3V215.13H236.73C239.821 215.133 242.786 216.362 244.972 218.548C247.158 220.734 248.387 223.698 248.39 226.79V318.32C248.387 321.141 249.502 323.849 251.49 325.85C253.479 327.852 256.179 328.984 259 329H273.11L273.15 330Z" fill="#E0E0E0"/>
<path d="M431.64 53.13H378.85V58.53H431.64V53.13Z" fill="#F0F0F0"/>
<path d="M364.24 58.52H378.85V53.12H364.24V58.52Z" fill="#E0E0E0"/>
<path d="M431.64 39.9H378.85V45.3H431.64V39.9Z" fill="#F0F0F0"/>
<path d="M364.24 45.3H378.85V39.9001H364.24V45.3Z" fill="#E0E0E0"/>
<path d="M431.64 26.67H378.85V32.07H431.64V26.67Z" fill="#F0F0F0"/>
<path d="M364.24 32.08H378.85V26.68H364.24V32.08Z" fill="#E0E0E0"/>
<path d="M431.64 13.4399H378.85V18.8399H431.64V13.4399Z" fill="#F0F0F0"/>
<path d="M364.24 18.85L378.85 18.85V13.45L364.24 13.45V18.85Z" fill="#E0E0E0"/>
<g opacity="0.4">
<path d="M426.38 0H381.83V53.13H426.38V0Z" fill="#F0F0F0"/>
<path d="M369.5 53.13H381.83V3.8147e-06H369.5V53.13Z" fill="#E0E0E0"/>
</g>
<path d="M295.38 140.95H256.83V144.89H295.38V140.95Z" fill="#F0F0F0"/>
<path d="M246.17 144.9H256.83V140.96H246.17V144.9Z" fill="#E0E0E0"/>
<path d="M295.38 131.29H256.83V135.23H295.38V131.29Z" fill="#F0F0F0"/>
<path d="M246.17 135.24H256.83V131.3H246.17V135.24Z" fill="#E0E0E0"/>
<path d="M295.38 121.64H256.83V125.58H295.38V121.64Z" fill="#F0F0F0"/>
<path d="M246.17 125.58H256.83V121.64H246.17V125.58Z" fill="#E0E0E0"/>
<path d="M295.38 111.98H256.83V115.92H295.38V111.98Z" fill="#F0F0F0"/>
<path d="M246.17 115.92H256.83V111.98H246.17V115.92Z" fill="#E0E0E0"/>
<g opacity="0.4">
<path d="M291.54 102.16H259.01V140.95H291.54V102.16Z" fill="#F0F0F0"/>
<path d="M250.01 140.95H259.01V102.16H250.01V140.95Z" fill="#E0E0E0"/>
</g>
<path d="M472.78 265.96H423.1V271.04H472.78V265.96Z" fill="#F0F0F0"/>
<path d="M409.36 271.05H423.1V265.97H409.36V271.05Z" fill="#E0E0E0"/>
<path d="M472.78 253.51H423.1V258.59H472.78V253.51Z" fill="#F0F0F0"/>
<path d="M409.36 258.6H423.1V253.52H409.36V258.6Z" fill="#E0E0E0"/>
<path d="M472.78 241.07H423.1V246.15H472.78V241.07Z" fill="#F0F0F0"/>
<path d="M409.36 246.15H423.1V241.07H409.36V246.15Z" fill="#E0E0E0"/>
<path d="M472.78 228.62H423.1V233.7H472.78V228.62Z" fill="#F0F0F0"/>
<path d="M409.36 233.7H423.1V228.62H409.36V233.7Z" fill="#E0E0E0"/>
<g opacity="0.4">
<path d="M467.83 215.97H425.9V265.97H467.83V215.97Z" fill="#F0F0F0"/>
<path d="M414.31 265.96H425.91V215.96H414.31V265.96Z" fill="#E0E0E0"/>
</g>
<path d="M427.37 69.6899H318.48V174.13H427.37V69.6899Z" fill="#A28F7B"/>
<path opacity="0.4" d="M427.37 69.6899H318.48V174.13H427.37V69.6899Z" fill="white"/>
<path opacity="0.7" d="M427.36 69.6899H353.14V174.13H427.36V69.6899Z" fill="white"/>
<path d="M423.65 75.0199H356.85V87.9499H423.65V75.0199Z" fill="#A28F7B"/>
<path d="M423.65 91.1899H356.85V104.12H423.65V91.1899Z" fill="#A28F7B"/>
<path d="M423.65 107.36H356.85V120.29H423.65V107.36Z" fill="#A28F7B"/>
<path d="M423.65 123.53H356.85V136.46H423.65V123.53Z" fill="#A28F7B"/>
<path d="M423.65 139.7H356.85V152.63H423.65V139.7Z" fill="#A28F7B"/>
<path d="M423.65 155.87H356.85V168.8H423.65V155.87Z" fill="#A28F7B"/>
<path d="M349.26 75.0199H322.37V87.9499H349.26V75.0199Z" fill="#A28F7B"/>
<path d="M349.26 91.1899H322.37V104.12H349.26V91.1899Z" fill="#A28F7B"/>
<path d="M349.26 107.36H322.37V120.29H349.26V107.36Z" fill="#A28F7B"/>
<path d="M349.26 123.53H322.37V136.46H349.26V123.53Z" fill="#A28F7B"/>
<path d="M349.26 139.7H322.37V152.63H349.26V139.7Z" fill="#A28F7B"/>
<path d="M349.26 155.87H322.37V168.8H349.26V155.87Z" fill="#A28F7B"/>
<path opacity="0.4" d="M337.47 77.61H324.85V85.37H337.47V77.61Z" fill="#263238"/>
<path opacity="0.4" d="M337.47 93.7799H324.85V101.54H337.47V93.7799Z" fill="#263238"/>
<path opacity="0.4" d="M337.47 109.95H324.85V117.71H337.47V109.95Z" fill="#263238"/>
<path opacity="0.4" d="M337.47 126.12H324.85V133.88H337.47V126.12Z" fill="#263238"/>
<path opacity="0.4" d="M337.47 142.28H324.85V150.04H337.47V142.28Z" fill="#263238"/>
<path opacity="0.4" d="M337.47 158.45H324.85V166.21H337.47V158.45Z" fill="#263238"/>
<path opacity="0.7" d="M420.38 76.71H418.82V86.27H420.38V76.71Z" fill="white"/>
<path opacity="0.7" d="M417.38 76.71H415.82V86.27H417.38V76.71Z" fill="white"/>
<path opacity="0.7" d="M414.38 76.71H412.82V86.27H414.38V76.71Z" fill="white"/>
<path opacity="0.7" d="M411.38 76.71H409.82V86.27H411.38V76.71Z" fill="white"/>
<path opacity="0.7" d="M408.38 76.71H406.82V86.27H408.38V76.71Z" fill="white"/>
<path opacity="0.7" d="M420.38 92.8799H418.82V102.44H420.38V92.8799Z" fill="white"/>
<path opacity="0.7" d="M417.38 92.8799H415.82V102.44H417.38V92.8799Z" fill="white"/>
<path opacity="0.7" d="M414.38 92.8799H412.82V102.44H414.38V92.8799Z" fill="white"/>
<path opacity="0.7" d="M411.38 92.8799H409.82V102.44H411.38V92.8799Z" fill="white"/>
<path opacity="0.7" d="M408.38 92.8799H406.82V102.44H408.38V92.8799Z" fill="white"/>
<path opacity="0.7" d="M420.38 109.04H418.82V118.6H420.38V109.04Z" fill="white"/>
<path opacity="0.7" d="M417.38 109.04H415.82V118.6H417.38V109.04Z" fill="white"/>
<path opacity="0.7" d="M414.38 109.04H412.82V118.6H414.38V109.04Z" fill="white"/>
<path opacity="0.7" d="M411.38 109.04H409.82V118.6H411.38V109.04Z" fill="white"/>
<path opacity="0.7" d="M408.38 109.04H406.82V118.6H408.38V109.04Z" fill="white"/>
<path opacity="0.7" d="M420.38 125.21H418.82V134.78H420.38V125.21Z" fill="white"/>
<path opacity="0.7" d="M417.38 125.21H415.82V134.78H417.38V125.21Z" fill="white"/>
<path opacity="0.7" d="M414.38 125.21H412.82V134.78H414.38V125.21Z" fill="white"/>
<path opacity="0.7" d="M411.38 125.21H409.82V134.78H411.38V125.21Z" fill="white"/>
<path opacity="0.7" d="M408.38 125.21H406.82V134.78H408.38V125.21Z" fill="white"/>
<path opacity="0.7" d="M420.38 141.38H418.82V150.95H420.38V141.38Z" fill="white"/>
<path opacity="0.7" d="M417.38 141.38H415.82V150.95H417.38V141.38Z" fill="white"/>
<path opacity="0.7" d="M414.38 141.38H412.82V150.95H414.38V141.38Z" fill="white"/>
<path opacity="0.7" d="M411.38 141.38H409.82V150.95H411.38V141.38Z" fill="white"/>
<path opacity="0.7" d="M408.38 141.38H406.82V150.95H408.38V141.38Z" fill="white"/>
<path opacity="0.7" d="M420.38 157.55H418.82V167.11H420.38V157.55Z" fill="white"/>
<path opacity="0.7" d="M417.38 157.55H415.82V167.11H417.38V157.55Z" fill="white"/>
<path opacity="0.7" d="M414.38 157.55H412.82V167.11H414.38V157.55Z" fill="white"/>
<path opacity="0.7" d="M411.38 157.55H409.82V167.11H411.38V157.55Z" fill="white"/>
<path opacity="0.7" d="M408.38 157.55H406.82V167.11H408.38V157.55Z" fill="white"/>
<path opacity="0.2" d="M381.44 162.33C381.44 162.016 381.533 161.708 381.708 161.447C381.883 161.185 382.131 160.981 382.421 160.861C382.712 160.741 383.032 160.709 383.34 160.771C383.649 160.832 383.932 160.983 384.154 161.206C384.377 161.428 384.528 161.711 384.589 162.02C384.651 162.328 384.619 162.648 384.499 162.938C384.379 163.229 384.175 163.477 383.913 163.652C383.652 163.827 383.344 163.92 383.03 163.92C382.609 163.917 382.206 163.749 381.909 163.451C381.611 163.154 381.443 162.751 381.44 162.33Z" fill="white"/>
<path opacity="0.2" d="M371.44 162.33C371.44 162.016 371.533 161.708 371.708 161.447C371.883 161.185 372.131 160.981 372.421 160.861C372.712 160.741 373.032 160.709 373.34 160.771C373.649 160.832 373.932 160.983 374.154 161.206C374.377 161.428 374.528 161.711 374.589 162.02C374.651 162.328 374.619 162.648 374.499 162.938C374.379 163.229 374.175 163.477 373.913 163.652C373.652 163.827 373.344 163.92 373.03 163.92C372.609 163.917 372.206 163.749 371.909 163.451C371.611 163.154 371.443 162.751 371.44 162.33Z" fill="white"/>
<path opacity="0.4" d="M361.44 162.33C361.44 162.016 361.533 161.708 361.708 161.447C361.883 161.185 362.131 160.981 362.421 160.861C362.712 160.741 363.032 160.709 363.34 160.771C363.649 160.832 363.932 160.983 364.154 161.206C364.377 161.428 364.528 161.711 364.589 162.02C364.651 162.328 364.619 162.648 364.499 162.938C364.379 163.229 364.175 163.477 363.913 163.652C363.652 163.827 363.344 163.92 363.03 163.92C362.609 163.917 362.206 163.749 361.909 163.451C361.611 163.154 361.443 162.751 361.44 162.33Z" fill="white"/>
<path opacity="0.4" d="M381.44 146.16C381.44 145.845 381.533 145.538 381.708 145.277C381.883 145.015 382.131 144.811 382.421 144.691C382.712 144.571 383.032 144.539 383.34 144.601C383.649 144.662 383.932 144.813 384.154 145.036C384.377 145.258 384.528 145.541 384.589 145.85C384.651 146.158 384.619 146.478 384.499 146.768C384.379 147.059 384.175 147.307 383.913 147.482C383.652 147.657 383.344 147.75 383.03 147.75C382.821 147.75 382.614 147.709 382.421 147.629C382.229 147.549 382.053 147.432 381.906 147.284C381.758 147.137 381.641 146.961 381.561 146.768C381.481 146.576 381.44 146.369 381.44 146.16Z" fill="white"/>
<path opacity="0.2" d="M371.44 146.16C371.44 145.845 371.533 145.538 371.708 145.277C371.883 145.015 372.131 144.811 372.421 144.691C372.712 144.571 373.032 144.539 373.34 144.601C373.649 144.662 373.932 144.813 374.154 145.036C374.377 145.258 374.528 145.541 374.589 145.85C374.651 146.158 374.619 146.478 374.499 146.768C374.379 147.059 374.175 147.307 373.913 147.482C373.652 147.657 373.344 147.75 373.03 147.75C372.608 147.75 372.204 147.582 371.906 147.284C371.607 146.986 371.44 146.582 371.44 146.16Z" fill="white"/>
<path opacity="0.4" d="M361.44 146.16C361.44 145.845 361.533 145.538 361.708 145.277C361.883 145.015 362.131 144.811 362.421 144.691C362.712 144.571 363.032 144.539 363.34 144.601C363.649 144.662 363.932 144.813 364.154 145.036C364.377 145.258 364.528 145.541 364.589 145.85C364.651 146.158 364.619 146.478 364.499 146.768C364.379 147.059 364.175 147.307 363.913 147.482C363.652 147.657 363.344 147.75 363.03 147.75C362.608 147.75 362.204 147.582 361.906 147.284C361.607 146.986 361.44 146.582 361.44 146.16Z" fill="white"/>
<path opacity="0.2" d="M381.44 130C381.438 129.685 381.53 129.377 381.703 129.114C381.877 128.851 382.124 128.646 382.415 128.524C382.705 128.402 383.025 128.369 383.334 128.429C383.643 128.489 383.927 128.64 384.151 128.862C384.374 129.084 384.526 129.367 384.589 129.676C384.651 129.985 384.62 130.305 384.5 130.596C384.38 130.887 384.176 131.136 383.914 131.311C383.653 131.486 383.345 131.58 383.03 131.58C382.61 131.58 382.207 131.414 381.909 131.118C381.611 130.822 381.443 130.42 381.44 130Z" fill="white"/>
<path opacity="0.4" d="M371.44 130C371.438 129.685 371.53 129.377 371.703 129.114C371.877 128.851 372.124 128.646 372.415 128.524C372.705 128.402 373.025 128.369 373.334 128.429C373.643 128.489 373.927 128.64 374.151 128.862C374.374 129.084 374.526 129.367 374.589 129.676C374.651 129.985 374.62 130.305 374.5 130.596C374.38 130.887 374.176 131.136 373.914 131.311C373.653 131.486 373.345 131.58 373.03 131.58C372.61 131.58 372.207 131.414 371.909 131.118C371.611 130.822 371.443 130.42 371.44 130Z" fill="white"/>
<path opacity="0.2" d="M361.44 130C361.438 129.685 361.53 129.377 361.703 129.114C361.877 128.851 362.124 128.646 362.415 128.524C362.705 128.402 363.025 128.369 363.334 128.429C363.643 128.489 363.927 128.64 364.151 128.862C364.374 129.084 364.526 129.367 364.589 129.676C364.651 129.985 364.62 130.305 364.5 130.596C364.38 130.887 364.176 131.136 363.914 131.311C363.653 131.486 363.345 131.58 363.03 131.58C362.61 131.58 362.207 131.414 361.909 131.118C361.611 130.822 361.443 130.42 361.44 130Z" fill="white"/>
<path opacity="0.4" d="M381.44 113.83C381.44 113.516 381.533 113.208 381.708 112.947C381.883 112.685 382.131 112.481 382.421 112.361C382.712 112.241 383.032 112.209 383.34 112.271C383.649 112.332 383.932 112.483 384.154 112.706C384.377 112.928 384.528 113.211 384.589 113.52C384.651 113.828 384.619 114.148 384.499 114.438C384.379 114.729 384.175 114.977 383.913 115.152C383.652 115.327 383.344 115.42 383.03 115.42C382.608 115.42 382.204 115.252 381.906 114.954C381.607 114.656 381.44 114.252 381.44 113.83Z" fill="white"/>
<path opacity="0.2" d="M371.44 113.83C371.44 113.516 371.533 113.208 371.708 112.947C371.883 112.685 372.131 112.481 372.421 112.361C372.712 112.241 373.032 112.209 373.34 112.271C373.649 112.332 373.932 112.483 374.154 112.706C374.377 112.928 374.528 113.211 374.589 113.52C374.651 113.828 374.619 114.148 374.499 114.438C374.379 114.729 374.175 114.977 373.913 115.152C373.652 115.327 373.344 115.42 373.03 115.42C372.608 115.42 372.204 115.252 371.906 114.954C371.607 114.656 371.44 114.252 371.44 113.83Z" fill="white"/>
<path opacity="0.2" d="M361.44 113.83C361.44 113.516 361.533 113.208 361.708 112.947C361.883 112.685 362.131 112.481 362.421 112.361C362.712 112.241 363.032 112.209 363.34 112.271C363.649 112.332 363.932 112.483 364.154 112.706C364.377 112.928 364.528 113.211 364.589 113.52C364.651 113.828 364.619 114.148 364.499 114.438C364.379 114.729 364.175 114.977 363.913 115.152C363.652 115.327 363.344 115.42 363.03 115.42C362.608 115.42 362.204 115.252 361.906 114.954C361.607 114.656 361.44 114.252 361.44 113.83Z" fill="white"/>
<path opacity="0.2" d="M381.44 97.6599C381.44 97.3442 381.534 97.0356 381.71 96.7735C381.886 96.5114 382.136 96.3077 382.429 96.1883C382.721 96.0689 383.042 96.0392 383.351 96.103C383.661 96.1668 383.944 96.3213 384.165 96.5466C384.386 96.772 384.535 97.0581 384.593 97.3685C384.651 97.6789 384.615 97.9995 384.49 98.2895C384.365 98.5794 384.157 98.8256 383.891 98.9967C383.626 99.1677 383.316 99.2559 383 99.2499C382.583 99.242 382.187 99.0711 381.895 98.7737C381.603 98.4764 381.44 98.0765 381.44 97.6599Z" fill="white"/>
<path opacity="0.4" d="M371.44 97.6599C371.44 97.3442 371.534 97.0356 371.71 96.7735C371.886 96.5114 372.136 96.3077 372.429 96.1883C372.721 96.0689 373.042 96.0392 373.351 96.103C373.661 96.1668 373.944 96.3213 374.165 96.5466C374.386 96.772 374.535 97.0581 374.593 97.3685C374.651 97.6789 374.615 97.9995 374.49 98.2895C374.365 98.5794 374.157 98.8256 373.891 98.9967C373.626 99.1677 373.316 99.2559 373 99.2499C372.583 99.242 372.187 99.0711 371.895 98.7737C371.603 98.4764 371.44 98.0765 371.44 97.6599Z" fill="white"/>
<path opacity="0.4" d="M361.44 97.6599C361.44 97.3442 361.534 97.0356 361.71 96.7735C361.886 96.5114 362.136 96.3077 362.429 96.1883C362.721 96.0689 363.042 96.0392 363.351 96.103C363.661 96.1668 363.944 96.3213 364.165 96.5466C364.386 96.772 364.535 97.0581 364.593 97.3685C364.651 97.6789 364.615 97.9995 364.49 98.2895C364.365 98.5794 364.157 98.8256 363.891 98.9967C363.626 99.1677 363.316 99.2559 363 99.2499C362.583 99.242 362.187 99.0711 361.895 98.7737C361.603 98.4764 361.44 98.0765 361.44 97.6599Z" fill="white"/>
<path opacity="0.4" d="M381.44 81.49C381.44 81.1742 381.534 80.8657 381.71 80.6036C381.886 80.3415 382.136 80.1378 382.429 80.0184C382.721 79.899 383.042 79.8693 383.351 79.9331C383.661 79.9969 383.944 80.1513 384.165 80.3767C384.386 80.6021 384.535 80.8882 384.593 81.1986C384.651 81.509 384.615 81.8296 384.49 82.1195C384.365 82.4095 384.157 82.6557 383.891 82.8267C383.626 82.9978 383.316 83.0859 383 83.08C382.583 83.0721 382.187 82.9011 381.895 82.6038C381.603 82.3065 381.44 81.9065 381.44 81.49Z" fill="white"/>
<path opacity="0.2" d="M371.44 81.49C371.44 81.1742 371.534 80.8657 371.71 80.6036C371.886 80.3415 372.136 80.1378 372.429 80.0184C372.721 79.899 373.042 79.8693 373.351 79.9331C373.661 79.9969 373.944 80.1513 374.165 80.3767C374.386 80.6021 374.535 80.8882 374.593 81.1986C374.651 81.509 374.615 81.8296 374.49 82.1195C374.365 82.4095 374.157 82.6557 373.891 82.8267C373.626 82.9978 373.316 83.0859 373 83.08C372.583 83.0721 372.187 82.9011 371.895 82.6038C371.603 82.3065 371.44 81.9065 371.44 81.49Z" fill="white"/>
<path opacity="0.4" d="M361.44 81.49C361.44 81.1742 361.534 80.8657 361.71 80.6036C361.886 80.3415 362.136 80.1378 362.429 80.0184C362.721 79.899 363.042 79.8693 363.351 79.9331C363.661 79.9969 363.944 80.1513 364.165 80.3767C364.386 80.6021 364.535 80.8882 364.593 81.1986C364.651 81.509 364.615 81.8296 364.49 82.1195C364.365 82.4095 364.157 82.6557 363.891 82.8267C363.626 82.9978 363.316 83.0859 363 83.08C362.583 83.0721 362.187 82.9011 361.895 82.6038C361.603 82.3065 361.44 81.9065 361.44 81.49Z" fill="white"/>
<path d="M226.64 266.21H117.75V370.65H226.64V266.21Z" fill="#A28F7B"/>
<path opacity="0.4" d="M226.64 266.21H117.75V370.65H226.64V266.21Z" fill="white"/>
<path opacity="0.7" d="M226.63 266.21H152.41V370.65H226.63V266.21Z" fill="white"/>
<path d="M222.92 271.54H156.12V284.47H222.92V271.54Z" fill="#A28F7B"/>
<path d="M222.92 287.71H156.12V300.64H222.92V287.71Z" fill="#A28F7B"/>
<path d="M222.92 303.88H156.12V316.81H222.92V303.88Z" fill="#A28F7B"/>
<path d="M222.92 320.05H156.12V332.98H222.92V320.05Z" fill="#A28F7B"/>
<path d="M222.92 336.21H156.12V349.14H222.92V336.21Z" fill="#A28F7B"/>
<path d="M222.92 352.38H156.12V365.31H222.92V352.38Z" fill="#A28F7B"/>
<path d="M148.53 271.54H121.64V284.47H148.53V271.54Z" fill="#A28F7B"/>
<path d="M148.53 287.71H121.64V300.64H148.53V287.71Z" fill="#A28F7B"/>
<path d="M148.53 303.88H121.64V316.81H148.53V303.88Z" fill="#A28F7B"/>
<path d="M148.53 320.05H121.64V332.98H148.53V320.05Z" fill="#A28F7B"/>
<path d="M148.53 336.21H121.64V349.14H148.53V336.21Z" fill="#A28F7B"/>
<path d="M148.53 352.38H121.64V365.31H148.53V352.38Z" fill="#A28F7B"/>
<path opacity="0.4" d="M136.74 274.13H124.12V281.89H136.74V274.13Z" fill="#263238"/>
<path opacity="0.4" d="M136.74 290.3H124.12V298.06H136.74V290.3Z" fill="#263238"/>
<path opacity="0.4" d="M136.74 306.46H124.12V314.22H136.74V306.46Z" fill="#263238"/>
<path opacity="0.4" d="M136.74 322.63H124.12V330.39H136.74V322.63Z" fill="#263238"/>
<path opacity="0.4" d="M136.74 338.8H124.12V346.56H136.74V338.8Z" fill="#263238"/>
<path opacity="0.4" d="M136.74 354.97H124.12V362.73H136.74V354.97Z" fill="#263238"/>
<path opacity="0.7" d="M219.65 273.23H218.09V282.8H219.65V273.23Z" fill="white"/>
<path opacity="0.7" d="M216.65 273.23H215.09V282.8H216.65V273.23Z" fill="white"/>
<path opacity="0.7" d="M213.65 273.23H212.09V282.8H213.65V273.23Z" fill="white"/>
<path opacity="0.7" d="M210.65 273.23H209.09V282.8H210.65V273.23Z" fill="white"/>
<path opacity="0.7" d="M207.65 273.23H206.09V282.8H207.65V273.23Z" fill="white"/>
<path opacity="0.7" d="M219.65 289.39H218.09V298.95H219.65V289.39Z" fill="white"/>
<path opacity="0.7" d="M216.65 289.39H215.09V298.95H216.65V289.39Z" fill="white"/>
<path opacity="0.7" d="M213.65 289.39H212.09V298.95H213.65V289.39Z" fill="white"/>
<path opacity="0.7" d="M210.65 289.39H209.09V298.95H210.65V289.39Z" fill="white"/>
<path opacity="0.7" d="M207.65 289.39H206.09V298.95H207.65V289.39Z" fill="white"/>
<path opacity="0.7" d="M219.65 305.56H218.09V315.12H219.65V305.56Z" fill="white"/>
<path opacity="0.7" d="M216.65 305.56H215.09V315.12H216.65V305.56Z" fill="white"/>
<path opacity="0.7" d="M213.65 305.56H212.09V315.12H213.65V305.56Z" fill="white"/>
<path opacity="0.7" d="M210.65 305.56H209.09V315.12H210.65V305.56Z" fill="white"/>
<path opacity="0.7" d="M207.65 305.56H206.09V315.12H207.65V305.56Z" fill="white"/>
<path opacity="0.7" d="M219.65 321.73H218.09V331.3H219.65V321.73Z" fill="white"/>
<path opacity="0.7" d="M216.65 321.73H215.09V331.3H216.65V321.73Z" fill="white"/>
<path opacity="0.7" d="M213.65 321.73H212.09V331.3H213.65V321.73Z" fill="white"/>
<path opacity="0.7" d="M210.65 321.73H209.09V331.3H210.65V321.73Z" fill="white"/>
<path opacity="0.7" d="M207.65 321.73H206.09V331.3H207.65V321.73Z" fill="white"/>
<path opacity="0.7" d="M219.65 337.9H218.09V347.46H219.65V337.9Z" fill="white"/>
<path opacity="0.7" d="M216.65 337.9H215.09V347.46H216.65V337.9Z" fill="white"/>
<path opacity="0.7" d="M213.65 337.9H212.09V347.46H213.65V337.9Z" fill="white"/>
<path opacity="0.7" d="M210.65 337.9H209.09V347.46H210.65V337.9Z" fill="white"/>
<path opacity="0.7" d="M207.65 337.9H206.09V347.46H207.65V337.9Z" fill="white"/>
<path opacity="0.7" d="M219.65 354.07H218.09V363.64H219.65V354.07Z" fill="white"/>
<path opacity="0.7" d="M216.65 354.07H215.09V363.64H216.65V354.07Z" fill="white"/>
<path opacity="0.7" d="M213.65 354.07H212.09V363.64H213.65V354.07Z" fill="white"/>
<path opacity="0.7" d="M210.65 354.07H209.09V363.64H210.65V354.07Z" fill="white"/>
<path opacity="0.7" d="M207.65 354.07H206.09V363.64H207.65V354.07Z" fill="white"/>
<path opacity="0.2" d="M163.89 278C163.89 278.314 163.797 278.622 163.622 278.883C163.447 279.145 163.199 279.349 162.908 279.469C162.618 279.589 162.298 279.621 161.99 279.559C161.681 279.498 161.398 279.347 161.176 279.124C160.953 278.902 160.802 278.619 160.741 278.31C160.679 278.002 160.711 277.682 160.831 277.391C160.951 277.101 161.155 276.853 161.417 276.678C161.678 276.503 161.985 276.41 162.3 276.41C162.722 276.41 163.126 276.577 163.424 276.876C163.722 277.174 163.89 277.578 163.89 278Z" fill="white"/>
<path opacity="0.2" d="M173.89 278C173.89 278.314 173.797 278.622 173.622 278.883C173.447 279.145 173.199 279.349 172.908 279.469C172.618 279.589 172.298 279.621 171.99 279.559C171.681 279.498 171.398 279.347 171.176 279.124C170.953 278.902 170.802 278.619 170.741 278.31C170.679 278.002 170.711 277.682 170.831 277.391C170.951 277.101 171.155 276.853 171.417 276.678C171.678 276.503 171.985 276.41 172.3 276.41C172.722 276.41 173.126 276.577 173.424 276.876C173.722 277.174 173.89 277.578 173.89 278Z" fill="white"/>
<path opacity="0.4" d="M183.89 278C183.89 278.314 183.797 278.622 183.622 278.883C183.447 279.145 183.199 279.349 182.908 279.469C182.618 279.589 182.298 279.621 181.99 279.559C181.681 279.498 181.398 279.347 181.176 279.124C180.953 278.902 180.802 278.619 180.741 278.31C180.679 278.002 180.711 277.682 180.831 277.391C180.951 277.101 181.155 276.853 181.417 276.678C181.678 276.503 181.985 276.41 182.3 276.41C182.722 276.41 183.126 276.577 183.424 276.876C183.722 277.174 183.89 277.578 183.89 278Z" fill="white"/>
<path opacity="0.4" d="M163.89 294.18C163.89 294.494 163.797 294.802 163.622 295.063C163.447 295.325 163.199 295.529 162.908 295.649C162.618 295.769 162.298 295.801 161.99 295.739C161.681 295.678 161.398 295.527 161.176 295.304C160.953 295.082 160.802 294.799 160.741 294.49C160.679 294.182 160.711 293.862 160.831 293.572C160.951 293.281 161.155 293.033 161.417 292.858C161.678 292.683 161.985 292.59 162.3 292.59C162.722 292.59 163.126 292.757 163.424 293.056C163.722 293.354 163.89 293.758 163.89 294.18Z" fill="white"/>
<path opacity="0.2" d="M173.89 294.18C173.89 294.494 173.797 294.802 173.622 295.063C173.447 295.325 173.199 295.529 172.908 295.649C172.618 295.769 172.298 295.801 171.99 295.739C171.681 295.678 171.398 295.527 171.176 295.304C170.953 295.082 170.802 294.799 170.741 294.49C170.679 294.182 170.711 293.862 170.831 293.572C170.951 293.281 171.155 293.033 171.417 292.858C171.678 292.683 171.985 292.59 172.3 292.59C172.722 292.59 173.126 292.757 173.424 293.056C173.722 293.354 173.89 293.758 173.89 294.18Z" fill="white"/>
<path opacity="0.4" d="M183.89 294.18C183.89 294.494 183.797 294.802 183.622 295.063C183.447 295.325 183.199 295.529 182.908 295.649C182.618 295.769 182.298 295.801 181.99 295.739C181.681 295.678 181.398 295.527 181.176 295.304C180.953 295.082 180.802 294.799 180.741 294.49C180.679 294.182 180.711 293.862 180.831 293.572C180.951 293.281 181.155 293.033 181.417 292.858C181.678 292.683 181.985 292.59 182.3 292.59C182.722 292.59 183.126 292.757 183.424 293.056C183.722 293.354 183.89 293.758 183.89 294.18Z" fill="white"/>
<path opacity="0.2" d="M163.89 310.35C163.89 310.664 163.797 310.972 163.622 311.233C163.447 311.495 163.199 311.699 162.908 311.819C162.618 311.939 162.298 311.971 161.99 311.909C161.681 311.848 161.398 311.697 161.176 311.474C160.953 311.252 160.802 310.969 160.741 310.66C160.679 310.352 160.711 310.032 160.831 309.741C160.951 309.451 161.155 309.203 161.417 309.028C161.678 308.853 161.985 308.76 162.3 308.76C162.722 308.76 163.126 308.927 163.424 309.226C163.722 309.524 163.89 309.928 163.89 310.35Z" fill="white"/>
<path opacity="0.4" d="M173.89 310.35C173.89 310.664 173.797 310.972 173.622 311.233C173.447 311.495 173.199 311.699 172.908 311.819C172.618 311.939 172.298 311.971 171.99 311.909C171.681 311.848 171.398 311.697 171.176 311.474C170.953 311.252 170.802 310.969 170.741 310.66C170.679 310.352 170.711 310.032 170.831 309.741C170.951 309.451 171.155 309.203 171.417 309.028C171.678 308.853 171.985 308.76 172.3 308.76C172.722 308.76 173.126 308.927 173.424 309.226C173.722 309.524 173.89 309.928 173.89 310.35Z" fill="white"/>
<path opacity="0.2" d="M183.89 310.35C183.89 310.664 183.797 310.972 183.622 311.233C183.447 311.495 183.199 311.699 182.908 311.819C182.618 311.939 182.298 311.971 181.99 311.909C181.681 311.848 181.398 311.697 181.176 311.474C180.953 311.252 180.802 310.969 180.741 310.66C180.679 310.352 180.711 310.032 180.831 309.741C180.951 309.451 181.155 309.203 181.417 309.028C181.678 308.853 181.985 308.76 182.3 308.76C182.722 308.76 183.126 308.927 183.424 309.226C183.722 309.524 183.89 309.928 183.89 310.35Z" fill="white"/>
<path opacity="0.4" d="M163.89 326.51C163.892 326.825 163.8 327.133 163.627 327.396C163.453 327.659 163.206 327.864 162.915 327.986C162.625 328.108 162.305 328.141 161.996 328.081C161.687 328.02 161.403 327.87 161.179 327.648C160.956 327.426 160.803 327.143 160.741 326.834C160.679 326.525 160.71 326.205 160.83 325.914C160.95 325.623 161.154 325.374 161.416 325.199C161.677 325.023 161.985 324.93 162.3 324.93C162.72 324.93 163.123 325.096 163.421 325.392C163.719 325.688 163.887 326.09 163.89 326.51Z" fill="white"/>
<path opacity="0.2" d="M173.89 326.51C173.892 326.825 173.8 327.133 173.627 327.396C173.453 327.659 173.206 327.864 172.915 327.986C172.625 328.108 172.305 328.141 171.996 328.081C171.687 328.02 171.403 327.87 171.179 327.648C170.956 327.426 170.803 327.143 170.741 326.834C170.679 326.525 170.71 326.205 170.83 325.914C170.95 325.623 171.154 325.374 171.416 325.199C171.677 325.023 171.985 324.93 172.3 324.93C172.72 324.93 173.123 325.096 173.421 325.392C173.719 325.688 173.887 326.09 173.89 326.51Z" fill="white"/>
<path opacity="0.2" d="M183.89 326.51C183.892 326.825 183.8 327.133 183.627 327.396C183.453 327.659 183.206 327.864 182.915 327.986C182.625 328.108 182.305 328.141 181.996 328.081C181.687 328.02 181.403 327.87 181.179 327.648C180.956 327.426 180.803 327.143 180.741 326.834C180.679 326.525 180.71 326.205 180.83 325.914C180.95 325.623 181.154 325.374 181.416 325.199C181.677 325.023 181.985 324.93 182.3 324.93C182.72 324.93 183.123 325.096 183.421 325.392C183.719 325.688 183.887 326.09 183.89 326.51Z" fill="white"/>
<path opacity="0.2" d="M163.89 342.68C163.89 342.994 163.797 343.302 163.622 343.563C163.447 343.825 163.199 344.029 162.908 344.149C162.618 344.269 162.298 344.301 161.99 344.239C161.681 344.178 161.398 344.027 161.176 343.804C160.953 343.582 160.802 343.299 160.741 342.99C160.679 342.682 160.711 342.362 160.831 342.072C160.951 341.781 161.155 341.533 161.417 341.358C161.678 341.183 161.985 341.09 162.3 341.09C162.722 341.09 163.126 341.257 163.424 341.556C163.722 341.854 163.89 342.258 163.89 342.68Z" fill="white"/>
<path opacity="0.4" d="M173.89 342.68C173.89 342.994 173.797 343.302 173.622 343.563C173.447 343.825 173.199 344.029 172.908 344.149C172.618 344.269 172.298 344.301 171.99 344.239C171.681 344.178 171.398 344.027 171.176 343.804C170.953 343.582 170.802 343.299 170.741 342.99C170.679 342.682 170.711 342.362 170.831 342.072C170.951 341.781 171.155 341.533 171.417 341.358C171.678 341.183 171.985 341.09 172.3 341.09C172.722 341.09 173.126 341.257 173.424 341.556C173.722 341.854 173.89 342.258 173.89 342.68Z" fill="white"/>
<path opacity="0.4" d="M183.89 342.68C183.89 342.994 183.797 343.302 183.622 343.563C183.447 343.825 183.199 344.029 182.908 344.149C182.618 344.269 182.298 344.301 181.99 344.239C181.681 344.178 181.398 344.027 181.176 343.804C180.953 343.582 180.802 343.299 180.741 342.99C180.679 342.682 180.711 342.362 180.831 342.072C180.951 341.781 181.155 341.533 181.417 341.358C181.678 341.183 181.985 341.09 182.3 341.09C182.722 341.09 183.126 341.257 183.424 341.556C183.722 341.854 183.89 342.258 183.89 342.68Z" fill="white"/>
<path opacity="0.4" d="M163.89 358.85C163.89 359.164 163.797 359.472 163.622 359.733C163.447 359.995 163.199 360.199 162.908 360.319C162.618 360.439 162.298 360.471 161.99 360.409C161.681 360.348 161.398 360.197 161.176 359.974C160.953 359.752 160.802 359.469 160.741 359.16C160.679 358.852 160.711 358.532 160.831 358.241C160.951 357.951 161.155 357.703 161.417 357.528C161.678 357.353 161.985 357.26 162.3 357.26C162.722 357.26 163.126 357.427 163.424 357.726C163.722 358.024 163.89 358.428 163.89 358.85Z" fill="white"/>
<path opacity="0.2" d="M173.89 358.85C173.89 359.164 173.797 359.472 173.622 359.733C173.447 359.995 173.199 360.199 172.908 360.319C172.618 360.439 172.298 360.471 171.99 360.409C171.681 360.348 171.398 360.197 171.176 359.974C170.953 359.752 170.802 359.469 170.741 359.16C170.679 358.852 170.711 358.532 170.831 358.241C170.951 357.951 171.155 357.703 171.417 357.528C171.678 357.353 171.985 357.26 172.3 357.26C172.722 357.26 173.126 357.427 173.424 357.726C173.722 358.024 173.89 358.428 173.89 358.85Z" fill="white"/>
<path opacity="0.4" d="M183.89 358.85C183.89 359.164 183.797 359.472 183.622 359.733C183.447 359.995 183.199 360.199 182.908 360.319C182.618 360.439 182.298 360.471 181.99 360.409C181.681 360.348 181.398 360.197 181.176 359.974C180.953 359.752 180.802 359.469 180.741 359.16C180.679 358.852 180.711 358.532 180.831 358.241C180.951 357.951 181.155 357.703 181.417 357.528C181.678 357.353 181.985 357.26 182.3 357.26C182.722 357.26 183.126 357.427 183.424 357.726C183.722 358.024 183.89 358.428 183.89 358.85Z" fill="white"/>
<path d="M386.51 174.13H384.51V265.75H386.51V174.13Z" fill="#A28F7B"/>
<path opacity="0.7" d="M327.33 319.43H316.13V317.43H327.33V319.43ZM304.13 319.43H292.13V317.43H304.13V319.43ZM280.13 319.43H268.13V317.43H280.13V319.43ZM256.13 319.43H244.13V317.43H256.13V319.43Z" fill="#A28F7B"/>
<path d="M352.67 262.48L338.24 333.26C338.081 334.035 338.129 334.838 338.38 335.588C338.63 336.338 339.073 337.009 339.666 337.533C340.258 338.057 340.978 338.416 341.753 338.574C342.528 338.731 343.33 338.682 344.08 338.43L412.59 315.54C413.34 315.29 414.011 314.847 414.536 314.256C415.06 313.664 415.419 312.945 415.578 312.171C415.736 311.396 415.687 310.594 415.436 309.844C415.186 309.094 414.742 308.424 414.15 307.9L360.07 260C359.477 259.477 358.757 259.12 357.982 258.963C357.207 258.807 356.405 258.856 355.656 259.108C354.906 259.359 354.236 259.802 353.712 260.394C353.188 260.986 352.829 261.705 352.67 262.48Z" fill="#A28F7B"/>
<path d="M346.73 327.16L358.1 271.42C358.165 271.107 358.312 270.816 358.525 270.577C358.737 270.338 359.009 270.159 359.313 270.058C359.616 269.957 359.941 269.937 360.255 270C360.568 270.064 360.86 270.209 361.1 270.42L403.69 308.13C403.929 308.345 404.107 308.618 404.207 308.923C404.307 309.228 404.326 309.554 404.261 309.868C404.196 310.183 404.051 310.475 403.838 310.715C403.626 310.956 403.354 311.137 403.05 311.24L349.1 329.24C348.798 329.336 348.475 329.353 348.165 329.288C347.854 329.223 347.566 329.079 347.327 328.87C347.088 328.661 346.908 328.393 346.804 328.093C346.699 327.794 346.674 327.472 346.73 327.16Z" fill="white"/>
<path d="M360.49 288.08L362.06 292.79L362.15 293.01L367.49 304.22C367.705 304.645 368.065 304.98 368.505 305.163C368.945 305.346 369.436 305.367 369.89 305.22L371.98 304.52C372.429 304.361 372.807 304.047 373.045 303.635C373.283 303.222 373.367 302.738 373.28 302.27L370.84 290.09L370.78 289.85L369.2 285.14C369.027 284.653 368.672 284.252 368.21 284.02C367.747 283.789 367.213 283.746 366.72 283.9L361.72 285.57C361.228 285.745 360.824 286.105 360.594 286.574C360.364 287.043 360.327 287.584 360.49 288.08Z" fill="#263238"/>
<path d="M376.36 309.88C376.581 310.544 376.6 311.259 376.415 311.934C376.23 312.609 375.849 313.214 375.32 313.673C374.791 314.131 374.138 314.423 373.443 314.51C372.749 314.597 372.044 314.477 371.418 314.164C370.792 313.851 370.272 313.359 369.926 312.751C369.579 312.143 369.42 311.446 369.47 310.748C369.519 310.049 369.775 309.381 370.204 308.828C370.633 308.275 371.216 307.862 371.88 307.64C372.321 307.493 372.787 307.434 373.251 307.467C373.715 307.499 374.168 307.623 374.584 307.831C375 308.039 375.371 308.327 375.676 308.679C375.981 309.03 376.213 309.439 376.36 309.88Z" fill="#263238"/>
<path d="M166.83 126.86C161.83 128.3 138.97 149.97 150.59 161.19C162.21 172.41 188.45 173.91 194.96 167.25C201.47 160.59 202.54 144.12 194.96 130.08C190.27 121.39 166.83 117.19 166.83 126.86Z" fill="#263238"/>
<path opacity="0.5" d="M166.83 126.86C161.83 128.3 138.97 149.97 150.59 161.19C162.21 172.41 188.45 173.91 194.96 167.25C201.47 160.59 202.54 144.12 194.96 130.08C190.27 121.39 166.83 117.19 166.83 126.86Z" fill="white"/>
<path d="M200.31 188.18V189.62C200.31 190.16 200.31 190.72 200.31 191.28C200.31 192.41 200.45 193.54 200.59 194.67C200.855 196.924 201.279 199.156 201.86 201.35C202.439 203.516 203.199 205.63 204.13 207.67C204.6 208.67 205.13 209.67 205.68 210.61C205.94 211.1 206.25 211.56 206.54 212.03C206.68 212.27 206.85 212.49 207.01 212.72L207.43 213.33C207.43 213.39 207.32 213.27 207.04 213.18C206.831 213.093 206.6 213.075 206.38 213.13C206.22 213.25 206.91 213.13 207.65 212.75C209.521 211.669 211.242 210.348 212.77 208.82C216.317 205.354 219.656 201.681 222.77 197.82L222.83 197.74C223.304 197.217 223.947 196.878 224.646 196.782C225.345 196.686 226.056 196.84 226.653 197.216C227.25 197.592 227.695 198.167 227.91 198.839C228.126 199.51 228.097 200.237 227.83 200.89C226.706 203.359 225.444 205.763 224.05 208.09C222.645 210.465 221.092 212.749 219.4 214.93C218.508 216.072 217.554 217.164 216.54 218.2C215.435 219.363 214.216 220.412 212.9 221.33C211.13 222.598 209.064 223.39 206.9 223.63C205.374 223.766 203.838 223.508 202.44 222.88C201.131 222.285 199.967 221.411 199.03 220.32L198.26 219.4C198.02 219.12 197.77 218.83 197.55 218.53C197.1 217.94 196.64 217.35 196.22 216.73C195.356 215.513 194.568 214.244 193.86 212.93C193.13 211.63 192.5 210.29 191.86 208.93C191.22 207.57 190.78 206.18 190.33 204.77C189.446 201.976 188.817 199.108 188.45 196.2C188.28 194.75 188.16 193.29 188.1 191.82C188.1 191.08 188.1 190.34 188.1 189.59V188.44V187.85L188.16 187.13C188.238 185.539 188.946 184.044 190.126 182.974C191.307 181.904 192.864 181.347 194.455 181.425C196.046 181.503 197.541 182.21 198.611 183.391C199.681 184.571 200.238 186.129 200.16 187.72L200.31 188.18Z" fill="#B5876D"/>
<path d="M238.29 194.39L236.2 193.56C234.817 192.99 233.264 192.99 231.88 193.56L224.05 196.87L222.05 200.48C224.94 205.1 229.99 202.72 229.99 202.72L234.91 203.09C235.372 203.123 235.834 203.025 236.242 202.808C236.651 202.59 236.99 202.262 237.22 201.86L239.52 197.86C239.69 197.556 239.793 197.219 239.823 196.872C239.852 196.524 239.807 196.175 239.691 195.847C239.574 195.518 239.389 195.218 239.148 194.967C238.906 194.716 238.614 194.519 238.29 194.39Z" fill="#B5876D"/>
<path d="M196.45 178.27C200.09 180.5 203.83 196.36 203.83 196.36L188.1 204.36C188.1 204.36 181.4 187.23 184.53 182.64C187.78 177.85 191.13 175 196.45 178.27Z" fill="#263238"/>
<path opacity="0.2" d="M199.49 190.2C200.211 192.953 200.19 195.848 199.43 198.59L188.1 204.34C188.1 204.34 184.19 194.34 183.74 187.57C187.76 183.63 197 183.12 199.49 190.2Z" fill="black"/>
<path d="M199 185.65C198.47 193.65 196.28 214.6 191.4 227.16C190.01 230.74 195.07 232.64 189.52 236.16L150.08 233.97C146.75 231.22 149.71 227.5 149.48 225.69C147.48 210.61 150.4 205.94 146.48 172.81C152.245 171.965 158.064 171.544 163.89 171.55C170.065 171.468 176.238 171.833 182.36 172.64C185.02 173.04 187.79 173.58 190.3 174.11C192.892 174.672 195.196 176.147 196.793 178.264C198.39 180.382 199.173 183.003 199 185.65Z" fill="#263238"/>
<path opacity="0.2" d="M148.05 188.69C150.247 190.367 151.97 192.586 153.05 195.13C154.75 199.38 150.31 207.56 148.69 210.3C148.75 204.9 148.81 198.65 148.05 188.69Z" fill="black"/>
<path d="M179.48 180.39C179.48 180.39 172.76 185.89 172.17 191.75C166.09 187.08 159.09 176.88 163.88 171.52C168.91 170.26 179.48 180.39 179.48 180.39Z" fill="#A28F7B"/>
<path d="M180.34 182.13C180.34 182.13 185.51 186.55 185.59 191.75C188.99 187.25 188.99 176 182.35 172.61C177.31 171.35 180.34 182.13 180.34 182.13Z" fill="#A28F7B"/>
<path d="M215.55 319.6L224.11 324.11L236.47 303.4L227.91 298.89L215.55 319.6Z" fill="#7F3E3B"/>
<path d="M225.34 321.86L220.34 311.77C220.257 311.587 220.107 311.443 219.921 311.367C219.736 311.291 219.528 311.289 219.34 311.36L210.78 314.18C210.567 314.257 210.373 314.379 210.211 314.537C210.048 314.695 209.921 314.886 209.838 315.097C209.755 315.308 209.717 315.534 209.728 315.76C209.739 315.987 209.797 316.208 209.9 316.41C211.71 319.9 212.76 321.49 214.96 325.93C216.32 328.66 218.15 334.63 220.02 338.4C221.89 342.17 225.73 340.52 225.28 338.78C223.28 330.98 224.7 327 225.52 323.64C225.668 323.044 225.605 322.415 225.34 321.86Z" fill="#263238"/>
<g opacity="0.2">
<path d="M227.9 298.89L236.47 303.4L229.09 315.76L221.18 310.15L227.9 298.89Z" fill="black"/>
</g>
<path d="M183.53 236.08C183.53 236.08 243.86 227.6 249.31 245.43C259.55 278.91 234 312.1 234 312.1L222.26 305.67C222.26 305.67 234.63 278.01 230.21 261.49C218.77 258.3 163.21 284.49 163 243.16C162.922 242.316 163.15 241.472 163.645 240.783C164.139 240.094 164.865 239.606 165.69 239.41L183.53 236.08Z" fill="#A28F7B"/>
<g opacity="0.3">
<path d="M183.53 236.08C183.53 236.08 243.86 227.6 249.31 245.43C259.55 278.91 234 312.1 234 312.1L222.26 305.67C222.26 305.67 234.63 278.01 230.21 261.49C218.77 258.3 163.21 284.49 163 243.16C162.922 242.316 163.15 241.472 163.645 240.783C164.139 240.094 164.865 239.606 165.69 239.41L183.53 236.08Z" fill="white"/>
</g>
<path d="M219.96 305.74L233.93 315.39L237.89 310.76L222.53 299.93L219.96 305.74Z" fill="#A28F7B"/>
<path d="M226.51 327.15L226.62 327.2C226.839 327.277 227.073 327.298 227.302 327.261C227.531 327.225 227.747 327.131 227.93 326.99C228.052 326.915 228.152 326.809 228.219 326.682C228.286 326.555 228.317 326.413 228.31 326.27C228.31 324.99 225.15 323.14 224.8 322.93C224.76 322.903 224.713 322.888 224.665 322.888C224.617 322.888 224.57 322.903 224.53 322.93C224.494 322.96 224.467 322.999 224.451 323.043C224.435 323.087 224.431 323.134 224.44 323.18C224.74 324.45 225.39 326.6 226.51 327.15ZM225.05 323.64C226.27 324.42 227.81 325.64 227.84 326.29C227.839 326.353 227.822 326.414 227.79 326.468C227.759 326.522 227.714 326.568 227.66 326.6C227.54 326.698 227.398 326.763 227.246 326.791C227.094 326.819 226.937 326.809 226.79 326.76C226.14 326.51 225.51 325.36 225.05 323.64Z" fill="#A28F7B"/>
<path d="M224.87 323.51C225.98 324.07 228.3 324.51 229.12 323.91C229.265 323.793 229.367 323.631 229.408 323.45C229.45 323.268 229.43 323.078 229.35 322.91C229.293 322.737 229.198 322.579 229.072 322.447C228.945 322.316 228.791 322.214 228.62 322.15C227.27 321.6 224.68 322.88 224.57 322.93C224.532 322.947 224.499 322.975 224.476 323.011C224.453 323.046 224.44 323.088 224.44 323.13C224.437 323.171 224.444 323.212 224.462 323.249C224.479 323.285 224.506 323.317 224.54 323.34C224.646 323.405 224.756 323.462 224.87 323.51ZM228.51 322.61C228.696 322.703 228.84 322.864 228.91 323.06C229.01 323.35 228.91 323.46 228.83 323.53C228.27 323.96 226.31 323.67 225.2 323.15C226.09 322.77 227.64 322.25 228.44 322.58L228.51 322.61Z" fill="#A28F7B"/>
<path d="M149.63 231.52L148.38 235.1C148.22 235.37 148.54 235.68 149.01 235.71L190.87 238.17C191.24 238.17 191.55 238.03 191.59 237.8L192.17 234.19C192.17 233.93 191.9 233.7 191.5 233.68L150.31 231.25C150.183 231.231 150.053 231.246 149.934 231.294C149.814 231.341 149.71 231.419 149.63 231.52Z" fill="#A28F7B"/>
<path d="M155 236.46L153.9 236.39C153.68 236.39 153.51 236.26 153.54 236.12L154.33 231.42C154.33 231.28 154.56 231.18 154.78 231.19L155.88 231.26C156.1 231.26 156.26 231.39 156.24 231.53L155.44 236.23C155.45 236.37 155.25 236.47 155 236.46Z" fill="#263238"/>
<path d="M187.75 238.39L186.64 238.32C186.42 238.32 186.26 238.18 186.29 238.05L187.08 233.35C187.08 233.21 187.3 233.11 187.52 233.12L188.63 233.19C188.85 233.19 189.01 233.32 188.98 233.46L188.19 238.16C188.17 238.3 188 238.4 187.75 238.39Z" fill="#263238"/>
<path d="M171.46 237.43L170.35 237.36C170.13 237.36 169.97 237.22 170 237.09L170.79 232.39C170.79 232.25 171.01 232.15 171.23 232.16L172.34 232.23C172.56 232.23 172.72 232.36 172.69 232.5L171.9 237.2C171.87 237.34 171.68 237.44 171.46 237.43Z" fill="#263238"/>
<path d="M166.8 153.06C167.62 159.06 168.27 167.8 163.88 171.52C169.309 175.053 174.086 179.499 178 184.66C178.169 184.878 178.388 185.052 178.639 185.168C178.889 185.283 179.164 185.337 179.439 185.324C179.715 185.312 179.983 185.233 180.222 185.094C180.46 184.956 180.662 184.763 180.81 184.53C185.89 176.53 182.34 172.61 182.34 172.61C178.47 171.75 178.94 168.3 180.34 163.75L166.8 153.06Z" fill="#B5876D"/>
<path d="M183.2 174.27C183.8 176.12 184 179.53 180.82 184.53C180.672 184.763 180.47 184.956 180.232 185.094C179.993 185.233 179.725 185.311 179.449 185.324C179.174 185.337 178.899 185.283 178.649 185.168C178.398 185.052 178.179 184.878 178.01 184.66C174.839 180.573 171.163 176.904 167.07 173.74C171.2 174.91 177 180.6 179.48 183.36C181.23 182 183.26 176.88 183.2 174.27Z" fill="white"/>
<path opacity="0.2" d="M170.54 157.69L178.06 161.92L180.38 163.75C179.64 165.633 179.3 167.649 179.38 169.67C174.47 168.27 168.84 161.73 170.54 157.69Z" fill="black"/>
<path d="M167 139C165.42 148.83 164.54 153 168.32 159C174.01 168.14 186.43 167.92 190.91 158.76C194.91 150.52 196.91 135.83 188.23 129.84C186.332 128.51 184.125 127.688 181.82 127.452C179.514 127.217 177.186 127.575 175.058 128.493C172.93 129.411 171.072 130.859 169.662 132.698C168.251 134.537 167.335 136.707 167 139Z" fill="#B5876D"/>
<path d="M194.75 139.41C193.5 134.08 194.12 125.08 184.06 125.58C174.7 126.05 169 124.64 169.06 130.02C158.72 135.08 158.06 140.31 165.33 145.26C170.85 146.59 172.26 140.26 171.63 135.06C175.63 137.39 183.24 134.06 186.81 134.16C191.42 134.33 196 144.75 194.75 139.41Z" fill="#263238"/>
<path opacity="0.5" d="M194.75 139.41C193.5 134.08 194.12 125.08 184.06 125.58C174.7 126.05 169 124.64 169.06 130.02C158.72 135.08 158.06 140.31 165.33 145.26C170.85 146.59 172.26 140.26 171.63 135.06C175.63 137.39 183.24 134.06 186.81 134.16C191.42 134.33 196 144.75 194.75 139.41Z" fill="white"/>
<path opacity="0.2" d="M179.35 144.54C177.913 144.552 176.502 144.157 175.28 143.4C176.685 143.583 178.055 143.967 179.35 144.54Z" fill="black"/>
<path opacity="0.2" d="M179.59 143.85C179.59 143.85 177.26 143.53 176.32 142.2C177.498 142.554 178.605 143.113 179.59 143.85Z" fill="black"/>
<path d="M181.89 145.05C181.72 145.84 181.99 146.58 182.51 146.69C183.03 146.8 183.59 146.26 183.76 145.47C183.93 144.68 183.67 143.95 183.15 143.83C182.63 143.71 182.07 144.26 181.89 145.05Z" fill="#263238"/>
<path d="M190.82 147.06C190.64 147.85 190.92 148.58 191.43 148.7C191.94 148.82 192.51 148.26 192.69 147.47C192.87 146.68 192.59 145.95 192.08 145.84C191.57 145.73 191 146.27 190.82 147.06Z" fill="#263238"/>
<path d="M191.84 145.83L193.84 145.71C193.84 145.71 192.55 147 191.84 145.83Z" fill="#263238"/>
<path d="M187.75 147.86C188.05 149.817 188.615 151.725 189.43 153.53C188.964 153.728 188.46 153.822 187.954 153.805C187.448 153.787 186.951 153.659 186.5 153.43L187.75 147.86Z" fill="#855E47"/>
<path d="M182.47 154C182.078 153.917 181.68 153.867 181.28 153.85C181.249 153.849 181.218 153.854 181.189 153.865C181.16 153.876 181.133 153.892 181.111 153.914C181.088 153.935 181.071 153.961 181.058 153.99C181.046 154.018 181.04 154.049 181.04 154.08C181.037 154.111 181.041 154.142 181.051 154.172C181.06 154.202 181.076 154.229 181.096 154.252C181.117 154.276 181.142 154.295 181.17 154.308C181.198 154.321 181.229 154.329 181.26 154.33C182.266 154.357 183.252 154.619 184.14 155.095C185.027 155.57 185.791 156.247 186.37 157.07C186.383 157.099 186.403 157.124 186.427 157.144C186.451 157.165 186.479 157.18 186.509 157.188C186.54 157.197 186.572 157.199 186.603 157.194C186.634 157.189 186.664 157.177 186.69 157.16C186.744 157.127 186.784 157.074 186.8 157.013C186.817 156.952 186.81 156.886 186.78 156.83C186.285 156.096 185.649 155.468 184.909 154.982C184.169 154.497 183.34 154.163 182.47 154Z" fill="#263238"/>
<path d="M162.75 146.17C163.059 148.071 164.104 149.774 165.66 150.91C167.73 152.39 169.66 150.75 169.79 148.34C169.92 146.16 169.01 142.77 166.58 142.24C164.15 141.71 162.41 143.83 162.75 146.17Z" fill="#B5876D"/>
<path d="M181.3 138.36C181.382 138.419 181.48 138.45 181.58 138.45C181.681 138.45 181.779 138.419 181.86 138.36C183.67 137.11 186.34 138.07 186.36 138.08C186.478 138.122 186.608 138.117 186.722 138.064C186.836 138.012 186.925 137.917 186.97 137.8C186.993 137.742 187.003 137.679 187.001 137.617C186.999 137.554 186.985 137.493 186.958 137.436C186.932 137.379 186.895 137.328 186.849 137.286C186.803 137.244 186.749 137.211 186.69 137.19C186.56 137.19 183.53 136.05 181.32 137.58C181.218 137.653 181.148 137.762 181.126 137.886C181.103 138.009 181.13 138.136 181.2 138.24C181.227 138.285 181.261 138.325 181.3 138.36Z" fill="#263238"/>
<path d="M192.32 142.62C192.239 142.633 192.162 142.666 192.097 142.717C192.033 142.767 191.982 142.834 191.95 142.91C191.907 143.028 191.911 143.159 191.961 143.274C192.011 143.39 192.104 143.481 192.22 143.53C192.916 143.824 193.672 143.947 194.425 143.89C195.178 143.833 195.907 143.596 196.55 143.2C196.651 143.126 196.719 143.016 196.739 142.892C196.76 142.769 196.731 142.643 196.66 142.54C196.625 142.488 196.58 142.444 196.528 142.41C196.475 142.376 196.417 142.353 196.355 142.342C196.294 142.33 196.231 142.332 196.17 142.345C196.109 142.359 196.051 142.384 196 142.42C195.487 142.725 194.908 142.904 194.312 142.942C193.715 142.981 193.119 142.877 192.57 142.64C192.491 142.609 192.404 142.602 192.32 142.62Z" fill="#263238"/>
<path d="M229.02 352.33L238.24 349.42L232.22 326.06L222.99 328.97L229.02 352.33Z" fill="#7F3E3B"/>
<path d="M237.51 347L226.81 343.47C226.625 343.395 226.419 343.393 226.233 343.466C226.047 343.538 225.895 343.679 225.81 343.86L221.81 351.93C221.717 352.139 221.668 352.365 221.669 352.593C221.669 352.822 221.719 353.048 221.813 353.256C221.908 353.464 222.046 353.65 222.218 353.8C222.39 353.951 222.592 354.063 222.81 354.13C226.56 355.3 228.43 355.67 233.14 357.23C236.03 358.18 241.56 361.08 245.55 362.4C249.54 363.72 251.07 359.83 249.55 358.93C242.61 354.85 240.77 351.06 238.95 348.11C238.617 347.581 238.107 347.188 237.51 347Z" fill="#263238"/>
<g opacity="0.2">
<path d="M222.99 328.98L232.22 326.07L235.81 340L226.26 341.68L222.99 328.98Z" fill="black"/>
</g>
<path d="M169.79 235.19C169.79 235.19 225.53 239.02 226.54 257.63C228.42 292.63 236.64 333.97 236.64 333.97L223.81 337.79C223.81 337.79 207.09 295.79 204.09 268.61C193.75 262.76 143.09 283.13 148.09 237.12C148.181 236.264 148.597 235.476 149.252 234.918C149.907 234.36 150.751 234.074 151.61 234.12L169.79 235.19Z" fill="#A28F7B"/>
<g opacity="0.4">
<path d="M169.79 235.19C169.79 235.19 225.53 239.02 226.54 257.63C228.42 292.63 236.64 333.97 236.64 333.97L223.81 337.79C223.81 337.79 207.09 295.79 204.09 268.61C193.75 262.76 143.09 283.13 148.09 237.12C148.181 236.264 148.597 235.476 149.252 234.918C149.907 234.36 150.751 234.074 151.61 234.12L169.79 235.19Z" fill="white"/>
</g>
<path d="M222.26 339.44L238.95 336.3L238.45 330.23L219.95 333.53L222.26 339.44Z" fill="#A28F7B"/>
<path d="M242.09 349.85H242.2C242.411 349.752 242.593 349.601 242.728 349.412C242.863 349.223 242.946 349.001 242.97 348.77C243.006 348.63 243.003 348.484 242.96 348.346C242.918 348.208 242.838 348.085 242.73 347.99C241.79 347.12 238.28 347.99 237.88 348.14C237.835 348.149 237.794 348.172 237.763 348.206C237.732 348.241 237.714 348.284 237.71 348.33C237.704 348.376 237.711 348.423 237.731 348.466C237.75 348.508 237.781 348.544 237.82 348.57C238.92 349.21 240.91 350.26 242.09 349.85ZM238.57 348.42C239.98 348.1 241.92 347.84 242.41 348.3C242.457 348.344 242.491 348.399 242.509 348.461C242.527 348.523 242.527 348.588 242.51 348.65C242.495 348.803 242.441 348.949 242.354 349.075C242.266 349.201 242.148 349.303 242.01 349.37C241.38 349.66 240.12 349.3 238.57 348.42Z" fill="#A28F7B"/>
<path d="M238.35 348.46C239.53 348.05 241.5 346.75 241.62 345.72C241.644 345.532 241.602 345.342 241.502 345.182C241.402 345.022 241.249 344.901 241.07 344.84C240.913 344.771 240.743 344.735 240.57 344.735C240.398 344.735 240.228 344.771 240.07 344.84C238.73 345.42 237.81 348.16 237.77 348.27C237.756 348.311 237.754 348.355 237.762 348.397C237.771 348.439 237.791 348.478 237.82 348.51C237.847 348.541 237.882 348.564 237.92 348.576C237.959 348.589 238.001 348.59 238.04 348.58C238.147 348.549 238.251 348.509 238.35 348.46ZM240.27 345.23C240.365 345.188 240.467 345.167 240.57 345.167C240.674 345.167 240.776 345.188 240.87 345.23C241.14 345.36 241.16 345.51 241.15 345.62C241.07 346.32 239.47 347.5 238.33 347.93C238.68 347.03 239.41 345.56 240.2 345.22L240.27 345.23Z" fill="#A28F7B"/>
<path d="M182.91 143.83L184.91 143.71C184.91 143.71 183.63 145 182.91 143.83Z" fill="#263238"/>
<path d="M151.71 187.49C150.71 190.42 149.71 193.56 148.78 196.63C147.85 199.7 146.96 202.82 146.1 205.92C145.24 209.02 144.5 212.13 143.79 215.24C143.08 218.35 142.5 221.47 142.04 224.56C141.676 227.512 141.578 230.491 141.75 233.46C141.9 236.6 142.11 239.82 142.44 243.05C143.07 249.5 143.86 256.05 144.68 262.55V262.61C144.742 263.33 144.541 264.048 144.115 264.633C143.69 265.217 143.067 265.627 142.363 265.789C141.658 265.951 140.919 265.853 140.281 265.513C139.643 265.174 139.149 264.615 138.89 263.94C136.726 257.55 134.923 251.043 133.49 244.45C132.79 241.13 132.14 237.78 131.7 234.33C131.159 230.69 131.005 227.003 131.24 223.33C131.833 216.479 132.946 209.682 134.57 203C135.35 199.667 136.227 196.38 137.2 193.14C138.2 189.87 139.2 186.7 140.43 183.38C140.961 181.879 142.066 180.65 143.502 179.964C144.939 179.277 146.589 179.19 148.09 179.72C149.591 180.25 150.82 181.356 151.507 182.792C152.193 184.229 152.281 185.879 151.75 187.38L151.71 187.49Z" fill="#B5876D"/>
<path d="M146.47 172.78C142.32 173.78 136.6 187.52 136.6 187.52L149.43 199.16C149.43 199.16 158.2 188.38 156.8 183.01C155.34 177.42 151.2 171.64 146.47 172.78Z" fill="#263238"/>
<path d="M153.59 269.81L153.54 269.52C153.377 268.573 152.996 267.677 152.429 266.902C151.862 266.126 151.123 265.492 150.27 265.05L143.39 261.49L139.32 262.25C138.56 266.35 143.58 270.38 143.58 270.38L144.68 272.7C145.044 273.482 145.686 274.1 146.481 274.433C147.277 274.766 148.168 274.79 148.98 274.5L151.31 273.69C152.084 273.413 152.737 272.873 153.154 272.163C153.57 271.454 153.725 270.621 153.59 269.81Z" fill="#B5876D"/>
<path d="M221.31 200.62C222.14 201.5 223.93 201.16 225.31 199.87C226.69 198.58 227.12 196.8 226.31 195.87C225.5 194.94 223.69 195.33 222.31 196.63C220.93 197.93 220.47 199.74 221.31 200.62Z" fill="#A28F7B"/>
<path d="M226.66 204.36H226.51C226.33 204.36 222.11 203.65 223.05 196.78C223.068 196.649 223.111 196.522 223.178 196.408C223.244 196.293 223.333 196.193 223.438 196.112C223.544 196.032 223.664 195.973 223.792 195.939C223.92 195.906 224.054 195.897 224.185 195.915C224.316 195.933 224.443 195.976 224.557 196.043C224.672 196.109 224.772 196.198 224.853 196.303C224.933 196.409 224.992 196.529 225.026 196.657C225.059 196.785 225.068 196.919 225.05 197.05C224.38 201.89 226.78 202.38 226.81 202.38C226.94 202.4 227.065 202.445 227.178 202.512C227.29 202.58 227.388 202.67 227.467 202.776C227.545 202.882 227.601 203.002 227.632 203.13C227.664 203.257 227.67 203.39 227.65 203.52C227.612 203.755 227.491 203.969 227.31 204.122C227.128 204.276 226.898 204.361 226.66 204.36Z" fill="#A28F7B"/>
<path d="M221.68 199.65C222.17 200.17 223.4 199.82 224.41 198.86C225.42 197.9 225.86 196.69 225.41 196.17C224.96 195.65 223.69 196 222.68 196.96C221.67 197.92 221.19 199.13 221.68 199.65Z" fill="white"/>
<path d="M57.3398 29.8H76.3398V36.17H63.4498L62.7698 40.48C63.612 40.0776 64.4933 39.7626 65.3998 39.5401C66.2506 39.3302 67.1235 39.2228 67.9998 39.2201C69.2816 39.1669 70.5611 39.3704 71.7632 39.8186C72.9653 40.2668 74.0657 40.9507 74.9998 41.8301C75.8795 42.678 76.5724 43.7005 77.0339 44.8319C77.4954 45.9633 77.7154 47.1787 77.6798 48.4001C77.6742 50.2707 77.1997 52.1101 76.2998 53.75C75.4149 55.4196 74.0493 56.7852 72.3798 57.67C70.3477 58.6393 68.1091 59.096 65.8598 59C64.2242 59.0345 62.591 58.8597 60.9998 58.48C59.7573 58.1693 58.5861 57.6227 57.5498 56.87C56.6494 56.2019 55.8713 55.3832 55.2498 54.4501C54.5953 53.4059 54.0999 52.2701 53.7798 51.0801L61.8598 50.2001C61.9649 51.3113 62.4485 52.3528 63.2298 53.1501C63.9221 53.8076 64.8451 54.1667 65.7998 54.1501C66.3245 54.1608 66.8447 54.052 67.3212 53.832C67.7976 53.612 68.2177 53.2864 68.5498 52.8801C69.3503 51.7932 69.7368 50.4564 69.6398 49.1101C69.7538 47.7635 69.3616 46.4228 68.5398 45.35C68.1687 44.9509 67.7155 44.6369 67.2114 44.4297C66.7073 44.2225 66.1643 44.1271 65.6198 44.1501C64.8406 44.1514 64.0741 44.3474 63.3898 44.7201C62.7157 45.1072 62.1162 45.6118 61.6198 46.21L54.8198 45.21L57.3398 29.8Z" fill="#454658"/>
<path d="M80.8797 44C80.8797 38.54 81.8797 34.72 83.8797 32.54C85.8797 30.36 88.8797 29.27 92.8797 29.27C94.4959 29.2221 96.1078 29.4625 97.6397 29.98C98.7537 30.3938 99.7737 31.0262 100.64 31.84C101.374 32.546 101.997 33.3584 102.49 34.25C102.979 35.1997 103.345 36.2078 103.58 37.25C104.122 39.4451 104.391 41.6989 104.38 43.96C104.38 49.1667 103.5 52.98 101.74 55.4C99.9797 57.82 96.933 59.02 92.5997 59C90.582 59.0833 88.5735 58.6857 86.7397 57.84C85.2347 57.0593 83.9671 55.8885 83.0697 54.45C82.272 53.1131 81.7232 51.6427 81.4497 50.11C81.0519 48.0981 80.861 46.0508 80.8797 44ZM88.7897 44C88.7897 47.65 89.1197 50.15 89.7897 51.49C90.0033 52.0688 90.3869 52.5695 90.8902 52.9264C91.3934 53.2834 91.9928 53.4798 92.6097 53.49C92.9987 53.4954 93.3848 53.423 93.7455 53.277C94.1061 53.131 94.4339 52.9145 94.7097 52.64C95.3781 51.898 95.825 50.9833 95.9997 50C96.3344 48.1059 96.4751 46.1827 96.4197 44.26C96.4197 40.45 96.0897 37.88 95.4197 36.57C95.1934 35.9817 94.7943 35.4758 94.2748 35.1188C93.7554 34.7618 93.14 34.5704 92.5097 34.57C91.8822 34.5614 91.2678 34.7497 90.753 35.1084C90.2382 35.4672 89.8488 35.9784 89.6397 36.57C89.0897 38 88.7897 40.45 88.7897 44.07V44Z" fill="#454658"/>
<path d="M121.37 53.1601H106.82V46.5901L121.37 29.3101H128.32V47.0001H131.93V53.1901H128.32V58.5601H121.37V53.1601ZM121.37 46.9701V37.9701L113.68 46.9701H121.37Z" fill="#454658"/>
<path d="M149.08 29.8H172.87V35.93H158V40.5H171.82V46.3601H158V52H173.3V58.51H149.08V29.8Z" fill="#454658"/>
<path d="M177.63 37.71H185.1V41.12C185.598 39.9619 186.358 38.9351 187.32 38.12C188.148 37.5414 189.141 37.2467 190.15 37.28C191.509 37.3309 192.837 37.7082 194.02 38.38L191.55 44C190.847 43.6628 190.087 43.4625 189.31 43.41C188.828 43.3947 188.35 43.5057 187.923 43.732C187.497 43.9583 187.137 44.292 186.88 44.7C186.06 45.92 185.65 48.1934 185.65 51.52V58.52H177.65L177.63 37.71Z" fill="#454658"/>
<path d="M197.13 37.71H204.6V41.12C205.098 39.9619 205.858 38.9351 206.82 38.12C207.648 37.5414 208.641 37.2467 209.65 37.28C211.009 37.3309 212.337 37.7082 213.52 38.38L211.05 44C210.347 43.6628 209.587 43.4625 208.81 43.41C208.328 43.3947 207.85 43.5057 207.423 43.732C206.997 43.9583 206.637 44.292 206.38 44.7C205.56 45.92 205.15 48.1934 205.15 51.52V58.52H197.15L197.13 37.71Z" fill="#454658"/>
<path d="M214.53 48.18C214.487 46.719 214.752 45.2654 215.306 43.9131C215.861 42.5609 216.693 41.3402 217.75 40.33C218.922 39.2685 220.292 38.449 221.781 37.9187C223.271 37.3884 224.851 37.1578 226.43 37.24C230.596 37.24 233.746 38.45 235.88 40.87C237.605 42.8607 238.518 45.4271 238.44 48.06C238.49 49.5213 238.232 50.9768 237.685 52.3324C237.137 53.688 236.311 54.9136 235.26 55.93C233.14 57.9766 230.203 59 226.45 59C223.529 59.1392 220.655 58.2353 218.34 56.45C217.108 55.4603 216.123 54.1983 215.462 52.7632C214.801 51.3282 214.482 49.7593 214.53 48.18ZM222.53 48.18C222.414 49.6431 222.814 51.1005 223.66 52.3C224.006 52.7139 224.439 53.0468 224.928 53.2752C225.417 53.5036 225.95 53.622 226.49 53.622C227.029 53.622 227.562 53.5036 228.051 53.2752C228.54 53.0468 228.973 52.7139 229.32 52.3C230.165 51.0632 230.557 49.5725 230.43 48.08C230.537 46.6565 230.141 45.2405 229.31 44.08C228.984 43.6601 228.565 43.3215 228.086 43.0908C227.607 42.86 227.081 42.7434 226.55 42.75C225.999 42.7382 225.453 42.8529 224.954 43.0852C224.455 43.3175 224.015 43.6612 223.67 44.09C222.826 45.272 222.423 46.7118 222.53 48.16V48.18Z" fill="#454658"/>
<path d="M242.36 37.71H249.83V41.12C250.328 39.9619 251.088 38.9351 252.05 38.12C252.881 37.5399 253.877 37.2452 254.89 37.28C256.246 37.3321 257.57 37.7094 258.75 38.38L256.28 44C255.577 43.6628 254.817 43.4625 254.04 43.41C253.558 43.3947 253.08 43.5057 252.653 43.732C252.227 43.9582 251.867 44.2919 251.61 44.7C250.79 45.92 250.38 48.1933 250.38 51.52V58.52H242.38L242.36 37.71Z" fill="#454658"/>
<path d="M60.5902 88.19L61.0002 90.5C60.343 90.6437 59.6729 90.7208 59.0002 90.73C58.2404 90.7714 57.4827 90.6164 56.8002 90.28C56.3104 90.0196 55.9202 89.6048 55.6902 89.1C55.4141 88.0912 55.306 87.0439 55.3702 86V77.16H53.4502V75.16H55.3702V71.31L58.0002 69.74V75.13H60.6302V77.13H58.0002V86.13C57.9703 86.6144 58.0175 87.1004 58.1402 87.57C58.2331 87.7829 58.3905 87.9613 58.5902 88.08C58.8665 88.2155 59.173 88.2775 59.4802 88.26C59.8514 88.2618 60.2222 88.2384 60.5902 88.19Z" fill="#454658"/>
<path d="M63.1504 72.27V69.27H65.7604V72.27H63.1504ZM63.1504 90.53V75.13H65.7604V90.53H63.1504Z" fill="#454658"/>
<path d="M69.7402 90.5301V75.1301H72.0702V77.2901C72.5561 76.5355 73.2185 75.9108 74.0002 75.4701C74.8363 75.0014 75.7819 74.7633 76.7402 74.7801C77.7265 74.7341 78.7042 74.9812 79.5502 75.4901C80.2793 75.9588 80.8234 76.6655 81.0902 77.4901C81.582 76.6664 82.2792 75.9846 83.1136 75.5113C83.948 75.038 84.891 74.7895 85.8502 74.7901C86.4943 74.748 87.1401 74.8391 87.7474 75.0576C88.3548 75.2761 88.9106 75.6174 89.3802 76.0601C90.2958 77.1587 90.7381 78.5757 90.6102 80.0001V90.5301H88.0002V80.8201C88.0373 80.0616 87.9529 79.302 87.7502 78.5701C87.5763 78.1076 87.2524 77.7168 86.8302 77.4601C86.3648 77.1611 85.8235 77.0015 85.2702 77.0001C84.7703 76.9861 84.2728 77.0747 83.8084 77.2604C83.344 77.4462 82.9226 77.7251 82.5702 78.0801C81.7735 79.0484 81.3893 80.291 81.5002 81.5401V90.5401H78.8902V80.5401C78.9563 79.6245 78.7324 78.7113 78.2502 77.9301C78.0062 77.6141 77.6874 77.3636 77.3226 77.2013C76.9578 77.039 76.5584 76.9698 76.1602 77.0001C75.4521 77.0002 74.7586 77.2013 74.1602 77.5801C73.5255 77.9742 73.0454 78.5743 72.8002 79.2801C72.4769 80.3214 72.3348 81.4106 72.3802 82.5001V90.5001L69.7402 90.5301Z" fill="#454658"/>
<path d="M105 85.57L107.7 85.9C107.357 87.3574 106.524 88.6529 105.34 89.57C103.856 90.5418 102.091 90.9925 100.322 90.8513C98.5534 90.7101 96.8819 89.985 95.5704 88.79C94.1625 87.1856 93.4439 85.0908 93.5704 82.96C93.4467 80.778 94.1623 78.6313 95.5704 76.96C96.2329 76.2538 97.0388 75.6976 97.9339 75.3285C98.829 74.9594 99.7928 74.786 100.76 74.82C101.695 74.7953 102.624 74.9697 103.486 75.3318C104.349 75.6939 105.124 76.2353 105.76 76.92C107.17 78.559 107.887 80.6819 107.76 82.84C107.76 82.99 107.76 83.22 107.76 83.53H96.3104C96.2992 84.9572 96.8074 86.3398 97.7404 87.42C98.1602 87.8566 98.6678 88.1991 99.2298 88.4249C99.7918 88.6507 100.395 88.7547 101 88.73C101.877 88.7554 102.738 88.4919 103.45 87.98C104.191 87.3451 104.73 86.5073 105 85.57ZM96.4304 81.35H105.03C105.001 80.2978 104.652 79.2794 104.03 78.43C103.644 77.9443 103.151 77.555 102.588 77.2929C102.026 77.0309 101.411 76.9032 100.79 76.92C100.235 76.9088 99.6823 77.0103 99.1667 77.2182C98.6511 77.4262 98.183 77.7363 97.7904 78.13C96.9516 78.9946 96.4726 80.1456 96.4504 81.35H96.4304Z" fill="#454658"/>
<path d="M110 82.83C110 79.97 110.794 77.8567 112.38 76.49C113.727 75.3414 115.451 74.7322 117.22 74.78C118.183 74.7447 119.142 74.9116 120.036 75.2699C120.93 75.6282 121.739 76.1698 122.41 76.86C123.108 77.6382 123.644 78.5473 123.987 79.5343C124.331 80.5214 124.474 81.5669 124.41 82.61C124.484 84.2182 124.179 85.8212 123.52 87.29C122.938 88.4107 122.032 89.3305 120.92 89.93C119.783 90.5624 118.502 90.8896 117.2 90.88C116.236 90.9161 115.276 90.7496 114.38 90.3913C113.484 90.0331 112.674 89.491 112 88.8C110.572 87.1521 109.853 85.006 110 82.83ZM112.68 82.83C112.568 84.4179 113.037 85.9924 114 87.26C114.405 87.7228 114.904 88.0937 115.463 88.3478C116.023 88.602 116.631 88.7335 117.245 88.7335C117.86 88.7335 118.468 88.602 119.027 88.3478C119.587 88.0937 120.086 87.7228 120.49 87.26C121.447 85.96 121.905 84.3594 121.78 82.75C121.89 81.1964 121.428 79.6563 120.48 78.42C120.075 77.9603 119.576 77.5922 119.018 77.34C118.459 77.0878 117.853 76.9574 117.24 76.9574C116.628 76.9574 116.022 77.0878 115.463 77.34C114.904 77.5922 114.406 77.9603 114 78.42C113.052 79.686 112.594 81.2525 112.71 82.83H112.68Z" fill="#454658"/>
<path d="M137.61 90.53V88.27C137.091 89.0884 136.368 89.7587 135.513 90.216C134.658 90.6733 133.7 90.902 132.73 90.88C131.853 90.885 130.984 90.7044 130.18 90.35C129.483 90.0705 128.878 89.6032 128.43 89C128.025 88.4225 127.748 87.7642 127.62 87.07C127.491 86.2635 127.437 85.4466 127.46 84.63V75.13H130.07V83.67C130.038 84.5897 130.092 85.5103 130.23 86.42C130.379 87.056 130.752 87.617 131.28 88C131.863 88.4131 132.567 88.6206 133.28 88.59C134.055 88.5926 134.815 88.3853 135.48 87.99C136.135 87.6199 136.649 87.0431 136.94 86.35C137.271 85.3858 137.416 84.3681 137.37 83.35V75.13H140V90.53H137.61Z" fill="#454658"/>
<path d="M149.74 88.19L150.12 90.5C149.463 90.6429 148.793 90.7199 148.12 90.73C147.36 90.7701 146.603 90.6152 145.92 90.28C145.433 90.019 145.046 89.6041 144.82 89.1C144.539 88.0989 144.431 87.0574 144.5 86.02V77.16H142.6V75.16H144.52V71.31L147.11 69.74V75.13H149.74V77.13H147.11V86.13C147.08 86.6144 147.127 87.1004 147.25 87.57C147.343 87.7829 147.5 87.9613 147.7 88.08C147.977 88.2142 148.283 88.2762 148.59 88.26C148.975 88.2636 149.359 88.2402 149.74 88.19Z" fill="#454658"/>
</svg>
