<svg width="544" height="334" viewBox="0 0 544 334" fill="none" xmlns="http://www.w3.org/2000/svg">
<g clip-path="url(#clip0_687_18347)">
<path fill-rule="evenodd" clip-rule="evenodd" d="M271.904 306.511C422.127 306.511 543.908 312.641 543.908 320.208C543.908 327.772 422.127 333.906 271.904 333.906C121.68 333.906 -0.100708 327.772 -0.100708 320.208C-0.100708 312.641 121.68 306.511 271.904 306.511Z" fill="#F0E3D6"/>
<path fill-rule="evenodd" clip-rule="evenodd" d="M458.874 31.2852C469.105 32.5963 476.334 41.9607 475.022 52.1957C473.712 62.4349 464.357 69.6694 454.128 68.3562C443.9 67.0452 436.669 57.6828 437.979 47.4457C439.289 37.2087 448.647 29.9741 458.874 31.2852ZM420.439 18.8193C425.716 19.4963 429.445 24.3237 428.77 29.6045C428.094 34.8853 423.27 38.6165 417.993 37.9394C412.717 37.2624 408.988 32.4351 409.665 27.1543C410.341 21.8735 415.165 18.1423 420.439 18.8193Z" fill="#EFEBF4"/>
<path fill-rule="evenodd" clip-rule="evenodd" d="M309.109 207.669H406.709C408.5 207.669 409.963 209.133 409.963 210.925C409.963 212.715 408.5 214.179 406.709 214.179H309.109C307.32 214.179 305.858 212.715 305.858 210.925C305.856 209.135 307.32 207.669 309.109 207.669ZM309.109 220.487H406.709C408.5 220.487 409.963 221.953 409.963 223.744C409.963 225.536 408.5 227 406.709 227H309.109C307.32 227 305.858 225.536 305.858 223.744C305.856 221.953 307.32 220.487 309.109 220.487ZM417.08 220.487H427.956C429.747 220.487 431.21 221.953 431.21 223.744C431.21 225.536 429.745 227 427.956 227H417.08C415.289 227 413.825 225.536 413.825 223.744C413.825 221.953 415.289 220.487 417.08 220.487ZM417.08 207.669H427.956C429.747 207.669 431.21 209.133 431.21 210.925C431.21 212.715 429.745 214.179 427.956 214.179H417.08C415.289 214.179 413.825 212.715 413.825 210.925C413.825 209.135 415.289 207.669 417.08 207.669Z" fill="white"/>
<path fill-rule="evenodd" clip-rule="evenodd" d="M33.5593 162.469H131.159C132.95 162.469 134.413 163.935 134.413 165.726C134.413 167.516 132.95 168.982 131.159 168.982H33.5593C31.7703 168.982 30.3077 167.516 30.3077 165.726C30.3077 163.935 31.7703 162.469 33.5593 162.469ZM33.5593 175.288H131.159C132.95 175.288 134.413 176.754 134.413 178.544C134.413 180.334 132.95 181.8 131.159 181.8H33.5593C31.7703 181.8 30.3077 180.334 30.3077 178.544C30.3077 176.754 31.7703 175.288 33.5593 175.288ZM141.532 175.288H152.41C154.199 175.288 155.662 176.754 155.662 178.544C155.662 180.334 154.197 181.8 152.41 181.8H141.532C139.741 181.8 138.277 180.334 138.277 178.544C138.277 176.754 139.741 175.288 141.532 175.288ZM141.532 162.469H152.41C154.199 162.469 155.662 163.935 155.662 165.726C155.662 167.516 154.197 168.982 152.41 168.982H141.532C139.741 168.982 138.277 167.516 138.277 165.726C138.277 163.935 139.741 162.469 141.532 162.469Z" fill="white"/>
<path fill-rule="evenodd" clip-rule="evenodd" d="M198.497 239.739H296.095C297.886 239.739 299.348 241.202 299.348 242.995C299.348 244.785 297.884 246.249 296.095 246.249H198.497C196.706 246.249 195.243 244.785 195.243 242.995C195.243 241.202 196.708 239.739 198.497 239.739ZM198.497 252.557H296.095C297.886 252.557 299.348 254.021 299.348 255.811C299.348 257.603 297.884 259.067 296.095 259.067H198.497C196.706 259.067 195.243 257.603 195.243 255.811C195.243 254.021 196.708 252.557 198.497 252.557ZM306.466 252.557H317.341C319.132 252.557 320.595 254.021 320.595 255.811C320.595 257.603 319.13 259.067 317.341 259.067H306.466C304.677 259.067 303.212 257.603 303.212 255.811C303.214 254.021 304.677 252.557 306.466 252.557ZM306.466 239.739H317.341C319.132 239.739 320.595 241.202 320.595 242.995C320.595 244.785 319.13 246.249 317.341 246.249H306.466C304.677 246.249 303.212 244.785 303.212 242.995C303.214 241.202 304.677 239.739 306.466 239.739Z" fill="white"/>
<path d="M170.82 25.3008H449.605V201.417H170.82V25.3008Z" fill="#D0BAA1" stroke="#454658"/>
<path d="M170.82 0.558105H449.605V24.3008H170.82V0.558105Z" fill="#D0BAA1" stroke="#454658"/>
<path fill-rule="evenodd" clip-rule="evenodd" d="M189.513 5.4292C193.377 5.4292 196.506 8.56287 196.506 12.4294C196.506 16.2939 193.377 19.4275 189.513 19.4275C185.65 19.4275 182.518 16.2939 182.518 12.4294C182.518 8.56287 185.65 5.4292 189.513 5.4292ZM243.844 5.4292C247.708 5.4292 250.839 8.56287 250.839 12.4294C250.839 16.2939 247.708 19.4275 243.844 19.4275C239.983 19.4275 236.852 16.2939 236.852 12.4294C236.85 8.56287 239.983 5.4292 243.844 5.4292ZM216.679 5.4292C220.542 5.4292 223.674 8.56287 223.674 12.4294C223.674 16.2939 220.542 19.4275 216.679 19.4275C212.815 19.4275 209.686 16.2939 209.686 12.4294C209.686 8.56287 212.815 5.4292 216.679 5.4292Z" fill="white"/>
<path d="M242.221 54.4309H182.357V179.78H242.221V54.4309Z" fill="white"/>
<path d="M431.403 54.4309H254.419V114.338H431.403V54.4309Z" fill="white"/>
<path d="M431.403 132.568H254.419V192.476H431.403V132.568Z" fill="white"/>
<path d="M400.526 28.4222H284.963V51.05H400.526V28.4222Z" fill="white"/>
<path d="M284.966 28.4222H259.591V51.05H284.966V28.4222Z" fill="#D0BAA1"/>
<path fill-rule="evenodd" clip-rule="evenodd" d="M266.573 46.5816C266.26 46.8933 265.753 46.8933 265.439 46.5816C265.126 46.2678 265.126 45.7584 265.439 45.4447L270.733 40.1445C270.001 39.1623 269.636 37.9952 269.636 36.8238V36.8195C269.636 35.3967 270.177 33.9739 271.259 32.8906C272.346 31.8052 273.766 31.2615 275.187 31.2615L275.254 31.2636C276.654 31.2787 278.048 31.8224 279.113 32.8906C280.2 33.976 280.741 35.3989 280.741 36.8195C280.741 38.2424 280.2 39.6674 279.113 40.7527C278.031 41.836 276.609 42.3776 275.189 42.3798H275.187V42.3819C274.017 42.3819 272.849 42.0122 271.867 41.2793L266.573 46.5816ZM279.139 36.8217C279.139 35.8094 278.752 34.7992 277.981 34.0255C277.223 33.2689 276.235 32.882 275.243 32.8648L275.187 32.867C274.176 32.867 273.164 33.2539 272.393 34.0255C271.62 34.7971 271.234 35.8115 271.234 36.8217C271.234 37.834 271.62 38.8463 272.393 39.6179C273.164 40.3895 274.176 40.7742 275.187 40.7742V40.7785C276.199 40.7764 277.208 40.3895 277.981 39.6179C278.752 38.8463 279.139 37.834 279.139 36.8217Z" fill="white"/>
<path fill-rule="evenodd" clip-rule="evenodd" d="M296.015 35.4612C298.371 35.4612 300.285 37.3762 300.285 39.7361C300.285 42.096 298.371 44.0089 296.015 44.0089C293.655 44.0089 291.744 42.096 291.744 39.7361C291.741 37.3762 293.655 35.4612 296.015 35.4612ZM331.181 35.4612C333.539 35.4612 335.453 37.3762 335.453 39.7361C335.453 42.096 333.539 44.0089 331.181 44.0089C328.825 44.0089 326.911 42.096 326.911 39.7361C326.911 37.3762 328.825 35.4612 331.181 35.4612ZM313.598 35.4612C315.954 35.4612 317.868 37.3762 317.868 39.7361C317.868 42.096 315.954 44.0089 313.598 44.0089C311.24 44.0089 309.326 42.096 309.326 39.7361C309.326 37.3762 311.24 35.4612 313.598 35.4612Z" fill="#D0BAA1"/>
<path fill-rule="evenodd" clip-rule="evenodd" d="M138.105 197.021C177.598 197.021 209.615 229.065 209.615 268.588C209.615 287.337 202.406 304.4 190.615 317.16H85.5947C73.8041 304.4 66.5945 287.337 66.5945 268.588C66.5945 229.065 98.6095 197.021 138.105 197.021Z" fill="#D0BAA1"/>
<path fill-rule="evenodd" clip-rule="evenodd" d="M138.105 199.661C176.144 199.661 206.98 230.52 206.98 268.591C206.98 287.541 199.339 304.701 186.97 317.162H89.2393C76.8732 304.701 69.2275 287.541 69.2275 268.591C69.2275 230.52 100.064 199.661 138.105 199.661Z" fill="#D0BAA1"/>
<path fill-rule="evenodd" clip-rule="evenodd" d="M170.97 223.896C171.34 223.406 171.396 223.137 171.789 222.718C174.314 220.032 178.854 222.665 181.324 222.598L181.556 224.767C182.724 224.794 183.399 224.399 183.345 223.167C183.244 220.934 177.985 221.809 177.226 219.619C178.481 217.872 182.241 220.152 183.74 220.913C184.833 221.465 185.888 221.998 186.88 222.551C187.939 223.144 189.161 224.163 189.666 224.448C189.956 223.277 190.074 221.156 190.628 220.468C190.769 220.455 190.905 220.462 191.042 220.481C187.26 216.316 182.993 212.599 178.332 209.418C178.047 209.569 177.69 209.666 177.302 209.694C175.779 209.803 175.313 208.851 173.455 209.434C172.523 209.73 171.23 210.45 170.176 210.293C170.463 210.076 171.847 208.769 172.023 208.458C173.618 205.606 168.689 207.723 169.576 204.32C167.105 203.106 164.551 202.031 161.931 201.105C161.817 201.417 161.838 201.872 162.017 202.558C162.39 203.994 162.678 205.023 161.632 205.928C160.771 206.672 159.508 206.807 160.692 208.496C161.566 209.747 162.564 209.401 164.313 209.356C164.663 210.34 164.618 211.211 165.539 211.52C166.634 211.886 167.274 211.894 167.729 212.836C167.414 213.646 166.849 213.904 166.51 214.987C165.447 218.396 166.273 218.338 162.047 220.805C162.884 221.622 165.584 220.915 166.202 222.91C166.804 224.863 164.418 225.151 162.945 225.749C160.623 226.688 161.265 227.795 162.375 229.484C163.067 230.537 163.99 232.476 165.674 232.328C166.381 231.64 165.915 231.29 167.21 230.959C167.56 231.917 168.299 232.47 168.084 233.955C167.944 234.941 167.309 235.861 166.993 236.745C166.641 237.72 166.54 238.829 166.213 239.822C165.346 242.477 163.688 244.843 165.047 249.178C165.363 250.175 165.754 250.962 166.314 251.757C166.888 252.565 167.435 252.856 167.79 254.134C168.425 256.434 169.085 256.939 171.535 258.111C174.812 259.678 175.706 263.772 178.281 262.697C180.54 261.752 178.629 259.596 183.175 259.877C185.095 259.993 184.96 259.583 185.265 257.937C185.493 256.705 186.384 256.43 187.632 256.797C188.882 257.165 190.041 256.855 191.094 257.191C193.095 257.825 191.566 260.479 192.799 262.88C193.46 264.172 195.063 266.826 195.836 267.555C197.041 268.689 198.883 269.968 197.524 272.694C196.622 274.501 195.408 276.19 196.637 278.469C199.854 284.427 202.12 282.516 201.985 288.558C201.935 290.767 203.121 293.331 204.437 294C204.766 293.772 204.925 293.58 205.208 293.366C208.052 285.645 209.609 277.304 209.609 268.597C209.609 252.28 204.149 237.243 194.964 225.207L189.21 226.409C189.311 227.172 189.749 227.369 190.359 227.662C189.129 228.685 188.362 230.439 185.733 228.775C182.454 226.699 183.188 228.951 180.74 228.9C180.922 228.137 180.983 227.477 180.802 226.658C179.978 226.172 178.397 226.4 177.561 226.654C175.745 227.204 172.048 229.231 171.286 230.995L169.138 231.184C169.675 230.355 170.792 229.974 170.436 228.193C170.178 226.899 169.463 226.157 169.665 224.556C170.42 224.266 170.532 224.479 170.97 223.896ZM68.13 253.778C69.4959 247.291 71.7381 241.127 74.7297 235.416C76.1322 235.436 77.7343 235.646 79.3279 235.188C81.5399 234.552 85.4981 232.674 86.3571 231.343C84.0484 232.319 83.1679 233.246 79.8841 232.768C79.5662 232.435 79.3364 231.917 79.01 231.515C78.3807 232.199 78.2777 233.362 77.2919 233.516C76.7657 233.596 76.3083 233.426 75.9861 233.112C76.4414 232.321 76.9096 231.539 77.3907 230.765C78.8554 230.484 80.7582 230.55 81.8428 230.163C86.9026 228.362 84.7979 226.847 85.7257 226.312C87.315 225.837 87.4331 227.552 87.5748 228.928C89.5722 229.074 92.3018 227.687 93.8911 228.966C93.846 226.581 92.3748 222.714 95.8046 223C95.6629 222.168 95.854 222.007 96.3695 221.405C96.726 220.992 96.4554 221.379 96.6723 220.999L95.1969 220.995C95.0852 220.348 94.8382 219.946 95.4954 219.757C97.0352 219.316 98.1542 220.696 99.6768 220.801C101.642 220.941 103.014 219.46 104.857 219.12C107.43 218.648 108.149 220.163 110.031 220.793C111.787 221.377 114.955 219.969 115.814 221.362C114.453 222.748 111.644 221.055 112.367 223.219L113.978 223.494C113.69 224.874 113.43 225.078 113.555 226.714C110.967 227.013 109.182 226.06 106.674 226.114C107.03 225.005 107.595 224.96 107.554 223.548L105.36 224.216C105.329 224.197 105.297 224.16 105.28 224.148C104.335 223.26 102.969 223.116 101.775 223.776C102.391 225.254 102.54 225.233 102.568 227.167C103.111 227.584 103.996 227.681 103.493 228.678C103.173 229.319 102.542 229.557 102.009 229.989C101.32 230.548 101.511 231.101 100.336 230.952C99.6275 230.864 98.8672 230.443 98.6352 230.03C98.3303 230.636 98.2122 231.101 97.8771 231.707C96.9687 233.347 95.7424 234.84 96.5756 236.749C97.9501 236.908 102.75 236.181 104.44 236.003C110.286 235.386 106.412 232.616 106.206 232.025C105.568 230.191 107.155 227.051 110.125 227.477C111.525 227.681 111.998 228.902 112.917 229.061C114.88 229.405 114.734 228.205 115.164 227.114C116.628 226.916 116.665 228.098 117.483 228.913C118.707 230.135 121.909 230.08 123.436 231.44C124.607 232.487 124.394 232.513 124.929 234.112C125.837 234.176 126.299 233.938 126.999 234.503C127.467 234.883 127.876 235.335 127.687 236.27C126.935 236.76 125.021 236.867 123.862 236.721C122.405 236.54 122.35 235.517 122.062 234.236C121.085 234.359 120.316 234.802 119.506 235.012C118.196 235.35 117.545 234.385 116.989 235.41C116.295 236.693 115.713 238.402 115.007 239.62C116.276 239.65 116.785 238.324 118.686 238.421L118.941 239.827L121.564 239.65C121.433 240.62 120.795 241.406 120.273 241.785C119.053 242.674 118.922 242.163 118.153 241.467C114.457 241.323 115.894 244.132 115.041 246.717C114.597 248.067 113.521 247.908 113.379 249.232C113.134 251.51 112.745 250.169 111.68 251.484C112.028 252.669 113.031 252.464 112.208 254.678C111.818 255.721 111.173 256.585 111.186 257.857C111.203 259.972 112.582 262.091 112.842 264.55C111.912 264.307 111.377 263.759 110.943 263.228C108.942 260.769 108.029 261.032 105.293 262.407L105.166 263.349C100.708 263.914 98.646 266.158 98.8522 270.974C98.9402 273.057 100.128 274.45 101.863 274.933C103.82 275.479 106.154 275.092 105.718 272.257C108.639 271.827 107.488 273.227 108.637 275.099C109.565 276.614 110.838 276.743 112.896 276.107C113.082 277.476 112.941 277.407 113.86 278.052C114.515 278.514 114.719 278.768 115.617 279.215C118.793 280.799 117.565 278.649 119.888 278.991C120.593 279.64 120.271 280.117 121.761 279.92C121.744 275.638 121.082 275.726 128.631 275.346C135.147 275.021 133.311 275.142 135.974 276.734C136.692 277.162 137.235 277.246 138.186 277.285C142.127 277.437 143.848 279.479 147.277 279.801C149.904 280.044 155.746 278.615 157.474 280.511C158.091 281.185 157.219 284.046 157.412 285.523C157.605 286.965 158.372 288.474 158.918 289.712C161.993 296.721 156.192 294.799 154.822 301.32C154.446 303.11 153.834 303.925 153.226 305.442C152.133 308.159 155.015 313.958 151.751 314.439C151.278 314.009 150.791 312.247 149.421 313.038C148.066 313.825 149.32 316.225 150.071 317.16H139.604C139.617 316.829 139.617 316.492 139.591 316.148C139.441 314.126 138.91 312.615 138.122 310.979C136.765 308.157 135.311 304.529 133.975 301.883C132.044 301.941 130.76 301.995 129.688 300.916C129.321 300.548 128.887 299.921 128.505 299.476C127.667 298.513 126.986 297.591 125.951 296.798C125.416 296.385 124.899 296.164 124.343 295.783C120.567 293.204 123.299 286.806 121.368 283.337C120.069 281.007 119.214 282.234 118.14 281.936C117.614 281.789 116.929 281.317 116.39 281.067C114.444 280.171 112.477 280.143 110.817 278.931C109.2 277.753 108.959 278.108 106.758 277.944C103.425 277.701 99.9002 278.828 96.9558 278.299C93.7579 277.725 92.3705 275.537 90.7856 274.151C90.0167 273.476 85.3735 270.396 84.3684 270.461C83.3955 273.257 87.6114 274.766 88.3802 276.893C84.4565 276.874 84.8752 273.97 83.3526 271.254C81.8556 268.582 79.0938 269.014 76.8387 267.288C74.9402 265.835 74.2766 262.259 73.6817 259.95C72.9085 256.937 71.4181 255.237 70.5569 252.729L70.4065 253.103C70.2089 253.784 70.1488 254.663 69.8481 255.276C68.8881 255.235 68.3254 254.622 68.13 253.778ZM78.4666 229.093C79.257 229.001 79.4932 228.491 80.2084 228.223C80.814 227.993 82.2079 228.352 83.3654 228.124C85.3585 227.728 84.2438 227.475 85.1716 226.402C85.7901 225.682 86.9821 225.882 87.126 224.874C85.788 223.761 85.4336 225.196 84.8774 225.798C83.5287 227.247 83.1593 225.07 82.1477 225.974C81.7203 226.355 81.9909 226.671 81.0503 226.632C80.5842 226.615 80.3372 226.608 80.159 226.649C79.577 227.453 79.0143 228.268 78.4666 229.093ZM83.3805 225.265C85.0857 225.91 85.8632 221.437 83.5136 224.603C83.0347 225.244 83.3805 225.265 83.3805 225.265ZM88.3952 221.003C88.7389 221.603 89.0438 221.678 89.7762 221.452C90.7727 221.147 90.5579 221.065 91.2924 221.571L91.359 220.649C89.8879 220.446 88.7668 219.754 88.3952 221.003ZM120.425 269.321C121.276 269.775 122.667 269.646 123.477 269.055C124.502 268.303 123.123 268.522 125.163 267.179C125.197 267.157 125.236 267.127 125.266 267.108L125.472 266.957C124.205 266.998 123.067 266.762 121.817 267.099C120.485 267.464 120.064 267.823 120.425 269.321ZM110.132 268.887C111.781 268.842 111.515 268.52 112.352 267.948C114.264 266.641 116.115 268.827 117.361 268.694C118.194 268.604 119.588 268.543 119.463 267.638C119.319 266.596 118.336 266.961 117.376 267.024C116.115 267.103 116.04 266.39 114.459 266.639C112.936 266.878 110.344 267.467 110.132 268.887ZM142.956 213.734C143.309 213.36 143.319 212.913 143.742 212.539C144.625 211.761 147.202 212.137 147.241 209.739C146.517 209.683 146.262 209.803 145.568 209.593C144.017 209.118 143.882 209.844 143.049 210.454C142.37 210.951 142.187 210.611 141.397 210.824C140.553 211.052 139.215 211.903 140.229 212.623C140.613 212.887 142.381 213.558 142.956 213.734ZM155.2 218.112C155.552 217.427 156.871 216.071 156.807 215.469C156.714 214.562 156.126 215.445 156.71 213.799C156.959 213.1 156.987 212.823 157.114 212.09C159.16 212.513 160.812 216.019 164.703 216.503C164.51 217.741 164.824 218.048 163.932 218.708C163.408 219.099 162.53 219.458 161.851 219.537C159.882 219.769 160.004 217.633 159.147 216.717C157.238 216.73 158.671 218.4 157.573 218.985C156.783 219.406 155.632 218.501 155.2 218.112ZM97.1405 215.716C95.6006 215.914 93.8975 216.273 92.828 216.9C92.8989 218.317 94.3013 218.312 95.6178 218.048C97.439 217.685 97.6731 217.99 97.8685 219.707C100.383 219.858 102.8 220.193 102.819 217.973L101.2 218.078C100.877 217.549 101.193 217.876 100.798 217.564C101.743 215.361 103.51 215.608 104.818 213.36C105.349 212.447 105.411 211.237 106.021 210.405C106.73 209.436 107.664 209.833 108.186 208.271C105.072 208.484 104.672 210.239 101.975 211.293C99.3848 212.305 96.8913 212.393 97.1405 215.716ZM108.289 213.775C109.605 214.484 111.356 212.303 114.644 215.105C118.368 218.28 119.71 216.197 120.507 216.169C120.859 217.977 121.188 219.116 122.173 220.057C122.625 220.487 124.678 222.05 125.52 222.417C127.24 223.172 128.769 222.598 129.134 221.065C129.521 219.445 128.642 217.319 129.42 215.933C129.761 215.329 131.492 214.867 132.843 213.807C133.945 212.945 134.81 212.109 136.002 211.269C136.844 210.674 139.121 209.739 139.449 209.004C139.907 207.981 137.974 206.27 138.549 204.559C139.269 204.196 140.325 204.533 141.232 204.325C142.271 204.086 142.087 203.613 142.503 202.652C143.203 201.03 145.626 201.524 144.689 199.379C143.255 198.928 141.032 201.268 140.169 201.864C138.829 202.788 138.844 201.851 135.972 203.213C135.79 203.297 135.476 203.439 135.309 203.476C134.733 203.594 134.675 203.463 134.58 203.42C134.372 202.42 134.791 201.784 135.083 200.933C135.461 199.826 136.022 199.143 135.951 198.526C135.749 196.701 133 198.874 131.402 198.928C130.352 198.964 129.454 198.545 128.55 199.029C127.422 199.635 128.047 200.725 127.066 200.931C125.348 201.292 123.909 198.567 122.332 201.438C121.312 203.291 120.365 203.235 117.835 203.538C116.869 203.654 116.098 203.968 115.43 204.4L109.925 208.924C109.193 209.726 108.096 211.731 108.059 212.988L108.289 213.775ZM97.3252 224.264L95.8755 223.262L96.1826 225.386C98.6503 225.431 98.9166 226.363 99.6554 227.481C102.114 226.338 97.8986 224.592 97.3252 224.264Z" fill="white"/>
<path d="M408.526 73.236L408.526 73.236C430.427 51.3152 465.953 51.3152 487.855 73.236L488.208 72.8826L487.855 73.236C509.757 95.1548 509.757 130.708 487.855 152.627C465.951 174.548 430.427 174.548 408.526 152.627L408.172 152.98L408.526 152.627C386.621 130.706 386.621 95.1548 408.526 73.236Z" fill="#D0BAA1" stroke="#454658"/>
<path fill-rule="evenodd" clip-rule="evenodd" d="M415.654 80.3728C433.624 62.3897 462.754 62.3897 480.726 80.3728C498.693 98.3538 498.693 127.509 480.726 145.492C462.757 163.473 433.624 163.473 415.654 145.492C397.687 127.509 397.687 98.3538 415.654 80.3728Z" fill="white"/>
<path d="M418.242 75.7958L411.085 82.9595L481.206 153.114L488.362 145.95L418.242 75.7958Z" fill="#D0BAA1"/>
<path fill-rule="evenodd" clip-rule="evenodd" d="M109.148 81.0456C108.658 78.4793 108.646 77.7313 108.407 75.5369C108.145 79.0338 108.184 82.1525 108.547 86.3522C107.535 81.3379 107.073 75.8077 107.776 70.1809C106.962 73.235 106.964 81.4217 107.067 83.5237C105.8 76.689 105.366 68.4378 109.051 62.1232C110.121 60.681 110.868 58.8176 113.785 57.2572L113.813 57.268C114.502 56.9456 115.26 56.6683 116.091 56.4448C120.72 55.1917 129.933 54.3342 133.724 57.4915C139.353 62.1769 140.033 70.9353 136.827 83.1841C136.112 85.9159 139.58 91.9855 143.472 92.8538C135.873 107.147 116.646 105.294 107.34 96.2045C107.967 95.4007 108.97 93.7479 110.344 91.2461C108.755 93.0451 107.239 94.4077 105.802 95.3362C105.342 95.0417 104.911 94.728 104.513 94.3948C106.244 93.2815 108.126 91.2912 110.16 88.4198C108.506 90.5669 106.249 92.1918 103.384 93.2944C106.036 91.3794 110.377 89.1097 109.23 81.5399C109.202 81.3551 109.174 81.1874 109.148 81.0456Z" fill="#280209"/>
<path fill-rule="evenodd" clip-rule="evenodd" d="M215.096 135.418C215.122 135.403 215.092 135.406 215.087 135.386L215.278 135.371C215.85 134.969 215.175 134.352 214.866 134.079C214.503 133.761 212.383 132.119 212.113 132.005C211.756 131.853 211.335 131.866 210.953 131.887C210.496 131.915 210.015 132.046 209.594 132.237C209.491 132.285 209.284 132.328 209.246 132.455C209.205 132.588 209.364 132.723 209.452 132.781C209.568 132.859 209.037 132.753 209.171 132.796C209.364 132.861 211.069 133.723 211.462 133.981C212.25 134.503 213.176 134.896 214.026 135.277C214.318 135.412 214.787 135.534 215.096 135.418Z" fill="#ED927C"/>
<path fill-rule="evenodd" clip-rule="evenodd" d="M219.827 131.636C219.168 130.894 218.565 130.402 217.529 129.85C216.692 129.407 215.764 128.753 214.853 128.543L213.739 128.53C212.843 128.315 212.197 129.415 213.024 129.989C213.365 130.226 213.797 130.32 214.192 130.441C214.843 130.643 215.41 130.98 216.009 131.313C216.75 131.728 217.467 132.173 218.187 132.631C218.539 132.856 218.915 133.177 219.338 133.239C220.311 133.389 220.396 132.276 219.827 131.636Z" fill="#ED927C"/>
<path fill-rule="evenodd" clip-rule="evenodd" d="M212.91 129.912C213.82 130.123 214.737 130.903 215.536 131.414C216.339 131.928 217.287 132.498 217.946 133.239C218.517 133.88 218.367 134.756 217.392 134.61C216.967 134.544 216.595 134.228 216.241 134C215.523 133.54 214.806 133.097 214.063 132.682C213.464 132.347 212.899 132.01 212.246 131.81C211.853 131.687 211.419 131.591 211.08 131.358C210.251 130.785 210.897 129.684 211.795 129.899L212.91 129.912Z" fill="#ED927C"/>
<path fill-rule="evenodd" clip-rule="evenodd" d="M214.991 123.544C215.702 123.324 216.486 123.049 217.044 122.538C217.287 122.314 217.723 121.762 217.42 121.489C217.175 121.263 216.378 121.538 216.088 121.583C215.09 121.745 214.166 121.493 213.251 121.164C212.13 120.762 211.228 120.339 210.025 120.274C208.282 120.186 206.718 120.642 205.058 121.235L204.676 121.487C204.639 121.459 204.605 121.437 204.564 121.422C203.482 122.177 204.442 123.905 205.172 124.448C206.342 125.323 208.069 125.074 209.407 124.803C211.258 124.433 213.161 124.109 214.991 123.544Z" fill="#F7A18A"/>
<path fill-rule="evenodd" clip-rule="evenodd" d="M225.057 133.905C225.519 133.117 224.72 132.018 223.873 131.178C222.422 129.738 221.086 128.306 219.527 126.954C217.682 125.351 215.401 124.276 213.335 123.103C211.917 122.301 210.184 121.97 208.625 121.493C205.432 120.52 200.653 121.469 200.653 121.469C199.459 121.534 197.732 122.286 196.695 122.647C196.106 122.849 196.321 123.513 196.362 124.113C196.401 124.653 196.588 125.065 196.809 125.579C197.197 126.475 197.803 127.666 198.49 128.358C198.993 128.867 200.011 128.276 200.677 128.208C201.924 128.081 203.245 128.324 204.13 129.329C205.846 131.283 207.833 133.389 210.633 132.919C212.27 132.642 215.599 129.05 215.599 129.05C215.599 129.05 218.077 129.42 220.776 130.879C221.58 131.318 224.576 134.722 225.057 133.905Z" fill="#F7A18A"/>
<path fill-rule="evenodd" clip-rule="evenodd" d="M220.293 132.394C220.128 131.713 219.771 131.558 219.542 131.32C219.954 131.898 218.887 131.795 218.691 131.739C217.961 131.524 217.216 131.427 216.466 131.26C216.067 131.171 215.304 130.898 215.085 131.408C214.875 131.9 215.414 132.216 215.738 132.414C216.61 132.947 217.645 133.467 218.68 133.581C219.353 133.652 220.521 133.331 220.293 132.394Z" fill="#F7A18A"/>
<path fill-rule="evenodd" clip-rule="evenodd" d="M218.206 133.639C217.781 133.929 215.334 132.97 214.888 132.727C213.741 132.102 212.512 132.476 213.337 133.349C213.764 133.8 215.635 134.797 216.657 134.948C217.132 135.016 218.85 135.008 218.206 133.639Z" fill="#F7A18A"/>
<path fill-rule="evenodd" clip-rule="evenodd" d="M215.251 135.479C215.687 135.109 215.422 134.696 215.422 134.696C215.422 134.696 214.748 134.78 213.427 134.333C212.089 133.882 211.806 133.572 211.271 133.791C210.438 134.135 211.151 134.806 211.885 135.154C212.538 135.463 212.946 135.767 213.666 135.822C214.284 135.874 214.888 135.784 215.251 135.479Z" fill="#F7A18A"/>
<path fill-rule="evenodd" clip-rule="evenodd" d="M217.261 122.273C217.261 122.273 216.681 122.821 214.791 123.337C214.237 123.488 211.752 124.227 209.935 124.229C209.233 124.231 207.644 124.105 207.644 124.105C207.644 124.105 208.943 124.859 209.901 124.844C210.863 124.829 213.691 123.969 214.445 123.761C215.197 123.55 216.32 123.107 216.683 122.821C217.046 122.54 217.261 122.273 217.261 122.273Z" fill="#ED927C"/>
<path fill-rule="evenodd" clip-rule="evenodd" d="M203.368 126.353C203.441 126.851 203.348 128.266 203.771 128.921C204.197 129.579 205.672 131.59 207.304 132.285C208.934 132.981 210.751 133.538 210.751 133.538L212.109 132.302C212.109 132.302 210.607 132.844 207.669 131.743C206.613 131.348 205.049 130.034 204.338 128.867C203.591 127.642 203.368 126.353 203.368 126.353Z" fill="#ED927C"/>
<path fill-rule="evenodd" clip-rule="evenodd" d="M214.673 126C214.673 126 213.958 126.862 212.577 128.137C211.595 129.041 209.233 130.533 209.233 130.533C209.233 130.533 212.042 129.041 212.88 128.465C214.699 127.217 215.599 125.822 215.599 125.822L214.673 126Z" fill="#ED927C"/>
<path fill-rule="evenodd" clip-rule="evenodd" d="M131.632 105.719C131.632 105.719 127.1 112.501 129.888 116.554C130.118 116.889 130.401 117.207 130.741 117.502C142.735 127.868 157.266 135.004 162.996 137.488C164.553 138.163 165.608 138.301 165.608 138.301L172.317 126.499C164.502 122.51 158.632 117.455 153.156 112.595C148.661 108.606 147.709 105.949 141.979 101.509L134.559 105.41C132.783 105.543 131.632 105.719 131.632 105.719Z" fill="#454658"/>
<path fill-rule="evenodd" clip-rule="evenodd" d="M203.533 134.976C195.797 133.987 183.76 137.531 173.874 138.002C170.423 138.167 167.725 138.889 165.032 138.161C161.098 137.127 159.599 134.385 161.8 130.959L161.901 130.806C164.098 127.488 167.629 125.284 171.555 124.627C179.512 123.78 195.434 120.173 200.801 120.642C203.479 125.628 204.304 132.482 203.533 134.976Z" fill="#454658"/>
<path fill-rule="evenodd" clip-rule="evenodd" d="M143.826 63.776C148.766 73.6628 144.677 85.0476 134.959 89.0689C125.178 93.1203 114.483 90.8185 109.543 80.9317C104.604 71.0471 108.27 59.1916 117.739 54.4546C127.205 49.7154 138.884 53.8914 143.826 63.776Z" fill="#280209"/>
<path fill-rule="evenodd" clip-rule="evenodd" d="M118.072 95.7511C118.072 95.7511 100.186 105.752 96.0174 107.88C87.8692 112.55 90.3025 122.265 93.1009 133.273C97.83 151.88 109.006 173.429 111.223 175.112C114.747 177.785 146.584 177.327 150.115 173.957C153.65 170.587 146.601 158.485 149.661 137.77C152.718 117.055 145.448 101.38 138.743 99.2136C137.153 99.2544 126.77 95.7511 126.77 95.7511H118.072Z" fill="#454658"/>
<path fill-rule="evenodd" clip-rule="evenodd" d="M121.514 71.9456L117.18 96.6753C117.18 96.6753 125.447 113.089 132.633 113.868C135.858 112.238 133.837 104.095 130.829 97.1739C130.829 95.3728 133.582 76.257 133.582 76.257L121.514 71.9456Z" fill="#F7A18A"/>
<path fill-rule="evenodd" clip-rule="evenodd" d="M143.526 63.9565C141.301 81.2282 120.333 79.0016 120.333 79.0016C120.333 79.0016 116.008 73.3146 114.062 76.2978C112.118 79.281 116.761 58.7875 128.793 58.1427C132.746 57.9299 143.526 63.9565 143.526 63.9565Z" fill="#EC1940"/>
<path fill-rule="evenodd" clip-rule="evenodd" d="M179.984 172.339C193.448 170.293 198.024 170.938 206.265 186.288C214.505 201.634 223.568 228.014 231.081 233.892C242.135 244.134 242.569 251.942 247.571 250.799C251.473 250.206 254.742 251.931 250.496 255.461C246.252 258.992 239.397 261.997 237.054 261.369C234.711 260.744 232.891 250.61 226.769 247.319C220.648 244.026 220.399 240.491 220.8 237.578C221.202 234.668 205.021 222.104 191.249 205.434C182.834 195.248 178.498 188.529 177.856 182.438C177.218 176.347 179.984 172.339 179.984 172.339Z" fill="#F7A18A"/>
<path fill-rule="evenodd" clip-rule="evenodd" d="M213.137 228.423C210.01 220.481 207.1 206.947 204.154 194.934C199.959 177.848 195.565 173.792 192.782 171.969C189.417 171.125 185.428 171.511 179.986 172.339C179.986 172.339 177.22 176.347 177.862 182.441C178.504 188.532 182.838 195.252 191.255 205.436C198.503 214.211 206.772 222.51 213.137 228.423Z" fill="#ED927C"/>
<path fill-rule="evenodd" clip-rule="evenodd" d="M184.086 185.845C184.086 185.845 180.502 212.898 177.166 215.647C174.782 217.614 173.09 217.745 171.421 209.676C169.755 201.608 174.016 171.494 174.016 171.494L184.086 185.845Z" fill="#41090E"/>
<path fill-rule="evenodd" clip-rule="evenodd" d="M181.23 200.484L148.074 206.061L166.793 179.197L181.039 176.294L189.582 178.262L181.23 200.484Z" fill="#ED927C"/>
<path fill-rule="evenodd" clip-rule="evenodd" d="M112.309 173.422C100.545 194.55 108.581 207.976 122.88 209.345C137.177 210.712 159.749 208.101 172.905 197.159C186.064 186.219 196.862 174.649 195.355 172.924C193.845 171.196 112.309 173.422 112.309 173.422Z" fill="#ED927C"/>
<path fill-rule="evenodd" clip-rule="evenodd" d="M178.068 188.082C180.476 180.85 184.206 176.403 189.582 176.3C195.235 176.197 198.714 179.139 198.956 188.394C199.244 199.416 199.633 235.917 199.124 252.146C198.737 264.432 202.317 268.363 202.015 281.173C201.787 290.819 212.064 285.946 208.093 290.95C205.363 294.386 197.238 293.262 192.249 292.628C187.801 292.063 194.552 278.725 188.399 275.159C183.117 272.1 183.012 267.133 186.35 263.37C188.179 261.307 188.038 257.036 187.312 252.293C183.723 228.895 178.71 223.561 176.559 206.061C175.906 200.811 176.595 192.497 178.068 188.082Z" fill="#F7A18A"/>
<path fill-rule="evenodd" clip-rule="evenodd" d="M203.544 286.193C201.841 286.716 200.771 287.724 198.943 287.784C195.237 287.906 194.124 284.205 193.879 278.664C193.8 276.876 193.366 274.632 192.666 272.356C191.474 268.477 187.911 265.584 187.245 262.555C187.179 262.644 186.416 263.288 186.345 263.368C183.008 267.129 183.113 272.096 188.394 275.157C194.547 278.722 187.799 292.061 192.245 292.626C197.236 293.26 207.633 294.386 210.363 290.948C212.944 287.694 205.986 288.704 203.544 286.193Z" fill="#41090E"/>
<path fill-rule="evenodd" clip-rule="evenodd" d="M246.931 250.818C245.492 252.099 244.682 253.593 242.859 254.534C239.158 256.439 235.731 253.408 232.363 248.682C229.419 244.555 226.206 238.535 220.802 237.579C220.785 237.688 220.766 237.798 220.74 237.901C219.464 242.81 217.72 248.162 224.812 248.273C233.076 248.409 233.723 263.349 238.561 261.685C243.993 259.819 252.888 256.862 253.726 252.529C254.516 248.439 252.295 250.616 246.931 250.818Z" fill="#41090E"/>
<path fill-rule="evenodd" clip-rule="evenodd" d="M187.177 261.99C183.017 263.093 181.771 267.639 182.267 269.99C182.763 272.339 184.425 278.271 184.705 282.847C184.982 287.423 185.231 292.674 185.231 292.674C185.231 292.674 187.177 292.674 187.331 292.119C187.486 291.567 188.568 273.528 188.568 273.528L187.177 261.99Z" fill="#41090E"/>
<path fill-rule="evenodd" clip-rule="evenodd" d="M220.805 237.581C217.596 239.938 217.637 245.696 219.462 247.51C222.209 250.242 228.955 260.178 231.455 265.13C231.455 265.13 233.433 264.187 233.278 263.628C233.126 263.069 224.069 246.765 224.069 246.765L220.805 237.581Z" fill="#41090E"/>
<path fill-rule="evenodd" clip-rule="evenodd" d="M106.642 171.494C106.642 171.494 99.6661 201.131 108.482 209.343C117.296 217.558 153.905 210.171 162.528 209.677C168.365 209.343 174.018 216.475 174.018 216.475C174.018 216.475 169.939 199.94 172.721 186.587C175.5 173.235 182.935 171.918 182.935 171.918L174.016 171.492H106.642V171.494Z" fill="#454658"/>
<path fill-rule="evenodd" clip-rule="evenodd" d="M101.653 162.942C104.638 169.278 101.85 181.024 104.022 184.177C106.195 187.328 118.626 184.618 126.769 178.056C134.918 171.494 149.863 171.494 149.863 171.494L101.653 162.942Z" fill="#454658"/>
<path fill-rule="evenodd" clip-rule="evenodd" d="M141.414 58.736L123.129 86.5005C123.129 86.5005 118.634 86.9304 116.31 88.3962C109.56 87.6053 95.0251 58.9466 123.189 54.7705C131.587 49.6982 141.414 58.736 141.414 58.736Z" fill="#280209"/>
<path fill-rule="evenodd" clip-rule="evenodd" d="M118.312 87.6977C110.688 86.7262 108.942 74.7009 113.325 76.2205C108.457 52.9028 136.286 49.4403 142.997 67.2923C145.54 73.766 143.489 75.163 144.163 79.913C144.713 83.7709 143.575 87.0916 141.807 90.0984C140.706 91.9705 139.08 93.5975 138.017 95.4093C136.292 98.3431 133.949 98.0272 129.465 96.5893C124.929 95.1299 121.3 91.8695 118.312 87.6977Z" fill="#F7A18A"/>
<path fill-rule="evenodd" clip-rule="evenodd" d="M143.848 79.2424C143.785 79.8613 143.62 80.5083 143.62 80.5083C143.618 80.5083 142.926 80.7297 141.728 80.5341C141.32 80.4653 140.856 80.3492 140.336 80.1601C140.113 78.8318 140.057 78.2064 140.057 78.2064L140.313 77.6949C140.313 77.6949 140.607 77.624 140.976 77.5487L141.685 77.4499C142.411 77.4069 143.137 77.5186 143.813 77.7937L143.833 77.8023C143.828 77.8002 143.919 78.5159 143.848 79.2424Z" fill="white"/>
<path fill-rule="evenodd" clip-rule="evenodd" d="M136.267 79.8549C136.267 79.8549 135.73 80.0225 134.961 80.2331C134.308 80.4029 133.487 80.6071 132.686 80.7576C132.044 80.8758 131.415 80.9574 130.893 80.9682C128.874 80.6114 127.607 79.9322 127.607 79.9322C128.784 78.3246 130.571 77.2628 132.283 77.0264C133.273 76.8867 134.179 76.9662 134.774 77.2177L135.315 77.8001C135.974 78.7028 136.267 79.8549 136.267 79.8549Z" fill="white"/>
<path fill-rule="evenodd" clip-rule="evenodd" d="M135.433 78.7243C135.416 79.3003 135.238 79.8269 134.961 80.2331C134.308 80.4029 133.487 80.6071 132.686 80.7576C132.107 80.3449 131.724 79.5325 131.75 78.6147C131.767 77.9979 131.969 77.4391 132.283 77.0264C133.273 76.8867 134.179 76.9662 134.774 77.2177L135.315 77.8001C135.399 78.086 135.442 78.3998 135.433 78.7243Z" fill="#41090E"/>
<path fill-rule="evenodd" clip-rule="evenodd" d="M143.848 79.2424C143.785 79.8613 143.62 80.5083 143.62 80.5083C143.618 80.5083 142.926 80.7297 141.728 80.5341C141.502 80.0634 141.38 79.4766 141.397 78.8404C141.412 78.3289 141.517 77.8539 141.687 77.4499C142.411 77.4069 143.137 77.5186 143.813 77.7937L143.833 77.8023C143.828 77.8002 143.919 78.5159 143.848 79.2424Z" fill="#41090E"/>
<path fill-rule="evenodd" clip-rule="evenodd" d="M127.607 79.9322C128.118 79.483 128.655 79.079 129.214 78.7179C129.774 78.3525 130.35 78.0194 130.942 77.7507C131.241 77.6131 131.548 77.4928 131.851 77.4025L132.311 77.2972L132.794 77.2306C133.116 77.194 133.442 77.179 133.769 77.1876L134.254 77.2263L134.731 77.3187L134.703 77.3037L135.313 77.8023L134.845 77.1317L134.84 77.1295L134.815 77.1145L134.323 76.9103L133.81 76.7857C133.462 76.7233 133.107 76.7104 132.755 76.7212L132.231 76.762L131.698 76.8738C131.353 76.9684 131.024 77.108 130.711 77.2564C130.086 77.5658 129.508 77.957 128.975 78.4019C128.458 78.849 127.97 79.3519 127.607 79.9322Z" fill="#280209"/>
<path fill-rule="evenodd" clip-rule="evenodd" d="M124.222 76.3365C125.182 75.9324 126.325 75.4746 127.07 75.2188C128.099 75.0254 135.891 75.5885 135.891 75.5885C136.408 75.4574 136.982 75.3005 137.411 75.178C137.703 75.0963 137.886 74.832 137.886 74.5526L137.83 74.2903C137.637 73.854 137.149 73.637 136.702 73.7874L135.384 74.2345C135.384 74.2345 130.964 73.6541 127.981 73.8712C126.005 74.4859 124.588 75.2876 124.222 76.3365Z" fill="#280209"/>
<path fill-rule="evenodd" clip-rule="evenodd" d="M142.621 73.8519L143.42 73.7402C143.809 73.7144 144.206 73.8369 144.475 74.1185C144.797 74.458 144.743 74.7869 144.546 75.0448C144.297 75.3715 143.871 75.5026 143.472 75.4188C143.182 75.3565 142.853 75.2597 142.533 75.1523C141.885 74.9266 141.956 73.9959 142.621 73.8519Z" fill="#280209"/>
<path fill-rule="evenodd" clip-rule="evenodd" d="M131.462 79.0038C131.462 79.3735 131.759 79.6744 132.132 79.6744C132.504 79.6744 132.804 79.3735 132.804 79.0038C132.802 78.6277 132.504 78.3311 132.132 78.3311C131.759 78.3311 131.462 78.6298 131.462 79.0038Z" fill="white"/>
<path fill-rule="evenodd" clip-rule="evenodd" d="M140.959 78.9694C140.959 79.2875 141.215 79.5454 141.537 79.5454C141.855 79.5454 142.112 79.2875 142.112 78.9694C142.112 78.647 141.853 78.3912 141.537 78.3912C141.215 78.3912 140.961 78.647 140.959 78.9694Z" fill="white"/>
<path fill-rule="evenodd" clip-rule="evenodd" d="M140.311 77.6948C140.622 77.7271 140.929 77.7034 141.217 77.6841C141.509 77.669 141.792 77.6712 142.078 77.6712C142.362 77.6798 142.649 77.6884 142.937 77.7163C143.227 77.74 143.517 77.7765 143.831 77.8001C143.59 77.596 143.307 77.4541 143.01 77.3596C142.712 77.2628 142.4 77.2091 142.087 77.2069C141.773 77.2005 141.457 77.2435 141.159 77.3252C140.852 77.4133 140.585 77.5379 140.311 77.6948Z" fill="#280209"/>
<path fill-rule="evenodd" clip-rule="evenodd" d="M139.488 84.4952C138.644 83.8955 137.978 82.9026 137.729 82.103C138.595 83.0831 139.516 84.0116 140.54 83.9686C140.94 84.8025 139.52 85.7096 137.918 86.0105C138.927 85.5398 139.756 84.781 139.488 84.4952Z" fill="#F27466"/>
<path fill-rule="evenodd" clip-rule="evenodd" d="M137.729 82.1052C138.595 83.0832 139.516 84.0117 140.54 83.9687C140.6 84.0976 140.62 84.2266 140.6 84.3555C139.722 84.3534 138.904 83.9042 138.143 83.0101C137.963 82.7006 137.819 82.3911 137.729 82.1052Z" fill="#F48575"/>
<path fill-rule="evenodd" clip-rule="evenodd" d="M111.824 79.6786C111.654 78.5094 112.185 77.568 112.883 77.3466C113.819 77.1102 114.951 77.77 115.787 78.9027C116.633 80.1257 116.779 81.1143 116.955 82.7392C117.124 83.9127 118.016 84.5854 118.752 84.6327C118.752 84.6327 119.468 84.953 119.184 85.5161C118.903 86.0792 118.241 85.299 117.651 85.4258C117.06 85.5526 116.235 86.1458 114.556 85.0626C112.876 83.9815 112.213 81.9332 111.929 80.4029L111.824 79.6786Z" fill="#F48D7D"/>
<path fill-rule="evenodd" clip-rule="evenodd" d="M116.233 84.2481C115.926 83.7322 115.879 82.8983 115.96 82.3395C116.048 81.7248 116.411 81.3401 115.922 80.6953C115.602 80.274 115.065 80.4503 114.865 80.8393C114.646 81.2606 114.618 81.8 114.713 82.3653C114.76 82.6447 114.833 82.922 114.908 83.1928C114.942 83.3174 115.073 83.5904 115.035 83.7129C114.957 83.9536 114.816 83.5324 114.771 83.4034C114.614 82.965 114.5 82.4405 114.466 81.9741C114.406 81.181 114.794 80.6695 114.648 79.8743C114.317 78.0775 112.799 77.7787 112.114 78.7459C111.966 79.2553 111.934 79.913 111.957 80.5491C111.946 80.4976 111.938 80.4481 111.927 80.3966L111.822 79.6765C111.652 78.5073 112.183 77.5659 112.881 77.3445C113.817 77.1081 114.949 77.768 115.784 78.9006C116.63 80.1236 116.777 81.1122 116.953 82.7371C117.077 83.5904 117.582 84.1772 118.132 84.4523C117.636 85.0648 116.757 85.1271 116.233 84.2481Z" fill="#F48575"/>
<path fill-rule="evenodd" clip-rule="evenodd" d="M114.556 85.0583C113.035 84.0804 112.35 82.3072 112.022 80.8457C113.637 84.8821 116.323 85.5183 116.985 85.6171C116.435 85.7568 115.692 85.7934 114.556 85.0583Z" fill="#F27466"/>
<path fill-rule="evenodd" clip-rule="evenodd" d="M111.822 79.6786C111.648 78.5202 112.088 77.6067 112.771 77.2758C113.564 76.891 114.61 77.4907 115.355 78.2343C116.16 79.0339 116.673 80.1966 116.893 81.4948C117.017 82.2363 116.993 82.9929 117.376 83.6398C117.724 84.2287 118.282 84.4952 118.75 84.5726C118.797 84.5812 118.804 84.6951 118.757 84.6951C118.147 84.6801 117.376 84.2588 117.021 83.3625C116.804 82.8166 116.8 82.2084 116.716 81.6324C116.62 80.9725 116.454 80.3406 116.173 79.756C115.589 78.5331 114.61 77.7078 113.675 77.467C112.653 77.207 111.661 78.0581 111.822 79.6808C111.828 79.6851 111.822 79.6851 111.822 79.6786Z" fill="#F27466"/>
<path fill-rule="evenodd" clip-rule="evenodd" d="M136.142 92.9183C136.142 92.9183 135.208 92.9097 134.858 92.8495C134.858 92.8495 135.437 93.4921 136.142 92.9183Z" fill="#F48D7D"/>
<path fill-rule="evenodd" clip-rule="evenodd" d="M137.65 89.7975L137.364 91.4288C137.364 91.4288 136.037 91.7211 135.727 91.7233C135.418 91.7254 133.659 91.1171 133.659 91.1171L132.62 90.5325C132.62 90.5325 131.679 89.7867 131.621 89.6771C131.561 89.5654 131.239 89.0173 131.149 88.9077C131.058 88.7959 130.704 88.4434 130.704 88.4434L130.919 88.3317L131.911 88.7336C131.911 88.7336 134.28 89.3203 134.402 89.3203L137.65 89.7975Z" fill="#EC1940"/>
<path fill-rule="evenodd" clip-rule="evenodd" d="M131.039 88.3338C131.157 88.3875 132.607 88.8948 132.607 88.8948C132.607 88.8948 134.067 89.1054 134.647 89.1828C135.227 89.2623 136.666 89.5288 136.909 89.5546C137.055 89.5697 137.233 89.6513 137.355 89.718C137.437 89.6857 137.516 89.6642 137.555 89.6879C137.647 89.7437 137.815 90.6077 137.723 90.8076C137.634 91.0032 137.579 91.4008 137.484 91.4309L137.016 90.9538L137.08 90.3047C136.861 90.2316 136.198 90.0511 134.86 90.0167C134.86 90.0167 133.019 89.6255 132.085 89.5525C132.658 90.2058 134.121 91.0591 134.121 91.0591L132.313 90.539C132.22 90.4551 131.801 89.9565 131.621 89.6793C131.602 89.647 131.582 89.6126 131.563 89.5804C131.213 89.6879 130.998 88.8281 130.998 88.8281L130.917 88.3338C130.919 88.3338 130.919 88.2779 131.039 88.3338Z" fill="#621618"/>
<path fill-rule="evenodd" clip-rule="evenodd" d="M137.405 89.9114C137.405 89.9114 137.259 90.4703 137.233 90.8657C137.233 90.8657 135.448 91.302 134.215 90.9732C132.989 90.6444 131.447 89.3763 131.119 88.9636C130.792 88.5553 131.411 89.6535 131.469 89.7352C131.529 89.819 132.678 90.8163 132.77 90.9001C132.86 90.984 134.119 91.7641 134.523 91.7921C134.922 91.8179 136.256 91.8931 136.595 91.9189C136.937 91.9447 137.553 91.7985 137.708 91.7125C137.86 91.6266 137.976 91.201 138.006 91.0893C138.034 90.9754 138.122 90.6917 138.18 90.4681C138.238 90.2446 138.197 89.6858 138.195 89.602C138.193 89.5181 138.193 89.5181 138.193 89.5181L137.405 89.9114Z" fill="#F48575"/>
<path fill-rule="evenodd" clip-rule="evenodd" d="M137.862 89.8233C137.862 89.8233 137.596 90.4961 137.791 91.1151C137.791 91.1151 136.294 91.3257 134.984 91.2483C133.292 91.1473 131.892 90.0662 130.882 88.5273L130.736 88.2801L130.111 87.9599L129.903 87.8524C129.903 87.8524 130.631 89.0775 131.737 90.3176C132.56 91.2397 133.232 92.0908 134.523 92.4433C135.377 92.6776 137.471 92.7979 138.217 92.2477C139.039 91.6352 138.584 91.2569 138.534 90.582C138.515 90.3005 138.575 90.0211 138.7 89.7653C138.794 89.574 139.292 88.8088 139.561 88.8389L138.854 88.7616L137.974 89.0453L137.862 89.8233Z" fill="#F27466"/>
<path fill-rule="evenodd" clip-rule="evenodd" d="M138.479 91.5922C138.479 91.5922 138.625 91.1666 137.639 91.2869C136.651 91.4052 135.448 91.4438 134.46 91.3665C133.474 91.2891 133.5 91.7985 134.241 92.1918C134.986 92.5851 138.191 92.8796 138.479 91.5922Z" fill="#F48575"/>
<path fill-rule="evenodd" clip-rule="evenodd" d="M137.987 91.7362C137.987 91.7362 138.045 91.5384 136.9 91.6008C135.757 91.6653 134.77 91.7018 134.737 91.9296C134.705 92.1574 135.483 92.4648 136.722 92.3423C137.963 92.2198 137.961 92.022 137.987 91.7362Z" fill="#F48D7D"/>
<path fill-rule="evenodd" clip-rule="evenodd" d="M137.974 89.0475L138.854 88.7638L139.561 88.8411C139.293 88.811 138.794 89.5762 138.7 89.7675C138.601 89.9674 138.543 90.1844 138.534 90.4037C138.451 90.322 138.277 90.1952 138.06 90.2984C138.036 90.3091 138.013 90.3199 137.989 90.3306C137.98 90.5391 137.974 90.9152 138.045 91.1129L137.798 91.1151C137.602 90.4961 137.869 89.8234 137.869 89.8234L137.974 89.0475ZM130.111 87.9599L130.736 88.2802L130.882 88.5273C131.653 89.703 132.652 90.6122 133.842 91.0205L133.846 91.0334C133.846 91.0334 132.648 90.8507 131.872 89.8878C131.819 89.8986 131.754 89.9136 131.686 89.9373C132.038 90.4918 132.807 91.3773 133.133 91.747C132.622 91.3451 132.201 90.8464 131.733 90.3198C130.627 89.0797 129.899 87.8546 129.899 87.8546L130.111 87.9599Z" fill="#F27466"/>
<path fill-rule="evenodd" clip-rule="evenodd" d="M138.889 89.0388C138.889 89.0388 138.532 89.5675 138.109 89.877C138.109 89.877 136.425 90.1972 134.063 89.8254C131.716 89.4557 130.554 88.2543 130.554 88.2543C130.554 88.2543 133.034 88.783 133.52 88.7787C134.005 88.7744 136.047 88.841 136.2 88.841C136.352 88.8389 138 88.8539 138 88.8539L138.889 89.0388Z" fill="white"/>
<path fill-rule="evenodd" clip-rule="evenodd" d="M130.556 88.2543C130.556 88.2543 133.036 88.783 133.522 88.7787C133.835 88.7766 134.782 88.8023 135.468 88.8217L135.962 89.2279C135.962 89.2279 134.016 89.5782 131.984 89.0796C132.669 89.4407 133.732 89.7179 134.456 89.8813C134.329 89.8662 134.2 89.8448 134.067 89.8254C131.718 89.4557 130.556 88.2543 130.556 88.2543Z" fill="#E7DDED"/>
<path fill-rule="evenodd" clip-rule="evenodd" d="M129.607 87.5537C129.695 87.6354 129.753 87.7428 129.841 87.8224C130.315 88.2544 131.157 88.5768 131.789 88.7917C132.517 89.0324 133.305 89.2216 134.097 89.2409C135.225 89.2602 136.354 89.1678 137.484 89.1592C138.094 89.1528 138.768 89.1463 139.376 88.9486C140.104 88.7229 140.517 88.2222 140.832 87.5924C140.832 87.5924 140.304 88.3081 139.608 88.4242C138.91 88.5424 138.178 88.5467 137.632 88.7165C137.632 88.7165 136.745 88.4758 135.074 88.6026C133.797 88.695 132.553 88.5381 131.284 88.278C130.017 88.0137 129.607 87.5537 129.607 87.5537Z" fill="#F27466"/>
<path fill-rule="evenodd" clip-rule="evenodd" d="M140.837 87.5945C140.48 88.3424 139.905 88.884 139.005 89.0925C138.481 89.2107 137.933 89.2129 137.396 89.2193C136.741 89.2279 136.088 89.2623 135.433 89.2817C134.845 89.2988 134.243 89.3246 133.661 89.258C133.069 89.1892 132.497 89.0474 131.937 88.8711C131.492 88.7314 131.056 88.5659 130.644 88.3704C130.421 88.265 130.208 88.1425 130.01 88.005C129.836 87.8846 129.705 87.7449 129.549 87.6095C129.467 87.5407 129.607 87.4332 129.678 87.5192C129.802 87.6697 129.894 87.8287 130.051 87.9577C130.232 88.1081 130.459 88.2199 130.674 88.3274C131.082 88.5251 131.514 88.6798 131.954 88.8217C132.482 88.9915 133.03 89.1119 133.588 89.1699C134.168 89.2322 134.763 89.1978 135.345 89.1763C135.91 89.1548 136.475 89.129 137.04 89.1119C137.583 89.0968 138.131 89.1162 138.672 89.0603C139.181 89.0065 139.681 88.8711 140.074 88.5702C140.416 88.308 140.641 87.9491 140.837 87.5945Z" fill="#BF344C"/>
<path fill-rule="evenodd" clip-rule="evenodd" d="M143.586 60.3243C140.618 57.1498 138.582 58.0181 137.482 59.1013C127.401 54.3621 121.628 62.6863 121.628 62.6863C120.947 70.7311 115.492 75.6595 115.492 75.6595C115.492 75.6595 118.866 77.4584 126.233 75.0577C128.481 74.3204 130.418 72.5666 132.031 70.4818C129.323 75.7562 125.434 79.6851 125.434 79.6851C134.117 74.976 136.915 62.2973 137.186 60.9583C138.337 61.8718 140.615 63.8555 141.404 65.8952C142.471 68.67 143.238 74.4623 144.921 74.1571C144.921 74.1571 148.033 65.0656 143.586 60.3243Z" fill="#280209"/>
<path fill-rule="evenodd" clip-rule="evenodd" d="M113.323 76.2182C109.412 65.5577 111.493 58.925 119.564 56.3179C127.884 53.943 133.855 54.8693 137.48 59.0991C126.651 67.3223 120.292 72.6869 118.409 75.193C118.076 77.5508 118.299 79.4766 119.083 80.9725C118.901 81.4883 118.673 81.8859 118.398 82.1653C117.283 78.7651 115.591 76.7792 113.323 76.2182Z" fill="#280209"/>
<path fill-rule="evenodd" clip-rule="evenodd" d="M129.465 96.5893C126.928 95.7747 124.676 94.3949 122.661 92.6088C121.823 91.8673 121.025 91.0527 120.266 90.1801C119.712 89.5461 119.182 88.8798 118.669 88.1877L118.435 89.5181L117.908 92.5228C118.617 93.2773 119.315 93.9801 120.004 94.6356C120.412 95.0268 120.816 95.3965 121.218 95.7532C125.399 99.4672 129.141 101.313 132.439 101.29C131.963 99.9121 131.415 98.5237 130.831 97.1804C130.831 97.1503 130.833 97.118 130.833 97.0836C130.835 97.0621 130.835 97.0385 130.837 97.0127C130.401 96.8838 129.946 96.7419 129.465 96.5893Z" fill="#ED927C"/>
<path fill-rule="evenodd" clip-rule="evenodd" d="M150.628 168.754C151.863 167.449 151.676 167.567 151.059 165.837C150.619 164.599 149.773 163.574 148.809 162.409C149.734 162.656 150.374 163.08 151.008 163.497C151.513 163.826 151.983 164.21 152.468 164.571C153.92 165.655 153.92 165.68 152.956 167.198C152.578 167.791 152.234 168.399 151.873 169.003C151.42 169.119 151.023 168.932 150.628 168.754Z" fill="#ED927C"/>
<path fill-rule="evenodd" clip-rule="evenodd" d="M151.111 158.321C149.971 158.055 148.832 157.793 147.698 157.515C147.677 157.509 147.694 157.339 147.694 157.242C148.966 156.61 150.248 156.006 151.334 155.054C152.013 154.461 152.224 155.117 152.305 155.598C152.507 156.746 151.863 157.567 151.111 158.321Z" fill="#EB917A"/>
<path fill-rule="evenodd" clip-rule="evenodd" d="M147.17 168.889C148.154 168.389 148.302 167.931 147.78 166.794C147.396 165.953 146.955 165.137 146.597 164.264C147.645 165.132 148.585 166.093 149.365 167.213C149.818 167.86 149.548 168.404 149.219 168.96C148.721 169.28 148.173 169.293 147.61 169.235C147.443 169.265 147.29 169.242 147.2 169.072C147.093 169.031 147.08 168.969 147.17 168.889Z" fill="#ED927C"/>
<path fill-rule="evenodd" clip-rule="evenodd" d="M147.17 168.889C147.181 168.952 147.189 169.014 147.202 169.076C145.398 169.622 143.966 168.967 142.718 167.701C142.372 167.028 141.842 166.764 141.069 166.628C138.99 166.263 136.992 165.588 135.165 164.483C135.105 164.105 135.047 163.729 134.984 163.353C135.914 164.543 137.375 164.606 138.65 164.995C140.351 165.519 142.119 165.711 143.895 165.294C144.391 165.18 144.737 165.328 144.99 165.764C145.207 166.143 145.43 166.517 145.68 166.871C146.169 167.568 146.287 168.257 145.48 169.139C146.214 169.031 146.691 168.96 147.17 168.889Z" fill="#ED927C"/>
<path fill-rule="evenodd" clip-rule="evenodd" d="M130.82 157.425C132.923 156.116 135.221 156.013 137.583 156.34C139.952 156.557 145.424 157.26 147.692 157.24C148.822 157.627 150.074 157.629 151.109 158.319C152.477 158.809 153.841 159.31 155.215 159.781C155.737 159.957 156.205 160.178 156.493 160.673C157.614 162.598 158.828 164.483 159.307 166.712C159.463 167.297 159.652 167.879 159.513 168.5C159.034 168.866 158.598 168.646 158.273 168.305C157.7 167.705 157.163 167.028 156.989 166.209C156.491 163.909 154.973 162.654 152.868 161.934C152.591 162.027 152.87 162.083 152.883 162.158C153.39 162.723 153.869 163.321 154.412 163.847C155.144 164.556 155.25 165.223 154.676 166.125C154.081 167.06 153.478 167.965 152.692 168.747C152.458 168.982 152.271 169.317 151.873 169.003C151.783 168.223 152.335 167.722 152.687 167.142C153.538 165.749 153.534 165.678 152.262 164.72C151.38 164.056 150.499 163.391 149.545 162.925C150.392 164.077 151.283 165.276 151.637 166.772C151.865 167.737 151.592 168.294 150.626 168.754C150.112 168.518 149.676 168.823 149.219 168.965C149.717 166.912 147.87 166.11 147.003 164.786C147.297 165.195 147.488 165.655 147.718 166.097C147.967 166.572 148.188 167.06 148.238 167.606C148.321 168.496 148.064 168.812 147.101 169.003C146.867 169.033 146.635 169.07 146.403 169.102C145.493 169.227 145.493 169.227 145.697 168.294C145.985 166.983 144.666 165.459 143.377 165.648C140.684 166.044 138.21 165.248 135.751 164.324C135.289 164.15 135.1 163.785 134.982 163.351C134.168 160.976 132.742 159.024 130.82 157.425Z" fill="#F7A18A"/>
<path fill-rule="evenodd" clip-rule="evenodd" d="M90.5022 113.586C86.1789 119.978 81.5121 160.501 87.7446 166.074C99.9711 172.795 123.174 163.847 135.938 170.426C137.622 168.494 136.039 156.733 135.646 155.944C118.772 155.811 105.755 152.907 100.912 154.431C103.549 140.654 103.094 139.246 104.842 127.092C104.183 113.059 96.7776 105.045 90.5022 113.586Z" fill="#454658"/>
<path fill-rule="evenodd" clip-rule="evenodd" d="M210.988 170.396L167.515 170.409L176.644 136.665L218.768 136.656L219.84 137.679L210.988 170.396Z" fill="#D0BAA1"/>
<path d="M210.754 170.863L146.767 170.94L146.77 173.555L210.757 173.479L210.754 170.863Z" fill="#D0BAA1"/>
<path fill-rule="evenodd" clip-rule="evenodd" d="M211.02 170.353L168.546 170.409L177.497 137.327L219.417 137.275L219.855 137.692H219.857L211.02 170.353Z" fill="#D0BAA1"/>
<path fill-rule="evenodd" clip-rule="evenodd" d="M167.395 173.534L146.769 173.555L146.766 170.94L167.392 170.916L167.395 173.534Z" fill="#D0BAA1"/>
<path fill-rule="evenodd" clip-rule="evenodd" d="M180.824 171.55L172.852 171.559V170.411L180.824 170.4V171.55Z" fill="#454658"/>
<path fill-rule="evenodd" clip-rule="evenodd" d="M208.099 171.516L201.28 171.522L201.278 170.375L208.099 170.364V171.516Z" fill="#454658"/>
<path fill-rule="evenodd" clip-rule="evenodd" d="M177.778 137.746L219.855 137.692L219.417 137.275L177.497 137.327L168.546 170.409L168.939 170.407L177.778 137.746Z" fill="white"/>
<path fill-rule="evenodd" clip-rule="evenodd" d="M114.53 84.3232C112.945 83.3023 112.23 81.4539 111.888 79.9323C113.572 84.1406 116.371 84.8047 117.058 84.9036C116.493 85.0497 115.713 85.0862 114.53 84.3232Z" fill="#F27466"/>
<path fill-rule="evenodd" clip-rule="evenodd" d="M127.036 59.2217C120.443 60.1781 118.089 65.4482 119.635 72.0487L118.08 73.6348C118.08 73.6348 118.647 77.1253 118.75 79.5196L117.874 80.1902C117.874 80.1902 116.738 76.2376 113.19 75.0921C113.19 75.0921 109.487 67.5093 112.537 61.3774C113.289 59.37 114.856 55.8344 122.068 53.4422C126.276 52.0474 141.908 52.2859 142.022 59.4259C145.387 61.4226 146.268 68.6248 145.579 73.9186C145.454 75.2683 144.247 77.0501 144.296 78.3891V78.3869L144.294 78.3826C143.923 76.704 144.853 77.0716 145.145 74.8084C145.375 73.0245 144.99 69.764 144.165 65.8136C143.242 63.3591 141.91 61.0443 140.274 59.8128C135.255 59.0605 138.238 60.479 133.277 60.479C130.803 60.4769 127.036 59.2217 127.036 59.2217Z" fill="#280209"/>
<path fill-rule="evenodd" clip-rule="evenodd" d="M149.382 130.546C134.984 134.64 119.526 137.331 103.332 139.132C103.152 140.68 102.959 142.214 102.707 143.968C125.294 141.191 141.526 137.75 150.02 134.954C150.157 133.639 150.256 132.347 150.312 131.079C150.327 130.808 150.336 130.537 150.344 130.269C150.024 130.363 149.702 130.454 149.382 130.546Z" fill="#D0BAA1"/>
<path fill-rule="evenodd" clip-rule="evenodd" d="M103.916 134.103C119.998 132.504 133.344 130.219 143.949 127.245C146.193 126.615 148.313 125.957 150.312 125.265C150.235 123.627 150.093 122.043 149.893 120.524C146.665 121.676 142.943 122.746 138.732 123.735C129.641 125.865 118.256 127.616 104.578 128.979C104.305 130.944 104.095 132.607 103.916 134.103Z" fill="#D0BAA1"/>
<path fill-rule="evenodd" clip-rule="evenodd" d="M116.66 101.821C121.119 109.403 125.404 114.097 129.51 115.896C130.491 116.328 131.46 116.593 132.422 116.694C136.397 115.718 137.452 111.778 135.581 104.875C135.289 103.794 134.924 102.64 134.488 101.414C134.08 100.267 133.608 99.0545 133.075 97.7822C132.317 97.55 131.554 97.3115 130.833 97.0815C130.833 97.118 130.831 97.1481 130.831 97.1782C131.415 98.5215 131.962 99.91 132.439 101.288C132.536 101.565 132.63 101.842 132.718 102.117C133.096 103.265 133.419 104.4 133.672 105.485C134.617 109.519 134.583 112.885 132.633 113.87C131.451 113.743 130.24 113.19 129.044 112.361C125.988 110.239 123.011 106.3 120.803 102.895C118.613 99.5188 117.182 96.6774 117.182 96.6774L117.264 96.2046C116.622 96.5614 115.632 97.1159 114.418 97.7929C115.17 99.2136 115.917 100.557 116.66 101.821Z" fill="#D0BAA1"/>
</g>
<defs>
<clipPath id="clip0_687_18347">
<rect width="544" height="334" fill="white"/>
</clipPath>
</defs>
</svg>
