<svg width="15" height="15" viewBox="0 0 15 15" fill="none" xmlns="http://www.w3.org/2000/svg">
<path d="M7.4826 8.03162C9.21337 8.03162 10.6014 6.62644 10.6014 4.9128C10.6014 3.19917 9.21337 1.77686 7.4826 1.77686C5.75183 1.77686 4.36379 3.18203 4.36379 4.89567C4.36379 6.6093 5.75183 8.03162 7.4826 8.03162ZM7.4826 2.5994C8.75069 2.5994 9.77887 3.62758 9.77887 4.89567C9.77887 6.16376 8.75069 7.19194 7.4826 7.19194C6.21451 7.19194 5.18633 6.18089 5.18633 4.9128C5.18633 3.64472 6.21451 2.5994 7.4826 2.5994ZM2.06752 12.9155H12.932C13.1547 12.9155 13.3432 12.727 13.3432 12.5042C13.3432 10.345 11.5782 8.57998 9.41901 8.57998H5.58047C3.42129 8.57998 1.65625 10.345 1.65625 12.5042C1.65625 12.727 1.84475 12.9155 2.06752 12.9155ZM5.58047 9.40252H9.41901C10.9956 9.40252 12.2808 10.5678 12.4864 12.0929H2.51307C2.7187 10.5678 4.00393 9.40252 5.58047 9.40252Z" fill="white"/>
</svg>
