<svg width="19" height="19" viewBox="0 0 19 19" fill="none" xmlns="http://www.w3.org/2000/svg">
<path d="M8.55623 3.34921C8.732 2.95486 8.81992 2.75769 8.94232 2.69697C9.04861 2.64422 9.17343 2.64422 9.27973 2.69697C9.40212 2.75769 9.49005 2.95486 9.66581 3.34921L11.0659 6.49021C11.1179 6.60679 11.1439 6.66508 11.1841 6.70971C11.2196 6.74921 11.2631 6.7808 11.3117 6.80243C11.3666 6.82687 11.43 6.83357 11.557 6.84696L14.9769 7.20792C15.4063 7.25324 15.6209 7.27589 15.7165 7.37353C15.7995 7.45833 15.8381 7.57708 15.8207 7.69449C15.8009 7.82964 15.6405 7.97412 15.3198 8.26317L12.7651 10.5654C12.6704 10.6508 12.6229 10.6936 12.5929 10.7456C12.5663 10.7917 12.5497 10.8428 12.5442 10.8956C12.5379 10.9554 12.5511 11.0178 12.5776 11.1427L13.2911 14.5067C13.3807 14.9291 13.4255 15.1402 13.3622 15.2613C13.3071 15.3665 13.2062 15.4398 13.0892 15.4597C12.9545 15.4824 12.7675 15.3746 12.3935 15.1589L9.4145 13.4407C9.30395 13.3769 9.24868 13.3451 9.18991 13.3326C9.1379 13.3216 9.08415 13.3216 9.03214 13.3326C8.97337 13.3451 8.9181 13.3769 8.80755 13.4407L5.82861 15.1589C5.45461 15.3746 5.26761 15.4824 5.13291 15.4597C5.01591 15.4398 4.91489 15.3665 4.85989 15.2613C4.79658 15.1402 4.84137 14.9291 4.93095 14.5067L5.64447 11.1427C5.67096 11.0178 5.6842 10.9554 5.67791 10.8956C5.67235 10.8428 5.65574 10.7917 5.62917 10.7456C5.59914 10.6936 5.55173 10.6508 5.45692 10.5654L2.9023 8.26317C2.58158 7.97412 2.42122 7.82964 2.40128 7.69449C2.38397 7.57708 2.42255 7.45833 2.50557 7.37353C2.60114 7.27589 2.81582 7.25324 3.24518 7.20792L6.66511 6.84696C6.79204 6.83357 6.8555 6.82687 6.91038 6.80243C6.95893 6.7808 7.00241 6.74921 7.03799 6.70971C7.07819 6.66508 7.10417 6.60679 7.15614 6.49021L8.55623 3.34921Z" fill="#D8C30B" stroke="#D8C30B" stroke-linecap="round" stroke-linejoin="round"/>
</svg>
