<svg width="19" height="19" viewBox="0 0 19 19" fill="none" xmlns="http://www.w3.org/2000/svg">
<path d="M8.7784 3.34921C8.95417 2.95486 9.04209 2.75769 9.16448 2.69697C9.27078 2.64422 9.3956 2.64422 9.5019 2.69697C9.62429 2.75769 9.71221 2.95486 9.88798 3.34921L11.2881 6.49021C11.3401 6.60679 11.366 6.66508 11.4063 6.70971C11.4418 6.74921 11.4853 6.7808 11.5338 6.80243C11.5887 6.82687 11.6522 6.83357 11.7791 6.84696L15.1991 7.20792C15.6284 7.25324 15.8431 7.27589 15.9387 7.37353C16.0217 7.45833 16.0602 7.57708 16.0429 7.69449C16.023 7.82964 15.8627 7.97412 15.542 8.26317L12.9873 10.5654C12.8925 10.6508 12.8451 10.6936 12.8151 10.7456C12.7885 10.7917 12.7719 10.8428 12.7663 10.8956C12.76 10.9554 12.7732 11.0178 12.7997 11.1427L13.5133 14.5067C13.6029 14.9291 13.6477 15.1402 13.5844 15.2613C13.5293 15.3665 13.4283 15.4398 13.3113 15.4597C13.1766 15.4824 12.9896 15.3746 12.6156 15.1589L9.63667 13.4407C9.52612 13.3769 9.47084 13.3451 9.41208 13.3326C9.36007 13.3216 9.30631 13.3216 9.2543 13.3326C9.19554 13.3451 9.14026 13.3769 9.02972 13.4407L6.05078 15.1589C5.67678 15.3746 5.48978 15.4824 5.35508 15.4597C5.23807 15.4398 5.13706 15.3665 5.08206 15.2613C5.01875 15.1402 5.06353 14.9291 5.15312 14.5067L5.86664 11.1427C5.89312 11.0178 5.90637 10.9554 5.90008 10.8956C5.89451 10.8428 5.87791 10.7917 5.85133 10.7456C5.82131 10.6936 5.7739 10.6508 5.67909 10.5654L3.12447 8.26317C2.80375 7.97412 2.64339 7.82964 2.62345 7.69449C2.60614 7.57708 2.64472 7.45833 2.72773 7.37353C2.82331 7.27589 3.03799 7.25324 3.46735 7.20792L6.88728 6.84696C7.01421 6.83357 7.07767 6.82687 7.13255 6.80243C7.1811 6.7808 7.22458 6.74921 7.26015 6.70971C7.30036 6.66508 7.32634 6.60679 7.37831 6.49021L8.7784 3.34921Z" stroke="#D8C30B" stroke-linecap="round" stroke-linejoin="round"/>
</svg>
